STARTFONT 2.3
FONT -FontForge-Monofett-Book-R-Normal--20-200-72-72-P-114-ISO10646-1
SIZE 20 72 72  4
FONTBOUNDINGBOX 14 23 -1 -3
COMMENT "Generated by fontforge, http://fontforge.sourceforge.net"
COMMENT "Copyright (c) 2011 by vernon adams. All rights reserved."
STARTPROPERTIES 41
FOUNDRY "FontForge"
FAMILY_NAME "Monofett"
WEIGHT_NAME "Book"
SLANT "R"
SETWIDTH_NAME "Normal"
ADD_STYLE_NAME ""
PIXEL_SIZE 20
POINT_SIZE 200
RESOLUTION_X 72
RESOLUTION_Y 72
SPACING "P"
AVERAGE_WIDTH 114
CHARSET_REGISTRY "ISO10646"
CHARSET_ENCODING "1"
FONTNAME_REGISTRY ""
CHARSET_COLLECTIONS "ISO8859-2 ISO8859-9 ISO8859-4 ISO10646-1"
BITS_PER_PIXEL 4
FONT_NAME "Monofett"
FACE_NAME "Monofett"
COPYRIGHT "Copyright (c) 2011 by vernon adams. All rights reserved."
FONT_VERSION "1.000"
FONT_ASCENT 16
FONT_DESCENT 4
UNDERLINE_POSITION -3
UNDERLINE_THICKNESS 1
X_HEIGHT 13
CAP_HEIGHT 13
RAW_ASCENT 799
RAW_DESCENT 200
NORM_SPACE 3
RELATIVE_WEIGHT 40
RELATIVE_SETWIDTH 50
SUPERSCRIPT_X 0
SUPERSCRIPT_Y 9
SUPERSCRIPT_SIZE 12
SUBSCRIPT_X 0
SUBSCRIPT_Y 2
SUBSCRIPT_SIZE 12
FIGURE_WIDTH 12
AVG_LOWERCASE_WIDTH 120
AVG_UPPERCASE_WIDTH 120
ENDPROPERTIES
CHARS 409
STARTCHAR uni000D
ENCODING 13
SWIDTH 144 0
DWIDTH 3 0
BBX 1 1 0 0
BITMAP
00
ENDCHAR
STARTCHAR space
ENCODING 32
SWIDTH 144 0
DWIDTH 3 0
BBX 1 1 0 0
BITMAP
00
ENDCHAR
STARTCHAR exclam
ENCODING 33
SWIDTH 424 0
DWIDTH 8 0
BBX 10 14 -1 0
BITMAP
0001553000
007EC8FC30
07FFA1FFE1
0EFFB2FFF6
1FFFC3FFF8
1FFFD4FFF8
1FFFE5FFF8
1FFFF7FFF8
1FFFEBFFF8
1FFFD5FFF8
0FFFFFFFF8
0CFFFFFFF4
03FFFFFFA0
002AEFC600
ENDCHAR
STARTCHAR quotedbl
ENCODING 34
SWIDTH 424 0
DWIDTH 8 0
BBX 10 14 -1 0
BITMAP
0001553000
007E9BAC30
07FF376FE1
0EFF376FF6
1FFFFFFFF8
1FFFFFFFF8
1FFFFFFFF8
1FFFFFFFF8
1FFFFFFFF8
1FFFFFFFF8
0FFFFFFFF8
0CFFFFFFF4
03FFFFFFA0
002AEFC600
ENDCHAR
STARTCHAR numbersign
ENCODING 35
SWIDTH 482 0
DWIDTH 10 0
BBX 11 14 -1 0
BITMAP
000156540000
007EFFFFD400
07FFD8C9FF30
0EFF7364EF90
1FFE2222EFA0
1FFF7859FFB0
1FFE583AFFB0
1FF90104FFB0
1FFF2D1EFFB0
1FFFDFCFFFB0
0FFFFFFFFFA0
0CFFFFFFFF70
03FFFFFFFC10
002AEFFD8100
ENDCHAR
STARTCHAR dollar
ENCODING 36
SWIDTH 578 0
DWIDTH 12 0
BBX 13 14 -1 0
BITMAP
00015666530000
007EFFBDFFC300
07FFB5236DFE20
0EFF285756FF70
1FFF1D8AEEFF90
1FFF35358EFF90
1FFFD94647FF90
1FFFBE8A95FF90
1FFF264647FF90
1FFFC7348EFF90
0FFFFFACFFFF90
0CFFFFFFFFFF50
03FFFFFFFFFB00
002AEFFFFD7000
ENDCHAR
STARTCHAR percent
ENCODING 37
SWIDTH 578 0
DWIDTH 12 0
BBX 13 14 -1 0
BITMAP
00015666530000
007EFFFFFFC300
07E405F4CFFE20
0EC3E0E1EFFF70
1FD132A4FFFF90
1FFDBE59FEFF90
1FFFFF1C214F90
1FFFFB3C3F0E90
1FFFF77E222F90
1FFFFFEFEDEF90
0FFFFFFFFFFF90
0CFFFFFFFFFF50
03FFFFFFFFFB00
002AEFFFFD7000
ENDCHAR
STARTCHAR ampersand
ENCODING 38
SWIDTH 578 0
DWIDTH 12 0
BBX 13 14 -1 0
BITMAP
00015666530000
007EFA888FC300
07FFB2778FFE20
0EFF95FFFFFF70
1FFFB4EEC2EF90
1FFFF30000BF90
1FFFA5FFC2FF90
1FFF95FFC2FF90
1FFFA28853FF90
1FFFF9667DFF90
0FFFFFFFFFFF90
0CFFFFFFFFFF50
03FFFFFFFFFB00
002AEFFFFD7000
ENDCHAR
STARTCHAR quotesingle
ENCODING 39
SWIDTH 424 0
DWIDTH 8 0
BBX 10 14 -1 0
BITMAP
0001553000
007EE9FC30
07FFC3FFE1
0EFFC3FFF6
1FFFFFFFF8
1FFFFFFFF8
1FFFFFFFF8
1FFFFFFFF8
1FFFFFFFF8
1FFFFFFFF8
0FFFFFFFF8
0CFFFFFFF4
03FFFFFFA0
002AEFC600
ENDCHAR
STARTCHAR parenleft
ENCODING 40
SWIDTH 483 0
DWIDTH 10 0
BBX 11 14 -1 0
BITMAP
000156540000
007EE87ED400
07FF547EFF30
0EFF4BFFFF90
1FFF4BFFFFB0
1FFF4BFFFFB0
1FFF4BFFFFB0
1FFF4BFFFFB0
1FFF4BFFFFB0
1FFF48CEFFB0
0FFFB33DFFA0
0CFFFFFFFF70
03FFFFFFFD10
002AEFFD8100
ENDCHAR
STARTCHAR parenright
ENCODING 41
SWIDTH 483 0
DWIDTH 10 0
BBX 11 14 -1 0
BITMAP
000156540000
007EB79FD400
07FFB72AFF30
0EFFFF68FF90
1FFFFF68FFB0
1FFFFF68FFB0
1FFFFF68FFB0
1FFFFF68FFB0
1FFFFF68FFB0
1FFFEC49FFB0
0FFF935EFFA0
0CFFFFFFFF70
03FFFFFFFD10
002AEFFD8100
ENDCHAR
STARTCHAR asterisk
ENCODING 42
SWIDTH 428 0
DWIDTH 9 0
BBX 10 14 -1 0
BITMAP
0001553000
007EBFBC30
07FF451DE2
0EF73014E7
1FFB602AF9
1FFF3A2DF9
1FFFFFFFF9
1FFFFFFFF9
1FFFFFFFF9
1FFFFFFFF9
0FFFFFFFF9
0CFFFFFFF5
03FFFFFFB0
002AEFD700
ENDCHAR
STARTCHAR plus
ENCODING 43
SWIDTH 428 0
DWIDTH 9 0
BBX 10 14 -1 0
BITMAP
0001553000
007EE8FC30
07FFD2FFE2
0EE65168F7
1FF8718AF9
1FFFD2FFF9
1FFFEBFFF9
1FFFFFFFF9
1FFFFFFFF9
1FFFFFFFF9
0FFFFFFFF9
0CFFFFFFF5
03FFFFFFB0
002AEFD700
ENDCHAR
STARTCHAR comma
ENCODING 44
SWIDTH 428 0
DWIDTH 9 0
BBX 10 14 -1 0
BITMAP
0001553000
007EFFFC30
07FFFFFFE2
0EFFFFFFF7
1FFFFFFFF9
1FFFFFFFF9
1FFFFFFFF9
1FFFFFFFF9
1FFFB5EFF9
1FFFC1EFF9
0FFFF7FFF9
0CFFFFFFF5
03FFFFFFB0
002AEFD700
ENDCHAR
STARTCHAR hyphen
ENCODING 45
SWIDTH 428 0
DWIDTH 9 0
BBX 10 14 -1 0
BITMAP
0001553000
007EFFFC30
07FFFFFFE2
0EFFFFFFF7
1FF7000DF9
1FFFFFFFF9
1FFFFFFFF9
1FFFFFFFF9
1FFFFFFFF9
1FFFFFFFF9
0FFFFFFFF9
0CFFFFFFF5
03FFFFFFB0
002AEFD700
ENDCHAR
STARTCHAR period
ENCODING 46
SWIDTH 428 0
DWIDTH 9 0
BBX 10 14 -1 0
BITMAP
0001553000
007EFFFC30
07FFFFFFE2
0EFFFFFFF7
1FFFFFFFF9
1FFFFFFFF9
1FFFFFFFF9
1FFFFFFFF9
1FFFB5FFF9
1FFFC7FFF9
0FFFFFFFF9
0CFFFFFFF5
03FFFFFFB0
002AEFD700
ENDCHAR
STARTCHAR slash
ENCODING 47
SWIDTH 428 0
DWIDTH 9 0
BBX 10 14 -1 0
BITMAP
0001553000
007EFDEC30
07FFF5AFE2
0EFFF2CFF7
1FFFE0EFF9
1FFFC2FFF9
1FFFA5FFF9
1FFF77FFF9
1FFF5AFFF9
1FFF4CFFF9
0FFFFFFFF9
0CFFFFFFF5
03FFFFFFB0
002AEFD700
ENDCHAR
STARTCHAR zero
ENCODING 48
SWIDTH 578 0
DWIDTH 12 0
BBX 13 14 -1 0
BITMAP
00015666530000
007ED8888BC300
07FF457771DE20
0EFF2DFFF3CF70
1FFF2DFFF3CF90
1FFF2DFFF3CF90
1FFF2DFFF3CF90
1FFF2DFFF3CF90
1FFF368881DF90
1FFFD7667AFF90
0FFFFFFFFFFF90
0CFFFFFFFFFF50
03FFFFFFFFFB00
002AEFFFFD7000
ENDCHAR
STARTCHAR one
ENCODING 49
SWIDTH 578 0
DWIDTH 12 0
BBX 13 14 -1 0
BITMAP
00015666530000
007EFE9BFFC300
07FFF536FFFE20
0EFFFF86FFFF70
1FFFFF86FFFF90
1FFFFF86FFFF90
1FFFFF86FFFF90
1FFFFF86FFFF90
1FFFFF86FFFF90
1FFFFFBAFFFF90
0FFFFFFFFFFF90
0CFFFFFFFFFF50
03FFFFFFFFFB00
002AEFFFFD7000
ENDCHAR
STARTCHAR two
ENCODING 50
SWIDTH 578 0
DWIDTH 12 0
BBX 13 14 -1 0
BITMAP
00015666530000
007ED8888DC300
07FF457762FE20
0EFFAEFFE0FF70
1FFFFFFFE0FF90
1FFFB43325FF90
1FFF39DDEFFF90
1FFF2DFFFFFF90
1FFF27888BFF90
1FFFA66669FF90
0FFFFFFFFFFF90
0CFFFFFFFFFF50
03FFFFFFFFFB00
002AEFFFFD7000
ENDCHAR
STARTCHAR three
ENCODING 51
SWIDTH 578 0
DWIDTH 12 0
BBX 13 14 -1 0
BITMAP
00015666530000
007EC8889DC300
07FD167754FE20
0EFEAFFFD2FF70
1FFFFFFFC2FF90
1FFFF61104FF90
1FFFFFFFC2FF90
1FFECFFFD2FF90
1FFD188863FF90
1FFFA6667CFF90
0FFFFFFFFFFF90
0CFFFFFFFFFF50
03FFFFFFFFFB00
002AEFFFFD7000
ENDCHAR
STARTCHAR four
ENCODING 52
SWIDTH 578 0
DWIDTH 12 0
BBX 13 14 -1 0
BITMAP
00015666530000
007ECBFF8FC300
07FF87FE0FFE20
0EFF87FE0FFF70
1FFF87FE0FFF90
1FFF87FE0FFF90
1FFF93A90ACF90
1FFFE75405AF90
1FFFFFFE0FFF90
1FFFFFFE6FFF90
0FFFFFFFFFFF90
0CFFFFFFFFFF50
03FFFFFFFFFB00
002AEFFFFD7000
ENDCHAR
STARTCHAR five
ENCODING 53
SWIDTH 578 0
DWIDTH 12 0
BBX 13 14 -1 0
BITMAP
00015666530000
007EC8888AC300
07FF457779FE20
0EFF4BFFFFFF70
1FFF48AAADFF90
1FFF645541FF90
1FFFFFFFF1DF90
1FFFFFFFF2DF90
1FFF558880EF90
1FFFE7667BFF90
0FFFFFFFFFFF90
0CFFFFFFFFFF50
03FFFFFFFFFB00
002AEFFFFD7000
ENDCHAR
STARTCHAR six
ENCODING 54
SWIDTH 578 0
DWIDTH 12 0
BBX 13 14 -1 0
BITMAP
00015666530000
007EE9888BC300
07FF635558FE20
0EFF4BFFFFFF70
1FFF47999CFF90
1FFF435551CF90
1FFF4BFFF59F90
1FFF4BFFF59F90
1FFF558882BF90
1FFFD76669FF90
0FFFFFFFFFFF90
0CFFFFFFFFFF50
03FFFFFFFFFB00
002AEFFFFD7000
ENDCHAR
STARTCHAR seven
ENCODING 55
SWIDTH 578 0
DWIDTH 12 0
BBX 13 14 -1 0
BITMAP
00015666530000
007EF8888DC300
07FFF8770BFE20
0EFFFFFC1FFF70
1FFFFFF67FFF90
1FFFFFF1CFFF90
1FFFFFA2FFFF90
1FFFFF57FFFF90
1FFFFE0DFFFF90
1FFFFC7FFFFF90
0FFFFFFFFFFF90
0CFFFFFFFFFF50
03FFFFFFFFFB00
002AEFFFFD7000
ENDCHAR
STARTCHAR eight
ENCODING 56
SWIDTH 578 0
DWIDTH 12 0
BBX 13 14 -1 0
BITMAP
00015666530000
007ED8888BC300
07FF357771EE20
0EFF1DFFF3CF70
1FFF1BEEE1CF90
1FFF400000EF90
1FFF1DFFF2CF90
1FFF1DFFF3CF90
1FFF268881DF90
1FFFC7667AFF90
0FFFFFFFFFFF90
0CFFFFFFFFFF50
03FFFFFFFFFB00
002AEFFFFD7000
ENDCHAR
STARTCHAR nine
ENCODING 57
SWIDTH 578 0
DWIDTH 12 0
BBX 13 14 -1 0
BITMAP
00015666530000
007EC8888CC300
07FF167761FE20
0EFE0FFFF0EF70
1FFE0FFFF0EF90
1FFF156660EF90
1FFFD98890EF90
1FFFFFFFF0EF90
1FFFC67760FF90
1FFFD7667BFF90
0FFFFFFFFFFF90
0CFFFFFFFFFF50
03FFFFFFFFFB00
002AEFFFFD7000
ENDCHAR
STARTCHAR colon
ENCODING 58
SWIDTH 428 0
DWIDTH 9 0
BBX 10 14 -1 0
BITMAP
0001553000
007EFFFC30
07FFFFFFE2
0EFFFFFFF7
1FFFFFFFF9
1FFFC8FFF9
1FFFB4FFF9
1FFFFFFFF9
1FFFB5FFF9
1FFFC7FFF9
0FFFFFFFF9
0CFFFFFFF5
03FFFFFFB0
002AEFD700
ENDCHAR
STARTCHAR semicolon
ENCODING 59
SWIDTH 428 0
DWIDTH 9 0
BBX 10 14 -1 0
BITMAP
0001553000
007EFFFC30
07FFFFFFE2
0EFFFFFFF7
1FFFFFFFF9
1FFFE8EFF9
1FFFD4EFF9
1FFFFFFFF9
1FFFB5EFF9
1FFFC1EFF9
0FFFF7FFF9
0CFFFFFFF5
03FFFFFFB0
002AEFD700
ENDCHAR
STARTCHAR less
ENCODING 60
SWIDTH 482 0
DWIDTH 10 0
BBX 11 16 -1 0
BITMAP
000023310000
003CFFFF9100
04FFFFFFFD10
0CFFFFFFFF70
0FFFFFBEFFA0
1FFFFC5FFFB0
1FFFD5EFFFB0
1FFE5EFFFFB0
1FFC6FFFFFB0
1FFFA8FFFFB0
1FFFF8AFFFB0
0FFFFF6EFFA0
0BFFFFFFFF60
03EFFFFFFC00
002AEFFD7000
000001000000
ENDCHAR
STARTCHAR equal
ENCODING 61
SWIDTH 482 0
DWIDTH 10 0
BBX 11 16 -1 0
BITMAP
000013310000
003CFFFFA100
04FFFFFFFD10
0CFFFFFFFF70
0FFFFFFFFFA0
1FFFFFFFFFB0
1FFFA999FFB0
1FFFCCCCFFB0
1FFF8888FFB0
1FFFDDDDFFB0
1FFFFFFFFFB0
0FFFFFFFFFA0
0BFFFFFFFF60
03EFFFFFFB00
002AEFFD7000
000001000000
ENDCHAR
STARTCHAR greater
ENCODING 62
SWIDTH 482 0
DWIDTH 10 0
BBX 11 16 -1 0
BITMAP
000013310000
003CFFFFA100
04FFFFFFFD10
0CFFFFFFFF70
0FFFBEFFFFA0
1FFFD5FFFFB0
1FFFFC6FFFB0
1FFFFFA7FFB0
1FFFFFE4FFB0
1FFFFE5DFFB0
1FFFF5CFFFB0
0FFF9BFFFFA0
0BFFFFFFFF60
03EFFFFFFB00
002AEFFD7000
000001000000
ENDCHAR
STARTCHAR question
ENCODING 63
SWIDTH 578 0
DWIDTH 12 0
BBX 13 14 -1 0
BITMAP
00015666530000
007EFC999DC300
07FFD37883FE20
0EFFEDFFF3FF70
1FFFFFFFF3FF90
1FFFFFE763FF90
1FFFFFA5BEFF90
1FFFFFB8FFFF90
1FFFFFCAFFFF90
1FFFFFCAFFFF90
0FFFFFFFFFFF90
0CFFFFFFFFFF50
03FFFFFFFFFB00
002AEFFFFD7000
ENDCHAR
STARTCHAR at
ENCODING 64
SWIDTH 578 0
DWIDTH 12 0
BBX 13 14 -1 0
BITMAP
00015666530000
007EC8667CC300
07F828BBA39E20
0EE2EA66BE2F70
1FC5FDDD2F5D90
1FC6FD9A2D6C90
1FC5E3881D6C90
1FC5D3AA2D6C90
1FE3FC89763E90
1FF66BCEFDDF90
0FFF966BFFFF90
0CFFFFFFFFFF50
03FFFFFFFFFB00
002AEFFFFD7000
ENDCHAR
STARTCHAR A
ENCODING 65
SWIDTH 578 0
DWIDTH 12 0
BBX 13 14 -1 0
BITMAP
00015666530000
007EFA889FC300
07FFB26737FE20
0EFF86FF95FF70
1FFF78FFA4FF90
1FFF56AA82FF90
1FFF346660FF90
1FFF2CFFF0EF90
1FFF0DFFF1CF90
1FFE6EFFF8DF90
0FFFFFFFFFFF90
0CFFFFFFFFFF50
03FFFFFFFFFB00
002AEFFFFD7000
ENDCHAR
STARTCHAR B
ENCODING 66
SWIDTH 578 0
DWIDTH 12 0
BBX 13 14 -1 0
BITMAP
00015666530000
007E88888DC300
07FF077744FE20
0EFF0EFFB2FF70
1FFF0DEEA3FF90
1FFF000008FF90
1FFF0EFFC3FF90
1FFF0EFFC2FF90
1FFF088853FF90
1FFF66667DFF90
0FFFFFFFFFFF90
0CFFFFFFFFFF50
03FFFFFFFFFB00
002AEFFFFD7000
ENDCHAR
STARTCHAR C
ENCODING 67
SWIDTH 578 0
DWIDTH 12 0
BBX 13 14 -1 0
BITMAP
00015666530000
007ED8888EC300
07FF26776DFE20
0EFF0EFFFFFF70
1FFF0EFFFFFF90
1FFF0EFFFFFF90
1FFF0EFFFFFF90
1FFF0EFFFFFF90
1FFF26887EFF90
1FFFC7667DFF90
0FFFFFFFFFFF90
0CFFFFFFFFFF50
03FFFFFFFFFB00
002AEFFFFD7000
ENDCHAR
STARTCHAR D
ENCODING 68
SWIDTH 578 0
DWIDTH 12 0
BBX 13 14 -1 0
BITMAP
00015666530000
007E98888BC300
07FF357771CE20
0EFF3CFFF4AF70
1FFF3CFFF4AF90
1FFF3CFFF4AF90
1FFF3CFFF4AF90
1FFF3CFFF4AF90
1FFF368881CF90
1FFF866679FF90
0FFFFFFFFFFF90
0CFFFFFFFFFF50
03FFFFFFFFFB00
002AEFFFFD7000
ENDCHAR
STARTCHAR E
ENCODING 69
SWIDTH 578 0
DWIDTH 12 0
BBX 13 14 -1 0
BITMAP
00015666530000
007EE8888AC300
07FFE07779FE20
0EFFE1FFFFFF70
1FFFE1FFFFFF90
1FFFE0000CFF90
1FFFE1EEEFFF90
1FFFE1FFFFFF90
1FFFE08889FF90
1FFFE66668FF90
0FFFFFFFFFFF90
0CFFFFFFFFFF50
03FFFFFFFFFB00
002AEFFFFD7000
ENDCHAR
STARTCHAR F
ENCODING 70
SWIDTH 578 0
DWIDTH 12 0
BBX 13 14 -1 0
BITMAP
00015666530000
007EE8888AC300
07FFD17779FE20
0EFFD1FFFFFF70
1FFFD1DDDFFF90
1FFFD0222DFF90
1FFFD1FFFFFF90
1FFFD1FFFFFF90
1FFFD1FFFFFF90
1FFFE7FFFFFF90
0FFFFFFFFFFF90
0CFFFFFFFFFF50
03FFFFFFFFFB00
002AEFFFFD7000
ENDCHAR
STARTCHAR G
ENCODING 71
SWIDTH 578 0
DWIDTH 12 0
BBX 13 14 -1 0
BITMAP
00015666530000
007EF9888AC300
07FF737778FE20
0EFF59FFFFFF70
1FFF59FFFFFF90
1FFF59FB77DF90
1FFF59FB82BF90
1FFF59FFF4BF90
1FFF748881CF90
1FFFE8667AFF90
0FFFFFFFFFFF90
0CFFFFFFFFFF50
03FFFFFFFFFB00
002AEFFFFD7000
ENDCHAR
STARTCHAR H
ENCODING 72
SWIDTH 578 0
DWIDTH 12 0
BBX 13 14 -1 0
BITMAP
00015666530000
007E9DFFFAA300
07FF3CFFF4AE20
0EFF3CFFF4AF70
1FFF3BEEE4AF90
1FFF311110AF90
1FFF3CFFF4AF90
1FFF3CFFF4AF90
1FFF3CFFF4AF90
1FFF8DFFF9CF90
0FFFFFFFFFFF90
0CFFFFFFFFFF50
03FFFFFFFFFB00
002AEFFFFD7000
ENDCHAR
STARTCHAR I
ENCODING 73
SWIDTH 578 0
DWIDTH 12 0
BBX 13 14 -1 0
BITMAP
00015666530000
007EB88888B300
07FFB76177EE20
0EFFFFC2FFFF70
1FFFFFC2FFFF90
1FFFFFC2FFFF90
1FFFFFC2FFFF90
1FFFFFC2FFFF90
1FFFC87188EF90
1FFFB66666EF90
0FFFFFFFFFFF90
0CFFFFFFFFFF50
03FFFFFFFFFB00
002AEFFFFD7000
ENDCHAR
STARTCHAR J
ENCODING 74
SWIDTH 578 0
DWIDTH 12 0
BBX 13 14 -1 0
BITMAP
00015666530000
007EFFFCAFC300
07FFFFFA5FFE20
0EFFFFFA5FFF70
1FFFFFFA5FFF90
1FFFFFFA5FFF90
1FFFFFFA5FFF90
1FFFFFFA5FFF90
1FFFFB845FFF90
1FFFFA68EFFF90
0FFFFFFFFFFF90
0CFFFFFFFFFF50
03FFFFFFFFFB00
002AEFFFFD7000
ENDCHAR
STARTCHAR K
ENCODING 75
SWIDTH 578 0
DWIDTH 12 0
BBX 13 14 -1 0
BITMAP
00015666530000
007EF8FFFB8300
07FFF0FFB1AE20
0EFFF0FB1BFF70
1FFFF0A1BFFF90
1FFFF005FFFF90
1FFFF0B29FFF90
1FFFF0FC1BFF90
1FFFF0FFA1CF90
1FFFF6FFF9CF90
0FFFFFFFFFFF90
0CFFFFFFFFFF50
03FFFFFFFFFB00
002AEFFFFD7000
ENDCHAR
STARTCHAR L
ENCODING 76
SWIDTH 578 0
DWIDTH 12 0
BBX 13 14 -1 0
BITMAP
00015666530000
007EFACFFFC300
07FFF69FFFFE20
0EFFF69FFFFF70
1FFFF69FFFFF90
1FFFF69FFFFF90
1FFFF69FFFFF90
1FFFF69FFFFF90
1FFFF6588CFF90
1FFFFA666BFF90
0FFFFFFFFFFF90
0CFFFFFFFFFF50
03FFFFFFFFFB00
002AEFFFFD7000
ENDCHAR
STARTCHAR M
ENCODING 77
SWIDTH 578 0
DWIDTH 12 0
BBX 13 14 -1 0
BITMAP
00015666530000
007E98AB88B300
07F83743746E20
0EF87F86F95F70
1FF87F86F95F90
1FF87F86F95F90
1FF87FA8F95F90
1FF87FFFF95F90
1FF87FFFF95F90
1FFBAFFFFC9F90
0FFFFFFFFFFF90
0CFFFFFFFFFF50
03FFFFFFFFFB00
002AEFFFFD7000
ENDCHAR
STARTCHAR N
ENCODING 78
SWIDTH 578 0
DWIDTH 12 0
BBX 13 14 -1 0
BITMAP
00015666530000
007EB8888CC300
07FF257771FE20
0EFF2CFFF1DF70
1FFF2CFFF1DF90
1FFF2CFFF1DF90
1FFF2CFFF1DF90
1FFF2CFFF1DF90
1FFF2CFFF1DF90
1FFF8DFFF7EF90
0FFFFFFFFFFF90
0CFFFFFFFFFF50
03FFFFFFFFFB00
002AEFFFFD7000
ENDCHAR
STARTCHAR O
ENCODING 79
SWIDTH 578 0
DWIDTH 12 0
BBX 13 14 -1 0
BITMAP
00015666530000
007EE8888BC300
07FF457771CE20
0EFF3CFFF4BF70
1FFF3CFFF4BF90
1FFF3CFFF4BF90
1FFF3CFFF4BF90
1FFF3CFFF4BF90
1FFF458881CF90
1FFFD76679FF90
0FFFFFFFFFFF90
0CFFFFFFFFFF50
03FFFFFFFFFB00
002AEFFFFD7000
ENDCHAR
STARTCHAR P
ENCODING 80
SWIDTH 578 0
DWIDTH 12 0
BBX 13 14 -1 0
BITMAP
00015666530000
007ED8888CC300
07FFA27761FE20
0EFFA4FFF0EF70
1FFFA4FFF0EF90
1FFFA3AA90FF90
1FFFA1555AFF90
1FFFA4FFFFFF90
1FFFA4FFFFFF90
1FFFC9FFFFFF90
0FFFFFFFFFFF90
0CFFFFFFFFFF50
03FFFFFFFFFB00
002AEFFFFD7000
ENDCHAR
STARTCHAR Q
ENCODING 81
SWIDTH 578 0
DWIDTH 12 0
BBX 13 14 -1 0
BITMAP
00015666530000
007EE8888BC300
07FF547771CE20
0EFF3CFFF4AF70
1FFF3CFFF4AF90
1FFF3CFFF4AF90
1FFF3CFFF4AF90
1FFF3CF9F4AF90
1FFF458061CF90
1FFFD76509FF90
0FFFFFFF3DFF90
0CFFFFFFFFFF50
03FFFFFFFFFB00
002AEFFFFD7000
ENDCHAR
STARTCHAR R
ENCODING 82
SWIDTH 578 0
DWIDTH 12 0
BBX 13 14 -1 0
BITMAP
00015666530000
007EA8889EC300
07FF547737FE20
0EFF59FFA4FF70
1FFF59FFA5FF90
1FFF52444DFF90
1FFF56AA56FF90
1FFF59FFC3FF90
1FFF59FFC3FF90
1FFF9BFFD8FF90
0FFFFFFFFFFF90
0CFFFFFFFFFF50
03FFFFFFFFFB00
002AEFFFFD7000
ENDCHAR
STARTCHAR S
ENCODING 83
SWIDTH 578 0
DWIDTH 12 0
BBX 13 14 -1 0
BITMAP
00015666530000
007EF9888AC300
07FF837778FE20
0EFF69FFFFFF70
1FFF67EEFFFF90
1FFFC20004FF90
1FFFFFFFF1DF90
1FFFFFFFF1DF90
1FFFE78870EF90
1FFFD7667BFF90
0FFFFFFFFFFF90
0CFFFFFFFFFF50
03FFFFFFFFFB00
002AEFFFFD7000
ENDCHAR
STARTCHAR T
ENCODING 84
SWIDTH 578 0
DWIDTH 12 0
BBX 13 14 -1 0
BITMAP
00015666530000
007EB88888B300
07FFB76177EE20
0EFFFFC2FFFF70
1FFFFFC2FFFF90
1FFFFFC2FFFF90
1FFFFFC2FFFF90
1FFFFFC2FFFF90
1FFFFFC2FFFF90
1FFFFFD8FFFF90
0FFFFFFFFFFF90
0CFFFFFFFFFF50
03FFFFFFFFFB00
002AEFFFFD7000
ENDCHAR
STARTCHAR U
ENCODING 85
SWIDTH 578 0
DWIDTH 12 0
BBX 13 14 -1 0
BITMAP
00015666530000
007E8EFFF9A300
07FF2DFFF3CE20
0EFF2DFFF3CF70
1FFF2DFFF3CF90
1FFF2DFFF3CF90
1FFF2DFFF3CF90
1FFF2DFFF3CF90
1FFF368881DF90
1FFFD7667AFF90
0FFFFFFFFFFF90
0CFFFFFFFFFF50
03FFFFFFFFFB00
002AEFFFFD7000
ENDCHAR
STARTCHAR V
ENCODING 86
SWIDTH 578 0
DWIDTH 12 0
BBX 13 14 -1 0
BITMAP
00015666530000
007E9DFFF9B300
07FF39FFE0EE20
0EFF75FFA3FF70
1FFFC1FF67FF90
1FFFF1DF2BFF90
1FFFF59D0EFF90
1FFFF95A4FFF90
1FFFFD148FFF90
1FFFFFA7FFFF90
0FFFFFFFFFFF90
0CFFFFFFFFFF50
03FFFFFFFFFB00
002AEFFFFD7000
ENDCHAR
STARTCHAR W
ENCODING 87
SWIDTH 578 0
DWIDTH 12 0
BBX 13 14 -1 0
BITMAP
00015666530000
007ADFEEFD7300
07F3AF75FB2E20
0EF58F43F94F70
1FF77F11F86F90
1FF85E13D77F90
1FFA4B45A59F90
1FFC396774BF90
1FFD148A31CF90
1FFFA7EF89FF90
0FFFFFFFFFFF90
0CFFFFFFFFFF50
03FFFFFFFFFB00
002AEFFFFD7000
ENDCHAR
STARTCHAR X
ENCODING 88
SWIDTH 578 0
DWIDTH 12 0
BBX 13 14 -1 0
BITMAP
00015666530000
007EBDFFFBB300
07FF84FFC1EE20
0EFFF3AF39FF70
1FFFFC283FFF90
1FFFFF40BFFF90
1FFFFD154FFF90
1FFFF48E2AFF90
1FFF93FFB2EF90
1FFFBCFFF9DF90
0FFFFFFFFFFF90
0CFFFFFFFFFF50
03FFFFFFFFFB00
002AEFFFFD7000
ENDCHAR
STARTCHAR Y
ENCODING 89
SWIDTH 578 0
DWIDTH 12 0
BBX 13 14 -1 0
BITMAP
00015666530000
007EABFFE8B300
07FFA2FF93FE20
0EFFF2BF3AFF70
1FFFF85C1FFF90
1FFFFE147FFF90
1FFFFF60EFFF90
1FFFFFA4FFFF90
1FFFFFB4FFFF90
1FFFFFC9FFFF90
0FFFFFFFFFFF90
0CFFFFFFFFFF50
03FFFFFFFFFB00
002AEFFFFD7000
ENDCHAR
STARTCHAR Z
ENCODING 90
SWIDTH 578 0
DWIDTH 12 0
BBX 13 14 -1 0
BITMAP
00015666530000
007EE8888EC300
07FFE7770BFE20
0EFFFFF93FFF70
1FFFFFE1CFFF90
1FFFFF75FFFF90
1FFFFD1DFFFF90
1FFFF67FFFFF90
1FFFD0788BFF90
1FFFE66669FF90
0FFFFFFFFFFF90
0CFFFFFFFFFF50
03FFFFFFFFFB00
002AEFFFFD7000
ENDCHAR
STARTCHAR bracketleft
ENCODING 91
SWIDTH 484 0
DWIDTH 10 0
BBX 11 14 -1 0
BITMAP
000156540000
007EF56FE500
07FFF1AFFF30
0EFFF1DFFF90
1FFFF1DFFFB0
1FFFF1DFFFB0
1FFFF1DFFFB0
1FFFF1DFFFB0
1FFFF1DFFFB0
1FFFF18FFFB0
0FFFF89FFFB0
0CFFFFFFFF70
03FFFFFFFD10
002AEFFD8100
ENDCHAR
STARTCHAR backslash
ENCODING 92
SWIDTH 516 0
DWIDTH 10 0
BBX 12 14 -1 0
BITMAP
000156652000
007EF9DFFB10
07FFF5AFFFC0
0EFFF77FFFF3
1FFFFA4FFFF5
1FFFFC2FFFF5
1FFFFE0EFFF5
1FFFFF2CFFF5
1FFFFF5AFFF5
1FFFFFABFFF5
0FFFFFFFFFF5
0CFFFFFFFFF2
03FFFFFFFF80
002AEFFEC500
ENDCHAR
STARTCHAR bracketright
ENCODING 93
SWIDTH 484 0
DWIDTH 10 0
BBX 11 14 -1 0
BITMAP
000156540000
007EE48FE500
07FFF66FFF30
0EFFF86FFF90
1FFFF86FFFB0
1FFFF86FFFB0
1FFFF86FFFB0
1FFFF86FFFB0
1FFFF86FFFB0
1FFFE46FFFB0
0FFFE7AFFFB0
0CFFFFFFFF70
03FFFFFFFD10
002AEFFD8100
ENDCHAR
STARTCHAR asciicircum
ENCODING 94
SWIDTH 355 0
DWIDTH 7 0
BBX 8 8 0 4
BITMAP
01ADB200
0AFFFC00
2FE2DF30
8F9B8F90
DF8F8FE1
FFEFEEF2
9FFDFFB0
02202300
ENDCHAR
STARTCHAR underscore
ENCODING 95
SWIDTH 428 0
DWIDTH 9 0
BBX 10 14 -1 0
BITMAP
0001553000
007EFFFC30
07FFFFFFE2
0EFFFFFFF7
1FFFFFFFF9
1FFFFFFFF9
1FFFFFFFF9
1FFFFFFFF9
1FFFFFFFF9
1FF9999CF9
0FF6555AF9
0CFFFFFFF5
03FFFFFFB0
002AEFD700
ENDCHAR
STARTCHAR grave
ENCODING 96
SWIDTH 308 0
DWIDTH 6 0
BBX 7 7 0 0
BITMAP
17AA5000
CFFFF300
FF58F800
AFC4FC00
2EF4EF10
07FDEF20
00BCC600
ENDCHAR
STARTCHAR a
ENCODING 97
SWIDTH 578 0
DWIDTH 12 0
BBX 13 14 -1 0
BITMAP
00015666530000
007EC8889FC300
07FFB77738FE20
0EFFFFFF88FF70
1FFFFFFF88FF90
1FFFA55538FF90
1FFE09AA58FF90
1FFD1FFF88FF90
1FFE078848FF90
1FFFB7668BFF90
0FFFFFFFFFFF90
0CFFFFFFFFFF50
03FFFFFFFFFB00
002AEFFFFD7000
ENDCHAR
STARTCHAR b
ENCODING 98
SWIDTH 578 0
DWIDTH 12 0
BBX 13 14 -1 0
BITMAP
00015666530000
007E88888DC300
07FF077744FE20
0EFF0EFFB2FF70
1FFF0DEEA3FF90
1FFF000008FF90
1FFF0EFFC3FF90
1FFF0EFFC2FF90
1FFF088853FF90
1FFF66667DFF90
0FFFFFFFFFFF90
0CFFFFFFFFFF50
03FFFFFFFFFB00
002AEFFFFD7000
ENDCHAR
STARTCHAR c
ENCODING 99
SWIDTH 578 0
DWIDTH 12 0
BBX 13 14 -1 0
BITMAP
00015666530000
007ED8888EC300
07FF26776DFE20
0EFF0EFFFFFF70
1FFF0EFFFFFF90
1FFF0EFFFFFF90
1FFF0EFFFFFF90
1FFF0EFFFFFF90
1FFF26887EFF90
1FFFC7667DFF90
0FFFFFFFFFFF90
0CFFFFFFFFFF50
03FFFFFFFFFB00
002AEFFFFD7000
ENDCHAR
STARTCHAR d
ENCODING 100
SWIDTH 578 0
DWIDTH 12 0
BBX 13 14 -1 0
BITMAP
00015666530000
007E98888BC300
07FF357771CE20
0EFF3CFFF4AF70
1FFF3CFFF4AF90
1FFF3CFFF4AF90
1FFF3CFFF4AF90
1FFF3CFFF4AF90
1FFF368881CF90
1FFF866679FF90
0FFFFFFFFFFF90
0CFFFFFFFFFF50
03FFFFFFFFFB00
002AEFFFFD7000
ENDCHAR
STARTCHAR e
ENCODING 101
SWIDTH 578 0
DWIDTH 12 0
BBX 13 14 -1 0
BITMAP
00015666530000
007EC8889FC300
07FF167738FE20
0EFE0FFF87FF70
1FFE088847FF90
1FFE07777BFF90
1FFE0FFFFFFF90
1FFE0FFFFFFF90
1FFF32332DFF90
1FFFEBBBCEFF90
0FFFFFFFFFFF90
0CFFFFFFFFFF50
03FFFFFFFFFB00
002AEFFFFD7000
ENDCHAR
STARTCHAR f
ENCODING 102
SWIDTH 578 0
DWIDTH 12 0
BBX 13 14 -1 0
BITMAP
00015666530000
007EE8888AC300
07FFD17779FE20
0EFFD1FFFFFF70
1FFFD1DDDFFF90
1FFFD0222DFF90
1FFFD1FFFFFF90
1FFFD1FFFFFF90
1FFFD1FFFFFF90
1FFFE7FFFFFF90
0FFFFFFFFFFF90
0CFFFFFFFFFF50
03FFFFFFFFFB00
002AEFFFFD7000
ENDCHAR
STARTCHAR g
ENCODING 103
SWIDTH 578 0
DWIDTH 12 0
BBX 13 14 -1 0
BITMAP
00015666530000
007EF9888AC300
07FF737778FE20
0EFF59FFFFFF70
1FFF59FFFFFF90
1FFF59FB77DF90
1FFF59FB82BF90
1FFF59FFF4BF90
1FFF748881CF90
1FFFE8667AFF90
0FFFFFFFFFFF90
0CFFFFFFFFFF50
03FFFFFFFFFB00
002AEFFFFD7000
ENDCHAR
STARTCHAR h
ENCODING 104
SWIDTH 578 0
DWIDTH 12 0
BBX 13 14 -1 0
BITMAP
00015666530000
007E9DFFFAA300
07FF3CFFF4AE20
0EFF3CFFF4AF70
1FFF3BEEE4AF90
1FFF311110AF90
1FFF3CFFF4AF90
1FFF3CFFF4AF90
1FFF3CFFF4AF90
1FFF8DFFF9CF90
0FFFFFFFFFFF90
0CFFFFFFFFFF50
03FFFFFFFFFB00
002AEFFFFD7000
ENDCHAR
STARTCHAR i
ENCODING 105
SWIDTH 578 0
DWIDTH 12 0
BBX 13 14 -1 0
BITMAP
00015666530000
007EB88888B300
07FFB76177EE20
0EFFFFC2FFFF70
1FFFFFC2FFFF90
1FFFFFC2FFFF90
1FFFFFC2FFFF90
1FFFFFC2FFFF90
1FFFC87188EF90
1FFFB66666EF90
0FFFFFFFFFFF90
0CFFFFFFFFFF50
03FFFFFFFFFB00
002AEFFFFD7000
ENDCHAR
STARTCHAR j
ENCODING 106
SWIDTH 578 0
DWIDTH 12 0
BBX 13 14 -1 0
BITMAP
00015666530000
007EFFFCAFC300
07FFFFFA5FFE20
0EFFFFFA5FFF70
1FFFFFFA5FFF90
1FFFFFFA5FFF90
1FFFFFFA5FFF90
1FFFFFFA5FFF90
1FFFFB845FFF90
1FFFFA68EFFF90
0FFFFFFFFFFF90
0CFFFFFFFFFF50
03FFFFFFFFFB00
002AEFFFFD7000
ENDCHAR
STARTCHAR k
ENCODING 107
SWIDTH 578 0
DWIDTH 12 0
BBX 13 14 -1 0
BITMAP
00015666530000
007EF8FFFB8300
07FFF0FFB1AE20
0EFFF0FB1BFF70
1FFFF0A1BFFF90
1FFFF005FFFF90
1FFFF0B29FFF90
1FFFF0FC1BFF90
1FFFF0FFA1CF90
1FFFF6FFF9CF90
0FFFFFFFFFFF90
0CFFFFFFFFFF50
03FFFFFFFFFB00
002AEFFFFD7000
ENDCHAR
STARTCHAR l
ENCODING 108
SWIDTH 578 0
DWIDTH 12 0
BBX 13 14 -1 0
BITMAP
00015666530000
007EFACFFFC300
07FFF69FFFFE20
0EFFF69FFFFF70
1FFFF69FFFFF90
1FFFF69FFFFF90
1FFFF69FFFFF90
1FFFF69FFFFF90
1FFFF6588CFF90
1FFFFA666BFF90
0FFFFFFFFFFF90
0CFFFFFFFFFF50
03FFFFFFFFFB00
002AEFFFFD7000
ENDCHAR
STARTCHAR m
ENCODING 109
SWIDTH 578 0
DWIDTH 12 0
BBX 13 14 -1 0
BITMAP
00015666530000
007E98AB88B300
07F83743746E20
0EF87F86F95F70
1FF87F86F95F90
1FF87F86F95F90
1FF87FA8F95F90
1FF87FFFF95F90
1FF87FFFF95F90
1FFBAFFFFC9F90
0FFFFFFFFFFF90
0CFFFFFFFFFF50
03FFFFFFFFFB00
002AEFFFFD7000
ENDCHAR
STARTCHAR n
ENCODING 110
SWIDTH 578 0
DWIDTH 12 0
BBX 13 14 -1 0
BITMAP
00015666530000
007EB8888CC300
07FF257771FE20
0EFF2CFFF1DF70
1FFF2CFFF1DF90
1FFF2CFFF1DF90
1FFF2CFFF1DF90
1FFF2CFFF1DF90
1FFF2CFFF1DF90
1FFF8DFFF7EF90
0FFFFFFFFFFF90
0CFFFFFFFFFF50
03FFFFFFFFFB00
002AEFFFFD7000
ENDCHAR
STARTCHAR o
ENCODING 111
SWIDTH 578 0
DWIDTH 12 0
BBX 13 14 -1 0
BITMAP
00015666530000
007EE8888BC300
07FF457771CE20
0EFF3CFFF4BF70
1FFF3CFFF4BF90
1FFF3CFFF4BF90
1FFF3CFFF4BF90
1FFF3CFFF4BF90
1FFF458881CF90
1FFFD76679FF90
0FFFFFFFFFFF90
0CFFFFFFFFFF50
03FFFFFFFFFB00
002AEFFFFD7000
ENDCHAR
STARTCHAR p
ENCODING 112
SWIDTH 578 0
DWIDTH 12 0
BBX 13 14 -1 0
BITMAP
00015666530000
007ED8888CC300
07FFA27761FE20
0EFFA4FFF0EF70
1FFFA4FFF0EF90
1FFFA3AA90FF90
1FFFA1555AFF90
1FFFA4FFFFFF90
1FFFA4FFFFFF90
1FFFC9FFFFFF90
0FFFFFFFFFFF90
0CFFFFFFFFFF50
03FFFFFFFFFB00
002AEFFFFD7000
ENDCHAR
STARTCHAR q
ENCODING 113
SWIDTH 578 0
DWIDTH 12 0
BBX 13 14 -1 0
BITMAP
00015666530000
007EE8888BC300
07FF547771CE20
0EFF3CFFF4AF70
1FFF3CFFF4AF90
1FFF3CFFF4AF90
1FFF3CFFF4AF90
1FFF3CF9F4AF90
1FFF458061CF90
1FFFD76509FF90
0FFFFFFF3DFF90
0CFFFFFFFFFF50
03FFFFFFFFFB00
002AEFFFFD7000
ENDCHAR
STARTCHAR r
ENCODING 114
SWIDTH 578 0
DWIDTH 12 0
BBX 13 14 -1 0
BITMAP
00015666530000
007EA8889EC300
07FF547737FE20
0EFF59FFA4FF70
1FFF59FFA5FF90
1FFF52444DFF90
1FFF56AA56FF90
1FFF59FFC3FF90
1FFF59FFC3FF90
1FFF9BFFD8FF90
0FFFFFFFFFFF90
0CFFFFFFFFFF50
03FFFFFFFFFB00
002AEFFFFD7000
ENDCHAR
STARTCHAR s
ENCODING 115
SWIDTH 578 0
DWIDTH 12 0
BBX 13 14 -1 0
BITMAP
00015666530000
007EF9888AC300
07FF837778FE20
0EFF69FFFFFF70
1FFF67EEFFFF90
1FFFC20004FF90
1FFFFFFFF1DF90
1FFFFFFFF1DF90
1FFFE78870EF90
1FFFD7667BFF90
0FFFFFFFFFFF90
0CFFFFFFFFFF50
03FFFFFFFFFB00
002AEFFFFD7000
ENDCHAR
STARTCHAR t
ENCODING 116
SWIDTH 578 0
DWIDTH 12 0
BBX 13 14 -1 0
BITMAP
00015666530000
007EB88888B300
07FFB76177EE20
0EFFFFC2FFFF70
1FFFFFC2FFFF90
1FFFFFC2FFFF90
1FFFFFC2FFFF90
1FFFFFC2FFFF90
1FFFFFC2FFFF90
1FFFFFD8FFFF90
0FFFFFFFFFFF90
0CFFFFFFFFFF50
03FFFFFFFFFB00
002AEFFFFD7000
ENDCHAR
STARTCHAR u
ENCODING 117
SWIDTH 578 0
DWIDTH 12 0
BBX 13 14 -1 0
BITMAP
00015666530000
007E8EFFF9A300
07FF2DFFF3CE20
0EFF2DFFF3CF70
1FFF2DFFF3CF90
1FFF2DFFF3CF90
1FFF2DFFF3CF90
1FFF2DFFF3CF90
1FFF368881DF90
1FFFD7667AFF90
0FFFFFFFFFFF90
0CFFFFFFFFFF50
03FFFFFFFFFB00
002AEFFFFD7000
ENDCHAR
STARTCHAR v
ENCODING 118
SWIDTH 578 0
DWIDTH 12 0
BBX 13 14 -1 0
BITMAP
00015666530000
007E9DFFF9B300
07FF39FFE0EE20
0EFF75FFA3FF70
1FFFC1FF67FF90
1FFFF1DF2BFF90
1FFFF59D0EFF90
1FFFF95A4FFF90
1FFFFD148FFF90
1FFFFFA7FFFF90
0FFFFFFFFFFF90
0CFFFFFFFFFF50
03FFFFFFFFFB00
002AEFFFFD7000
ENDCHAR
STARTCHAR w
ENCODING 119
SWIDTH 578 0
DWIDTH 12 0
BBX 13 14 -1 0
BITMAP
00015666530000
007ADFEEFD7300
07F3AF75FB2E20
0EF58F43F94F70
1FF77F11F86F90
1FF85E13D77F90
1FFA4B45A59F90
1FFC396774BF90
1FFD148A31CF90
1FFFA7EF89FF90
0FFFFFFFFFFF90
0CFFFFFFFFFF50
03FFFFFFFFFB00
002AEFFFFD7000
ENDCHAR
STARTCHAR x
ENCODING 120
SWIDTH 578 0
DWIDTH 12 0
BBX 13 14 -1 0
BITMAP
00015666530000
007EBDFFFBB300
07FF84FFC1EE20
0EFFF3AF39FF70
1FFFFC283FFF90
1FFFFF40BFFF90
1FFFFD154FFF90
1FFFF48E2AFF90
1FFF93FFB2EF90
1FFFBCFFF9DF90
0FFFFFFFFFFF90
0CFFFFFFFFFF50
03FFFFFFFFFB00
002AEFFFFD7000
ENDCHAR
STARTCHAR y
ENCODING 121
SWIDTH 578 0
DWIDTH 12 0
BBX 13 14 -1 0
BITMAP
00015666530000
007EABFFE8B300
07FFA2FF93FE20
0EFFF2BF3AFF70
1FFFF85C1FFF90
1FFFFE147FFF90
1FFFFF60EFFF90
1FFFFFA4FFFF90
1FFFFFB4FFFF90
1FFFFFC9FFFF90
0FFFFFFFFFFF90
0CFFFFFFFFFF50
03FFFFFFFFFB00
002AEFFFFD7000
ENDCHAR
STARTCHAR z
ENCODING 122
SWIDTH 578 0
DWIDTH 12 0
BBX 13 14 -1 0
BITMAP
00015666530000
007EE8888EC300
07FFE7770BFE20
0EFFFFF93FFF70
1FFFFFE1CFFF90
1FFFFF75FFFF90
1FFFFD1DFFFF90
1FFFF67FFFFF90
1FFFD0788BFF90
1FFFE66669FF90
0FFFFFFFFFFF90
0CFFFFFFFFFF50
03FFFFFFFFFB00
002AEFFFFD7000
ENDCHAR
STARTCHAR braceleft
ENCODING 123
SWIDTH 484 0
DWIDTH 10 0
BBX 11 14 -1 0
BITMAP
000156540000
007EE64AE500
07FF93ADFF30
0EFF87FFFF90
1FFF87FFFFB0
1FB629FFFFB0
1FC838FFFFB0
1FFF87FFFFB0
1FFF87FFFFB0
1FFF928CFFB0
0FFFF86BFFB0
0CFFFFFFFF70
03FFFFFFFD10
002AEFFD8100
ENDCHAR
STARTCHAR bar
ENCODING 124
SWIDTH 484 0
DWIDTH 10 0
BBX 11 14 -1 0
BITMAP
000152440000
007EF7BFE500
07FFF7BFFF30
0EFFF7BFFF90
1FFFF7BFFFB0
1FFFF7BFFFB0
1FFFF7BFFFB0
1FFFF7BFFFB0
1FFFF7BFFFB0
1FFFF7BFFFB0
0FFFFCEFFFB0
0CFFFFFFFF70
03FFFFFFFD10
002AEFFD8100
ENDCHAR
STARTCHAR braceright
ENCODING 125
SWIDTH 484 0
DWIDTH 10 0
BBX 11 14 -1 0
BITMAP
000156540000
007E759FE500
07FFBA1EFF30
0EFFFF2DFF90
1FFFFF2CFFB0
1FFFFF446EB0
1FFFFF368EB0
1FFFFF2CFFB0
1FFFFF2CFFB0
1FFFA80EFFB0
0FFF87AFFFB0
0CFFFFFFFF70
03FFFFFFFD10
002AEFFD8100
ENDCHAR
STARTCHAR asciitilde
ENCODING 126
SWIDTH 578 0
DWIDTH 12 0
BBX 13 14 -1 0
BITMAP
00015666530000
007EFFFFFFC300
07FFFFFFFFFE20
0EFFEDFFEBFF70
1FFF331465FF90
1FFF7EEA7DFF90
1FFFFFFFFFFF90
1FFFFFFFFFFF90
1FFFFFFFFFFF90
1FFFFFFFFFFF90
0FFFFFFFFFFF90
0CFFFFFFFFFF50
03FFFFFFFFFB00
002AEFFFFD7000
ENDCHAR
STARTCHAR uni00A0
ENCODING 160
SWIDTH 151 0
DWIDTH 3 0
BBX 1 1 0 0
BITMAP
00
ENDCHAR
STARTCHAR exclamdown
ENCODING 161
SWIDTH 424 0
DWIDTH 8 0
BBX 10 14 -1 0
BITMAP
0001553000
007EE9FC30
07FFD8FFE1
0EFFF7FFF6
1FFFF3FFF8
1FFFF3FFF8
1FFFF3FFF8
1FFFF3FFF8
1FFFF3FFF8
1FFFF7FFF8
0FFFFFFFF8
0CFFFFFFF4
03FFFFFFA0
002AEFC600
ENDCHAR
STARTCHAR cent
ENCODING 162
SWIDTH 578 0
DWIDTH 12 0
BBX 13 14 -1 0
BITMAP
00015666530000
007EFFA9FFC300
07FFF9548FFE20
0EFFA2546FFF70
1FFF86A8FFFF90
1FFF86A8FFFF90
1FFF86A8FFFF90
1FFF86A8FFFF90
1FFFC1212FFF90
1FFFFE86DFFF90
0FFFFFCBFFFF90
0CFFFFFFFFFF50
03FFFFFFFFFB00
002AEFFFFD7000
ENDCHAR
STARTCHAR sterling
ENCODING 163
SWIDTH 578 0
DWIDTH 12 0
BBX 13 14 -1 0
BITMAP
00015666530000
007EFE98BFC300
07FFF4571CFE20
0EFFF3CF5CFF70
1FFFF3CFFFFF90
1FFFA1458FFF90
1FFFE3BEEFFF90
1FFFF3CFFFFF90
1FFFF3688EFF90
1FFFF8666DFF90
0FFFFFFFFFFF90
0CFFFFFFFFFF50
03FFFFFFFFFB00
002AEFFFFD7000
ENDCHAR
STARTCHAR currency
ENCODING 164
SWIDTH 578 0
DWIDTH 12 0
BBX 13 14 -1 0
BITMAP
00015666530000
007EDFFFFCC300
07FF733343EE20
0EFFC4DE88FF70
1FFFC5FF97FF90
1FFFC5FF97FF90
1FFFC28948FF90
1FFF678882FF90
1FFFEFFFFEFF90
1FFFFFFFFFFF90
0FFFFFFFFFFF90
0CFFFFFFFFFF50
03FFFFFFFFFB00
002AEFFFFD7000
ENDCHAR
STARTCHAR yen
ENCODING 165
SWIDTH 578 0
DWIDTH 12 0
BBX 13 14 -1 0
BITMAP
00015666530000
007E8DFFC9C300
07FF57FF48FE20
0EFFB1FD1EFF70
1FFFF3A76FFF90
1FFFF941CFFF90
1FFFE6018FFF90
1FFFE4126FFF90
1FFFFA36AFFF90
1FFFFFACFFFF90
0FFFFFFFFFFF90
0CFFFFFFFFFF50
03FFFFFFFFFB00
002AEFFFFD7000
ENDCHAR
STARTCHAR brokenbar
ENCODING 166
SWIDTH 484 0
DWIDTH 10 0
BBX 11 14 -1 0
BITMAP
000156540000
007EFACFE500
07FFF59FFF30
0EFFF59FFF90
1FFFF7AFFFB0
1FFFFFFFFFB0
1FFFF59FFFB0
1FFFF59FFFB0
1FFFF59FFFB0
1FFFF9BFFFB0
0FFFFFFFFFB0
0CFFFFFFFF70
03FFFFFFFD10
002AEFFD8100
ENDCHAR
STARTCHAR section
ENCODING 167
SWIDTH 578 0
DWIDTH 12 0
BBX 13 14 -1 0
BITMAP
00015666530000
007EFB999CC300
07FF94888AFE20
0EFF8AFFFFFF70
1FFFC244BFFF90
1FFFF4DC3FFF90
1FFFF49A4FFF90
1FFFFD773AFF90
1FFFFFFFA8FF90
1FFFBAAA59FF90
0FFFB7779FFF90
0CFFFFFFFFFF50
03FFFFFFFFFB00
002AEFFFFD7000
ENDCHAR
STARTCHAR dieresis
ENCODING 168
SWIDTH 388 0
DWIDTH 8 0
BBX 8 6 0 0
BITMAP
028BA710
5FFFFFE2
EFBEDCFA
FD0C74FB
BFFFFFF7
18999970
ENDCHAR
STARTCHAR copyright
ENCODING 169
SWIDTH 578 0
DWIDTH 12 0
BBX 13 14 -1 0
BITMAP
00015666530000
007EFB88BFC300
07FE48DD84DE20
0EF5D8446D4F70
1FA8F4FFFF9A90
1F7DF4FFFFE690
1F6DF4FFFFE690
1FAAF4FFFFA990
1FF4E8446E4E90
1FFD4AFFB4CF90
0FFFF9558EFF90
0CFFFFFFFFFF50
03FFFFFFFFFB00
002AEFFFFD7000
ENDCHAR
STARTCHAR ordfeminine
ENCODING 170
SWIDTH 578 0
DWIDTH 12 0
BBX 13 14 -1 0
BITMAP
00015666530000
007EFA889FC300
07FFF97738FE20
0EFFFFFF86FF70
1FFFFA7756FF90
1FFFB27746FF90
1FFF95FF87FF90
1FFFD1220AFF90
1FFFFEDCEFFF90
1FFFFFFFFFFF90
0FFFFFFFFFFF90
0CFFFFFFFFFF50
03FFFFFFFFFB00
002AEFFFFD7000
ENDCHAR
STARTCHAR guillemotleft
ENCODING 171
SWIDTH 578 0
DWIDTH 12 0
BBX 13 14 -1 0
BITMAP
00015666530000
007EFFFFFFC300
07FFFFBFCEFE20
0EFFFB8E4EFF70
1FFFE5F5DFFF90
1FFF5D8AFFFF90
1FFE4F4DFFFF90
1FFFB7D5FFFF90
1FFFF7CB7FFF90
1FFFFE6F7DFF90
0FFFFFFFFFFF90
0CFFFFFFFFFF50
03FFFFFFFFFB00
002AEFFFFD7000
ENDCHAR
STARTCHAR uni00AD
ENCODING 173
SWIDTH 428 0
DWIDTH 9 0
BBX 10 14 -1 0
BITMAP
0001553000
007EFFFC30
07FFFFFFE2
0EFFFFFFF7
1FF7000DF9
1FFFFFFFF9
1FFFFFFFF9
1FFFFFFFF9
1FFFFFFFF9
1FFFFFFFF9
0FFFFFFFF9
0CFFFFFFF5
03FFFFFFB0
002AEFD700
ENDCHAR
STARTCHAR registered
ENCODING 174
SWIDTH 578 0
DWIDTH 12 0
BBX 13 14 -1 0
BITMAP
00015666530000
007EFB88BFC300
07FE48DD84DE20
0EF5D5446D4F70
1FA8F4FF4F9A90
1F7DF4CC5FE690
1F6DF4776FE690
1FAAF4FF5EA990
1FF4E6FF7D4E90
1FFD4AFFB4CF90
0FFFF9558EFF90
0CFFFFFFFFFF50
03FFFFFFFFFB00
002AEFFFFD7000
ENDCHAR
STARTCHAR macron
ENCODING 175
SWIDTH 428 0
DWIDTH 9 0
BBX 9 6 0 0
BITMAP
028BCA6000
4FFFFFFC10
DFEEEEFF70
FF5111FF90
BFFFFFFF50
2DFFFFF800
ENDCHAR
STARTCHAR degree
ENCODING 176
SWIDTH 428 0
DWIDTH 9 0
BBX 10 14 -1 0
BITMAP
0001553000
007EBADC30
07FA372FE2
0EF89F3EF7
1FFC225FF9
1FFFFFFFF9
1FFFFFFFF9
1FFFFFFFF9
1FFFFFFFF9
1FFFFFFFF9
0FFFFFFFF9
0CFFFFFFF5
03FFFFFFB0
002AEFD700
ENDCHAR
STARTCHAR plusminus
ENCODING 177
SWIDTH 428 0
DWIDTH 9 0
BBX 10 14 -1 0
BITMAP
0001553000
007EE8FC30
07FFD2FFE2
0EE65168F7
1FF8718AF9
1FFFD2FFF9
1FFFEBFFF9
1FF7222DF9
1FFECCCFF9
1FFFFFFFF9
0FFFFFFFF9
0CFFFFFFF5
03FFFFFFB0
002AEFD700
ENDCHAR
STARTCHAR uni00B2
ENCODING 178
SWIDTH 578 0
DWIDTH 12 0
BBX 13 14 -1 0
BITMAP
00015666530000
007EFC88CFC300
07FFE1761FFE20
0EFFFCB80FFF70
1FFFE146BFFF90
1FFFD1BBDFFF90
1FFFF5448FFF90
1FFFFFFFFFFF90
1FFFFFFFFFFF90
1FFFFFFFFFFF90
0FFFFFFFFFFF90
0CFFFFFFFFFF50
03FFFFFFFFFB00
002AEFFFFD7000
ENDCHAR
STARTCHAR uni00B3
ENCODING 179
SWIDTH 578 0
DWIDTH 12 0
BBX 13 14 -1 0
BITMAP
00015666530000
007EFD889EC300
07FFF26746FE20
0EFFFFD956FF70
1FFFFFC847FF90
1FFFF39B66FF90
1FFFFA445DFF90
1FFFFFFFFFFF90
1FFFFFFFFFFF90
1FFFFFFFFFFF90
0FFFFFFFFFFF90
0CFFFFFFFFFF50
03FFFFFFFFFB00
002AEFFFFD7000
ENDCHAR
STARTCHAR acute
ENCODING 180
SWIDTH 308 0
DWIDTH 6 0
BBX 7 7 0 0
BITMAP
049A8200
1EFFFD00
6FB3FF20
AF69FC00
EF3FF300
EFDF9000
5CCB1000
ENDCHAR
STARTCHAR uni00B5
ENCODING 181
SWIDTH 578 0
DWIDTH 12 0
BBX 13 14 -1 0
BITMAP
00015666530000
007D9FFFF8C300
07FD2FFFE0FE20
0EFD2FFFE0FF70
1FFD2FFFE0FF90
1FFD2FFFE0FF90
1FFD2FFFE0FF90
1FFD2FFFE0FF90
1FFD078862FF90
1FFD17777CFF90
0FFD4FFFFFFF90
0CFFFFFFFFFF50
03FFFFFFFFFB00
002AEFFFFD7000
ENDCHAR
STARTCHAR paragraph
ENCODING 182
SWIDTH 578 0
DWIDTH 12 0
BBX 13 14 -1 0
BITMAP
00015666530000
007EEBAAADC300
07FF400279FE20
0EFF2003C9FF70
1FFF2003C9FF90
1FFF9333C9FF90
1FFFFFF6C9FF90
1FFFFFF6C9FF90
1FFFFFF6C9FF90
1FFFFFFCEDFF90
0FFFFFFFFFFF90
0CFFFFFFFFFF50
03FFFFFFFFFB00
002AEFFFFD7000
ENDCHAR
STARTCHAR periodcentered
ENCODING 183
SWIDTH 428 0
DWIDTH 9 0
BBX 10 14 -1 0
BITMAP
0001553000
007EFFFC30
07FFFFFFE2
0EFFFFFFF7
1FFFA1FFF9
1FFFECFFF9
1FFFFFFFF9
1FFFFFFFF9
1FFFFFFFF9
1FFFFFFFF9
0FFFFFFFF9
0CFFFFFFF5
03FFFFFFB0
002AEFD700
ENDCHAR
STARTCHAR cedilla
ENCODING 184
SWIDTH 101 0
DWIDTH 2 0
BBX 3 4 0 -3
BITMAP
0100
7D00
E200
BD10
ENDCHAR
STARTCHAR uni00B9
ENCODING 185
SWIDTH 578 0
DWIDTH 12 0
BBX 13 14 -1 0
BITMAP
00015666530000
007EFE9BFFC300
07FFF536FFFE20
0EFFFF86FFFF70
1FFFFF86FFFF90
1FFFFF86FFFF90
1FFFFFA8FFFF90
1FFFFFFFFFFF90
1FFFFFFFFFFF90
1FFFFFFFFFFF90
0FFFFFFFFFFF90
0CFFFFFFFFFF50
03FFFFFFFFFB00
002AEFFFFD7000
ENDCHAR
STARTCHAR ordmasculine
ENCODING 186
SWIDTH 578 0
DWIDTH 12 0
BBX 13 14 -1 0
BITMAP
00015666530000
007EFA888CC300
07FFA27761FE20
0EFF86FFF0EF70
1FFF86FFF0EF90
1FFF86FFF0EF90
1FFF96FFF0EF90
1FFFC12213FF90
1FFFFEDCDFFF90
1FFFFFFFFFFF90
0FFFFFFFFFFF90
0CFFFFFFFFFF50
03FFFFFFFFFB00
002AEFFFFD7000
ENDCHAR
STARTCHAR guillemotright
ENCODING 187
SWIDTH 578 0
DWIDTH 12 0
BBX 13 14 -1 0
BITMAP
00015666530000
007EFFFFFFC300
07FFBFDCFFFE20
0EFFA7E4FFFF70
1FFFF7BB7FFF90
1FFFFF5D7BFF90
1FFFFF8AB7FF90
1FFFFC6E4FFF90
1FFFE5F6CFFF90
1FFF7DC8FFFF90
0FFFFFFFFFFF90
0CFFFFFFFFFF50
03FFFFFFFFFB00
002AEFFFFD7000
ENDCHAR
STARTCHAR onequarter
ENCODING 188
SWIDTH 578 0
DWIDTH 12 0
BBX 13 14 -1 0
BITMAP
00015666530000
00799FCBFFC300
07833F59FFFE20
0EFC3F2CFFFF70
1FFC3D1EFFEF90
1FFC3A54BB4F90
1FFC6684BB4F90
1FFFF2C4AB4F90
1FFFE1F9100190
1FFFD8FFFB4F90
0FFFFFFFFD9F90
0CFFFFFFFFFF50
03FFFFFFFFFB00
002AEFFFFD7000
ENDCHAR
STARTCHAR onehalf
ENCODING 189
SWIDTH 578 0
DWIDTH 12 0
BBX 13 14 -1 0
BITMAP
00015666530000
00799FCBFFC300
07833F59FFFE20
0EFC3F2CFFFF70
1FFC3D1D656E90
1FFC3A566A4890
1FFC668E962990
1FFFF2C648BF90
1FFFE1F5588E90
1FFFD8FC777E90
0FFFFFFFFFFF90
0CFFFFFFFFFF50
03FFFFFFFFFB00
002AEFFFFD7000
ENDCHAR
STARTCHAR threequarters
ENCODING 190
SWIDTH 578 0
DWIDTH 12 0
BBX 13 14 -1 0
BITMAP
00015666530000
00799FCBFFC300
07833F59FFFE20
0EFC3F2CFFFF70
1FFC3D1C656C90
1FFC3A56797390
1FFC668FD74490
1FFFF2CFEA8390
1FFFE1F4586390
1FFFD8FD767D90
0FFFFFFFFFFF90
0CFFFFFFFFFF50
03FFFFFFFFFB00
002AEFFFFD7000
ENDCHAR
STARTCHAR questiondown
ENCODING 191
SWIDTH 578 0
DWIDTH 12 0
BBX 13 14 -1 0
BITMAP
00015666530000
007EFFF7FFC300
07FFFFF8FFFE20
0EFFFFF3FFFF70
1FFFFC92FFFF90
1FFFB37AFFFF90
1FFF98FFFFFF90
1FFF98FFFBFF90
1FFFC37764FF90
1FFFFCAABEFF90
0FFFFFFFFFFF90
0CFFFFFFFFFF50
03FFFFFFFFFB00
002AEFFFFD7000
ENDCHAR
STARTCHAR Agrave
ENCODING 192
SWIDTH 578 0
DWIDTH 12 0
BBX 13 19 -1 0
BITMAP
00018AA4000000
000DFFFF200000
001FF3AF600000
000BFA6FB00000
0003FF3FF00000
0001DFFFF40000
007EFFFFFFC300
07FFB26737FE20
0EFF86FF95FF70
1FFF78FFA4FF90
1FFF56AA82FF90
1FFF346660FF90
1FFF2CFFF0EF90
1FFF0DFFF1CF90
1FFE6EFFF8DF90
0FFFFFFFFFFF90
0CFFFFFFFFFF50
03FFFFFFFFFB00
002AEFFFFD7000
ENDCHAR
STARTCHAR Aacute
ENCODING 193
SWIDTH 578 0
DWIDTH 12 0
BBX 13 19 -1 0
BITMAP
0000007AA60000
000006FFFF8000
00000BF58FB000
00001FF2EF6000
00005FB7FC0000
0001AFFFF70000
007EFFFFFFC300
07FFB26737FE20
0EFF86FF95FF70
1FFF78FFA4FF90
1FFF56AA82FF90
1FFF346660FF90
1FFF2CFFF0EF90
1FFF0DFFF1CF90
1FFE6EFFF8DF90
0FFFFFFFFFFF90
0CFFFFFFFFFF50
03FFFFFFFFFB00
002AEFFFFD7000
ENDCHAR
STARTCHAR Acircumflex
ENCODING 194
SWIDTH 578 0
DWIDTH 12 0
BBX 13 20 -1 0
BITMAP
00000011000000
000009FFB00000
00004FEDF60000
0000BF66FC0000
0002FE67DF3000
0007F8AC7F8000
0009FFFFFF9000
007FFFFFFFE300
07FFB26737FE20
0EFF86FF95FF70
1FFF78FFA4FF90
1FFF56AA82FF90
1FFF346660FF90
1FFF2CFFF0EF90
1FFF0DFFF1CF90
1FFE6EFFF8DF90
0FFFFFFFFFFF90
0CFFFFFFFFFF50
03FFFFFFFFFB00
002AEFFFFD7000
ENDCHAR
STARTCHAR Atilde
ENCODING 195
SWIDTH 578 0
DWIDTH 12 0
BBX 13 20 -1 0
BITMAP
00000366300000
0001AFFFFB2000
000AFFFFFFD000
002FFFFFFFF400
003FF67D4EF600
001ED5A44FF200
0007FFFFFF9000
007EFA889FC300
07FFB26737FE20
0EFF86FF95FF70
1FFF78FFA4FF90
1FFF56AA82FF90
1FFF346660FF90
1FFF2CFFF0EF90
1FFF0DFFF1CF90
1FFE6EFFF8DF90
0FFFFFFFFFFF90
0CFFFFFFFFFF50
03FFFFFFFFFB00
002AEFFFFD7000
ENDCHAR
STARTCHAR Adieresis
ENCODING 196
SWIDTH 578 0
DWIDTH 12 0
BBX 13 18 -1 0
BITMAP
000017AB820000
0002EFFFFF4000
000BFBDEBFD000
000CF29A1FE000
0009FFFFFFA000
007FFFFFFFD300
07FFB26737FE20
0EFF86FF95FF70
1FFF78FFA4FF90
1FFF56AA82FF90
1FFF346660FF90
1FFF2CFFF0EF90
1FFF0DFFF1CF90
1FFE6EFFF8DF90
0FFFFFFFFFFF90
0CFFFFFFFFFF50
03FFFFFFFFFB00
002AEFFFFD7000
ENDCHAR
STARTCHAR Aring
ENCODING 197
SWIDTH 578 0
DWIDTH 12 0
BBX 13 20 -1 0
BITMAP
00000033000000
00004DFFD40000
0002FE99EE2000
0009F6886F9000
000BF5CB6FA000
0009FC55CF8000
0004FFFFFF2000
007EFA889FC300
07FFB26737FE20
0EFF86FF95FF70
1FFF78FFA4FF90
1FFF56AA82FF90
1FFF346660FF90
1FFF2CFFF0EF90
1FFF0DFFF1CF90
1FFE6EFFF8DF90
0FFFFFFFFFFF90
0CFFFFFFFFFF50
03FFFFFFFFFB00
002AEFFFFD7000
ENDCHAR
STARTCHAR AE
ENCODING 198
SWIDTH 578 0
DWIDTH 12 0
BBX 13 14 -1 0
BITMAP
00015666530000
007ED97777A300
07FF354277DE20
0EFF1D95FFFF70
1FFF0F95FFFF90
1FFD1F9000CF90
1FFB3F95FFFF90
1FFA1325FFFF90
1FF85C7388DF90
1FFBBFC777DF90
0FFFFFFFFFFF90
0CFFFFFFFFFF50
03FFFFFFFFFB00
002AEFFFFD7000
ENDCHAR
STARTCHAR Ccedilla
ENCODING 199
SWIDTH 578 0
DWIDTH 12 0
BBX 13 14 -1 0
BITMAP
00015666530000
007ED8888EC300
07FF26776DFE20
0EFF0EFFFFFF70
1FFF0EFFFFFF90
1FFF0EFFFFFF90
1FFF0EFFFFFF90
1FFF0EFFFFFF90
1FFF26887EFF90
1FFFC7437DFF90
0FFFF92AFFFF90
0CFFF77EFFFF50
03FFFD6AFFFB00
002AEFFFFD7000
ENDCHAR
STARTCHAR Egrave
ENCODING 200
SWIDTH 578 0
DWIDTH 12 0
BBX 13 19 -1 0
BITMAP
00017AA5000000
000AFFFF400000
000EF67F900000
0008FD3FE00000
0001EF5DF30000
0001AFFFF60000
007EFFFFFAC300
07FFE07779FE20
0EFFE1FFFFFF70
1FFFE1FFFFFF90
1FFFE0000CFF90
1FFFE1EEEFFF90
1FFFE1FFFFFF90
1FFFE08889FF90
1FFFE66668FF90
0FFFFFFFFFFF90
0CFFFFFFFFFF50
03FFFFFFFFFB00
002AEFFFFD7000
ENDCHAR
STARTCHAR Eacute
ENCODING 201
SWIDTH 578 0
DWIDTH 12 0
BBX 13 19 -1 0
BITMAP
0000005AA71000
000003FFFFB000
000008F85FE000
00000DF4CF9000
00002FE4FE1000
00017FFFFA0000
007EEEFFFAC300
07FFE07779FE20
0EFFE1FFFFFF70
1FFFE1FFFFFF90
1FFFE0000CFF90
1FFFE1EEEFFF90
1FFFE1FFFFFF90
1FFFE08889FF90
1FFFE66668FF90
0FFFFFFFFFFF90
0CFFFFFFFFFF50
03FFFFFFFFFB00
002AEFFFFD7000
ENDCHAR
STARTCHAR Ecircumflex
ENCODING 202
SWIDTH 578 0
DWIDTH 12 0
BBX 13 20 -1 0
BITMAP
00000012000000
000006FFC10000
00002FEDF90000
00008F84FE1000
0000EF5AAF6000
0004FB8E4FB000
0006FFFFFFB000
007FFFFFFFF300
07FFE07779FE20
0EFFE1FFFFFF70
1FFFE1FFFFFF90
1FFFE0000CFF90
1FFFE1EEEFFF90
1FFFE1FFFFFF90
1FFFE08889FF90
1FFFE66668FF90
0FFFFFFFFFFF90
0CFFFFFFFFFF50
03FFFFFFFFFB00
002AEFFFFD7000
ENDCHAR
STARTCHAR Edieresis
ENCODING 203
SWIDTH 578 0
DWIDTH 12 0
BBX 13 18 -1 0
BITMAP
000016AB930000
0001DFFFFF7000
0008FCDEBFF100
0009F56D0DF200
0006FFFFFFD000
007EFFFFFFE300
07FFE07779FE20
0EFFE1FFFFFF70
1FFFE1FFFFFF90
1FFFE0000CFF90
1FFFE1EEEFFF90
1FFFE1FFFFFF90
1FFFE08889FF90
1FFFE66668FF90
0FFFFFFFFFFF90
0CFFFFFFFFFF50
03FFFFFFFFFB00
002AEFFFFD7000
ENDCHAR
STARTCHAR Igrave
ENCODING 204
SWIDTH 578 0
DWIDTH 12 0
BBX 13 19 -1 0
BITMAP
00006AA6000000
0009FFFF500000
000DF76FA00000
0007FE2FE00000
0001DF6CF40000
00019FFFF70000
007EBFFFF8B300
07FFB76177EE20
0EFFFFC2FFFF70
1FFFFFC2FFFF90
1FFFFFC2FFFF90
1FFFFFC2FFFF90
1FFFFFC2FFFF90
1FFFC87188EF90
1FFFB66666EF90
0FFFFFFFFFFF90
0CFFFFFFFFFF50
03FFFFFFFFFB00
002AEFFFFD7000
ENDCHAR
STARTCHAR Iacute
ENCODING 205
SWIDTH 578 0
DWIDTH 12 0
BBX 13 19 -1 0
BITMAP
0000004AA71000
000002FFFFC000
000007F94FF100
00000CF5BFA000
00001FF4FF2000
00016FFFFB0000
007EBDFFF8B300
07FFB76177EE20
0EFFFFC2FFFF70
1FFFFFC2FFFF90
1FFFFFC2FFFF90
1FFFFFC2FFFF90
1FFFFFC2FFFF90
1FFFC87188EF90
1FFFB66666EF90
0FFFFFFFFFFF90
0CFFFFFFFFFF50
03FFFFFFFFFB00
002AEFFFFD7000
ENDCHAR
STARTCHAR Icircumflex
ENCODING 206
SWIDTH 578 0
DWIDTH 12 0
BBX 13 20 -1 0
BITMAP
00000012000000
000005FFD20000
00001EFCFA0000
00007F93EF2000
0000DF5B9F8000
0002FC6F4FC000
0004FFFFFFD000
007FFFFFFFF300
07FFB76177EE20
0EFFFFC2FFFF70
1FFFFFC2FFFF90
1FFFFFC2FFFF90
1FFFFFC2FFFF90
1FFFFFC2FFFF90
1FFFC87188EF90
1FFFB66666EF90
0FFFFFFFFFFF90
0CFFFFFFFFFF50
03FFFFFFFFFB00
002AEFFFFD7000
ENDCHAR
STARTCHAR Idieresis
ENCODING 207
SWIDTH 578 0
DWIDTH 12 0
BBX 13 18 -1 0
BITMAP
000006AB940000
0000CFFFFF8000
0007FCCFBEF200
0008F65E0CF400
0005FFFFFFE000
007EFFFFFFE300
07FFB76177EE20
0EFFFFC2FFFF70
1FFFFFC2FFFF90
1FFFFFC2FFFF90
1FFFFFC2FFFF90
1FFFFFC2FFFF90
1FFFC87188EF90
1FFFB66666EF90
0FFFFFFFFFFF90
0CFFFFFFFFFF50
03FFFFFFFFFB00
002AEFFFFD7000
ENDCHAR
STARTCHAR Eth
ENCODING 208
SWIDTH 578 0
DWIDTH 12 0
BBX 13 14 -1 0
BITMAP
00015666530000
007E98888BC300
07FF357771CE20
0EFF3CFFF4AF70
1FFF3CFFF4AF90
1FFA14FFF4AF90
1FFF3CFFF4AF90
1FFF3CFFF4AF90
1FFF368881CF90
1FFF866679FF90
0FFFFFFFFFFF90
0CFFFFFFFFFF50
03FFFFFFFFFB00
002AEFFFFD7000
ENDCHAR
STARTCHAR Ntilde
ENCODING 209
SWIDTH 578 0
DWIDTH 12 0
BBX 13 20 -1 0
BITMAP
00000466300000
0002CFFFFA1000
001DFFFFFFA000
005FFFFFFFF200
006FD68C5FF300
003FA7947FE000
000AFFFFFF6000
007EB8888CC300
07FF257771FE20
0EFF2CFFF1DF70
1FFF2CFFF1DF90
1FFF2CFFF1DF90
1FFF2CFFF1DF90
1FFF2CFFF1DF90
1FFF2CFFF1DF90
1FFF8DFFF7EF90
0FFFFFFFFFFF90
0CFFFFFFFFFF50
03FFFFFFFFFB00
002AEFFFFD7000
ENDCHAR
STARTCHAR Ograve
ENCODING 210
SWIDTH 578 0
DWIDTH 12 0
BBX 13 19 -1 0
BITMAP
00017AA5000000
000BFFFF300000
000FF58F800000
0009FC4FD00000
0001EF4EF20000
0001BFFFF50000
007EEFFFEBC300
07FF457771CE20
0EFF3CFFF4BF70
1FFF3CFFF4BF90
1FFF3CFFF4BF90
1FFF3CFFF4BF90
1FFF3CFFF4BF90
1FFF458881CF90
1FFFD76679FF90
0FFFFFFFFFFF90
0CFFFFFFFFFF50
03FFFFFFFFFB00
002AEFFFFD7000
ENDCHAR
STARTCHAR Oacute
ENCODING 211
SWIDTH 578 0
DWIDTH 12 0
BBX 13 19 -1 0
BITMAP
0000005AA71000
000004FFFFA000
000009F76FE000
00000EF3DF8000
00003FD5FE1000
00017FFFF90000
007EEFFFFBC300
07FF457771CE20
0EFF3CFFF4BF70
1FFF3CFFF4BF90
1FFF3CFFF4BF90
1FFF3CFFF4BF90
1FFF3CFFF4BF90
1FFF458881CF90
1FFFD76679FF90
0FFFFFFFFFFF90
0CFFFFFFFFFF50
03FFFFFFFFFB00
002AEFFFFD7000
ENDCHAR
STARTCHAR Ocircumflex
ENCODING 212
SWIDTH 578 0
DWIDTH 12 0
BBX 13 20 -1 0
BITMAP
00000012000000
000007FFC10000
00002FEDF80000
00009F74FE1000
0001EF59BF5000
0005FA8E5FA000
0007FFFFFFB000
007FFFFFFFF300
07FF457771CE20
0EFF3CFFF4BF70
1FFF3CFFF4BF90
1FFF3CFFF4BF90
1FFF3CFFF4BF90
1FFF3CFFF4BF90
1FFF458881CF90
1FFFD76679FF90
0FFFFFFFFFFF90
0CFFFFFFFFFF50
03FFFFFFFFFB00
002AEFFFFD7000
ENDCHAR
STARTCHAR Otilde
ENCODING 213
SWIDTH 578 0
DWIDTH 12 0
BBX 13 20 -1 0
BITMAP
00000266400000
00009FFFFC3000
0008FFFFFFE100
000FFFFFFFF600
001FF77C6CF800
000DE4B53EF400
0006FFFFFFB000
007EE8888BC300
07FF457771CE20
0EFF3CFFF4BF70
1FFF3CFFF4BF90
1FFF3CFFF4BF90
1FFF3CFFF4BF90
1FFF3CFFF4BF90
1FFF458881CF90
1FFFD76679FF90
0FFFFFFFFFFF90
0CFFFFFFFFFF50
03FFFFFFFFFB00
002AEFFFFD7000
ENDCHAR
STARTCHAR Odieresis
ENCODING 214
SWIDTH 578 0
DWIDTH 12 0
BBX 13 18 -1 0
BITMAP
000017AB930000
0001DFFFFF6000
0009FCDEBFF100
000AF47C0EF100
0007FFFFFFC000
007FFFFFFFE300
07FF457771CE20
0EFF3CFFF4BF70
1FFF3CFFF4BF90
1FFF3CFFF4BF90
1FFF3CFFF4BF90
1FFF3CFFF4BF90
1FFF458881CF90
1FFFD76679FF90
0FFFFFFFFFFF90
0CFFFFFFFFFF50
03FFFFFFFFFB00
002AEFFFFD7000
ENDCHAR
STARTCHAR multiply
ENCODING 215
SWIDTH 578 0
DWIDTH 12 0
BBX 13 14 -1 0
BITMAP
00015666530000
007EFFFFFFC300
07FFFFFFFFFE20
0EFFFCEFBFFF70
1FFFFA375FFF90
1FFFFF51EFFF90
1FFFF95A4FFF90
1FFFFDFFDFFF90
1FFFFFFFFFFF90
1FFFFFFFFFFF90
0FFFFFFFFFFF90
0CFFFFFFFFFF50
03FFFFFFFFFB00
002AEFFFFD7000
ENDCHAR
STARTCHAR Oslash
ENCODING 216
SWIDTH 578 0
DWIDTH 12 0
BBX 13 14 -1 0
BITMAP
00015666530000
007ED8778BC300
07FF357730EE20
0EFF1EFD22CF70
1FFF1EF4B2CF90
1FFF1E95F2CF90
1FFF1C2EF2CF90
1FFF13AFF2CF90
1FFF217771EF90
1FFFD8777BFF90
0FFFFFFFFFFF90
0CFFFFFFFFFF50
03FFFFFFFFFB00
002AEFFFFD7000
ENDCHAR
STARTCHAR Ugrave
ENCODING 217
SWIDTH 578 0
DWIDTH 12 0
BBX 13 19 -1 0
BITMAP
00017AA5000000
000AFFFF400000
000EF67F900000
0008FD3FE00000
0001EF5DF30000
0001AFFFF60000
007E9FFFF9A300
07FF2DFFF3CE20
0EFF2DFFF3CF70
1FFF2DFFF3CF90
1FFF2DFFF3CF90
1FFF2DFFF3CF90
1FFF2DFFF3CF90
1FFF368881DF90
1FFFD7667AFF90
0FFFFFFFFFFF90
0CFFFFFFFFFF50
03FFFFFFFFFB00
002AEFFFFD7000
ENDCHAR
STARTCHAR Uacute
ENCODING 218
SWIDTH 578 0
DWIDTH 12 0
BBX 13 19 -1 0
BITMAP
0000005AA71000
000003FFFFB000
000008F85FE000
00000DF4CF9000
00002FE4FE1000
00017FFFFA0000
007E8FFFF9A300
07FF2DFFF3CE20
0EFF2DFFF3CF70
1FFF2DFFF3CF90
1FFF2DFFF3CF90
1FFF2DFFF3CF90
1FFF2DFFF3CF90
1FFF368881DF90
1FFFD7667AFF90
0FFFFFFFFFFF90
0CFFFFFFFFFF50
03FFFFFFFFFB00
002AEFFFFD7000
ENDCHAR
STARTCHAR Ucircumflex
ENCODING 219
SWIDTH 578 0
DWIDTH 12 0
BBX 13 20 -1 0
BITMAP
00000012000000
000006FFC10000
00002FEDF90000
00008F84FE1000
0000EF5AAF6000
0004FB8E4FB000
0006FFFFFFB000
007FFFFFFFE300
07FF2DFFF3CE20
0EFF2DFFF3CF70
1FFF2DFFF3CF90
1FFF2DFFF3CF90
1FFF2DFFF3CF90
1FFF2DFFF3CF90
1FFF368881DF90
1FFFD7667AFF90
0FFFFFFFFFFF90
0CFFFFFFFFFF50
03FFFFFFFFFB00
002AEFFFFD7000
ENDCHAR
STARTCHAR Udieresis
ENCODING 220
SWIDTH 578 0
DWIDTH 12 0
BBX 13 18 -1 0
BITMAP
000016AB930000
0001DFFFFF7000
0008FCDEBFF100
0009F56D0DF200
0006FFFFFFD000
007EFFFFFFD300
07FF2DFFF3CE20
0EFF2DFFF3CF70
1FFF2DFFF3CF90
1FFF2DFFF3CF90
1FFF2DFFF3CF90
1FFF2DFFF3CF90
1FFF368881DF90
1FFFD7667AFF90
0FFFFFFFFFFF90
0CFFFFFFFFFF50
03FFFFFFFFFB00
002AEFFFFD7000
ENDCHAR
STARTCHAR Yacute
ENCODING 221
SWIDTH 578 0
DWIDTH 12 0
BBX 13 19 -1 0
BITMAP
0000005AA71000
000004FFFFB000
000009F86FE000
00000DF3DF9000
00002FE5FE1000
00017FFFF90000
007EAFFFF8B300
07FFA2FF93FE20
0EFFF2BF3AFF70
1FFFF85C1FFF90
1FFFFE147FFF90
1FFFFF60EFFF90
1FFFFFA4FFFF90
1FFFFFB4FFFF90
1FFFFFC9FFFF90
0FFFFFFFFFFF90
0CFFFFFFFFFF50
03FFFFFFFFFB00
002AEFFFFD7000
ENDCHAR
STARTCHAR Thorn
ENCODING 222
SWIDTH 578 0
DWIDTH 12 0
BBX 13 14 -1 0
BITMAP
00015666530000
007EB7FFFFC300
07FFA4EEEFFE20
0EFFA01104FF70
1FFFA4FFF0EF90
1FFFA4FFF0EF90
1FFFA14432FF90
1FFFA3AABEFF90
1FFFA4FFFFFF90
1FFFC9FFFFFF90
0FFFFFFFFFFF90
0CFFFFFFFFFF50
03FFFFFFFFFB00
002AEFFFFD7000
ENDCHAR
STARTCHAR germandbls
ENCODING 223
SWIDTH 578 0
DWIDTH 12 0
BBX 13 14 -1 0
BITMAP
00015666530000
007ED8888EC300
07FF457745FE20
0EFF2DFFB3FF70
1FFF2DFD77FF90
1FFF2DFA36FF90
1FFF2DFFF3CF90
1FFF2DFFF3CF90
1FFF2DB881DF90
1FFF7EA67AFF90
0FFFFFFFFFFF90
0CFFFFFFFFFF50
03FFFFFFFFFB00
002AEFFFFD7000
ENDCHAR
STARTCHAR agrave
ENCODING 224
SWIDTH 578 0
DWIDTH 12 0
BBX 13 19 -1 0
BITMAP
00017AA5000000
000BFFFF400000
000EF68F900000
0009FD3FD00000
0001EF5DF20000
0001BFFFF60000
007ECFFFFFC300
07FFB77738FE20
0EFFFFFF88FF70
1FFFFFFF88FF90
1FFFA55538FF90
1FFE09AA58FF90
1FFD1FFF88FF90
1FFE078848FF90
1FFFB7668BFF90
0FFFFFFFFFFF90
0CFFFFFFFFFF50
03FFFFFFFFFB00
002AEFFFFD7000
ENDCHAR
STARTCHAR aacute
ENCODING 225
SWIDTH 578 0
DWIDTH 12 0
BBX 13 19 -1 0
BITMAP
0000005AA71000
000003FFFFB000
000009F86FE000
00000DF3CF9000
00002FE4FE1000
00017FFFFA0000
007ECFFFFFC300
07FFB77738FE20
0EFFFFFF88FF70
1FFFFFFF88FF90
1FFFA55538FF90
1FFE09AA58FF90
1FFD1FFF88FF90
1FFE078848FF90
1FFFB7668BFF90
0FFFFFFFFFFF90
0CFFFFFFFFFF50
03FFFFFFFFFB00
002AEFFFFD7000
ENDCHAR
STARTCHAR acircumflex
ENCODING 226
SWIDTH 578 0
DWIDTH 12 0
BBX 13 20 -1 0
BITMAP
00000012000000
000007FFC10000
00002FEDF80000
00008F84FE1000
0000EF59AF6000
0004FB8E5FB000
0006FFFFFFB000
007FFFFFFFF300
07FFB77738FE20
0EFFFFFF88FF70
1FFFFFFF88FF90
1FFFA55538FF90
1FFE09AA58FF90
1FFD1FFF88FF90
1FFE078848FF90
1FFFB7668BFF90
0FFFFFFFFFFF90
0CFFFFFFFFFF50
03FFFFFFFFFB00
002AEFFFFD7000
ENDCHAR
STARTCHAR atilde
ENCODING 227
SWIDTH 578 0
DWIDTH 12 0
BBX 13 20 -1 0
BITMAP
00000256400000
00008FFFFD3000
0008FFFFFFE200
000EFFFFFFF700
000FF87C6CF800
000CF4B53EF500
0005FFFFFFB000
007EC8889FC300
07FFB77738FE20
0EFFFFFF88FF70
1FFFFFFF88FF90
1FFFA55538FF90
1FFE09AA58FF90
1FFD1FFF88FF90
1FFE078848FF90
1FFFB7668BFF90
0FFFFFFFFFFF90
0CFFFFFFFFFF50
03FFFFFFFFFB00
002AEFFFFD7000
ENDCHAR
STARTCHAR adieresis
ENCODING 228
SWIDTH 578 0
DWIDTH 12 0
BBX 13 18 -1 0
BITMAP
000017AB930000
0001DFFFFF7000
0008FCDEBFF100
0009F47C0DF200
0006FFFFFFD000
007EFFFFFFE300
07FFB77738FE20
0EFFFFFF88FF70
1FFFFFFF88FF90
1FFFA55538FF90
1FFE09AA58FF90
1FFD1FFF88FF90
1FFE078848FF90
1FFFB7668BFF90
0FFFFFFFFFFF90
0CFFFFFFFFFF50
03FFFFFFFFFB00
002AEFFFFD7000
ENDCHAR
STARTCHAR aring
ENCODING 229
SWIDTH 578 0
DWIDTH 12 0
BBX 13 20 -1 0
BITMAP
00000023000000
00003CFFE60000
0001DFA9DF4000
0006F8794FB000
0008F89D3FD000
0006FD65BFB000
0002FFFFFF5000
007EC8889FC300
07FFB77738FE20
0EFFFFFF88FF70
1FFFFFFF88FF90
1FFFA55538FF90
1FFE09AA58FF90
1FFD1FFF88FF90
1FFE078848FF90
1FFFB7668BFF90
0FFFFFFFFFFF90
0CFFFFFFFFFF50
03FFFFFFFFFB00
002AEFFFFD7000
ENDCHAR
STARTCHAR ae
ENCODING 230
SWIDTH 578 0
DWIDTH 12 0
BBX 13 14 -1 0
BITMAP
00015666530000
007ED97777A300
07FF354277DE20
0EFF1D95FFFF70
1FFF0F95FFFF90
1FFD1F9000CF90
1FFB3F95FFFF90
1FFA1325FFFF90
1FF85C7388DF90
1FFBBFC777DF90
0FFFFFFFFFFF90
0CFFFFFFFFFF50
03FFFFFFFFFB00
002AEFFFFD7000
ENDCHAR
STARTCHAR ccedilla
ENCODING 231
SWIDTH 578 0
DWIDTH 12 0
BBX 13 14 -1 0
BITMAP
00015666530000
007ED8888EC300
07FF26776DFE20
0EFF0EFFFFFF70
1FFF0EFFFFFF90
1FFF0EFFFFFF90
1FFF0EFFFFFF90
1FFF0EFFFFFF90
1FFF26887EFF90
1FFFC7447DFF90
0FFFF92BFFFF90
0CFFF68EFFFF50
03FFFD6AFFFB00
002AEFFFFD7000
ENDCHAR
STARTCHAR egrave
ENCODING 232
SWIDTH 578 0
DWIDTH 12 0
BBX 13 20 -1 0
BITMAP
00017AA5000000
000CFFFF300000
000FF58F800000
000AFC4FC00000
0002EF4EF10000
00007FDEF20000
00015FFFC30000
007EC8889FC300
07FF167738FE20
0EFE0FFF87FF70
1FFE088847FF90
1FFE07777BFF90
1FFE0FFFFFFF90
1FFE0FFFFFFF90
1FFF32332DFF90
1FFFEBBBCEFF90
0FFFFFFFFFFF90
0CFFFFFFFFFF50
03FFFFFFFFFB00
002AEFFFFD7000
ENDCHAR
STARTCHAR eacute
ENCODING 233
SWIDTH 578 0
DWIDTH 12 0
BBX 13 20 -1 0
BITMAP
0000007AA50000
000007FFFF7000
00000DF4AFA000
00002FE2FF5000
00006FA8FB0000
00006FDEF30000
00015FFFD30000
007EC8889FC300
07FF167738FE20
0EFE0FFF87FF70
1FFE088847FF90
1FFE07777BFF90
1FFE0FFFFFFF90
1FFE0FFFFFFF90
1FFF32332DFF90
1FFFEBBBCEFF90
0FFFFFFFFFFF90
0CFFFFFFFFFF50
03FFFFFFFFFB00
002AEFFFFD7000
ENDCHAR
STARTCHAR ecircumflex
ENCODING 234
SWIDTH 578 0
DWIDTH 12 0
BBX 13 20 -1 0
BITMAP
00000021000000
00001CFF700000
00008FDEF20000
0001EF47F90000
0006FA95FE0000
000AF5E8BF4000
000CFFFFFF5000
007FFFFFFFD300
07FF167738FE20
0EFE0FFF87FF70
1FFE088847FF90
1FFE07777BFF90
1FFE0FFFFFFF90
1FFE0FFFFFFF90
1FFF32332DFF90
1FFFEBBBCEFF90
0FFFFFFFFFFF90
0CFFFFFFFFFF50
03FFFFFFFFFB00
002AEFFFFD7000
ENDCHAR
STARTCHAR edieresis
ENCODING 235
SWIDTH 578 0
DWIDTH 12 0
BBX 13 18 -1 0
BITMAP
000039BA600000
0007FFFFFD1000
001FEBFCDF8000
002FB0F47F9000
000EFFFFFF4000
007FFFFFFFC300
07FF167738FE20
0EFE0FFF87FF70
1FFE088847FF90
1FFE07777BFF90
1FFE0FFFFFFF90
1FFE0FFFFFFF90
1FFF32332DFF90
1FFFEBBBCEFF90
0FFFFFFFFFFF90
0CFFFFFFFFFF50
03FFFFFFFFFB00
002AEFFFFD7000
ENDCHAR
STARTCHAR igrave
ENCODING 236
SWIDTH 578 0
DWIDTH 12 0
BBX 13 19 -1 0
BITMAP
00017AA6000000
000AFFFF400000
000DF67F900000
0008FD3FE00000
0001EF5DF30000
0001AFFFF60000
007EBFFFF8B300
07FFB76177EE20
0EFFFFC2FFFF70
1FFFFFC2FFFF90
1FFFFFC2FFFF90
1FFFFFC2FFFF90
1FFFFFC2FFFF90
1FFFC87188EF90
1FFFB66666EF90
0FFFFFFFFFFF90
0CFFFFFFFFFF50
03FFFFFFFFFB00
002AEFFFFD7000
ENDCHAR
STARTCHAR iacute
ENCODING 237
SWIDTH 578 0
DWIDTH 12 0
BBX 13 19 -1 0
BITMAP
0000005AA71000
000003FFFFB000
000008F85FF000
00000CF4CF9000
00001FE4FE2000
00016FFFFA0000
007EBEFFF8B300
07FFB76177EE20
0EFFFFC2FFFF70
1FFFFFC2FFFF90
1FFFFFC2FFFF90
1FFFFFC2FFFF90
1FFFFFC2FFFF90
1FFFC87188EF90
1FFFB66666EF90
0FFFFFFFFFFF90
0CFFFFFFFFFF50
03FFFFFFFFFB00
002AEFFFFD7000
ENDCHAR
STARTCHAR icircumflex
ENCODING 238
SWIDTH 578 0
DWIDTH 12 0
BBX 13 20 -1 0
BITMAP
00000012000000
000006FFD10000
00001FEDF90000
00008F84EF1000
0000EF5A9F7000
0003FC7E4FB000
0005FFFFFFC000
007FFFFFFFF300
07FFB76177EE20
0EFFFFC2FFFF70
1FFFFFC2FFFF90
1FFFFFC2FFFF90
1FFFFFC2FFFF90
1FFFFFC2FFFF90
1FFFC87188EF90
1FFFB66666EF90
0FFFFFFFFFFF90
0CFFFFFFFFFF50
03FFFFFFFFFB00
002AEFFFFD7000
ENDCHAR
STARTCHAR idieresis
ENCODING 239
SWIDTH 578 0
DWIDTH 12 0
BBX 13 18 -1 0
BITMAP
000006AB930000
0001CFFFFF7000
0007FCDEBEF100
0009F56D0DF300
0005FFFFFFD000
007EFFFFFFD300
07FFB76177EE20
0EFFFFC2FFFF70
1FFFFFC2FFFF90
1FFFFFC2FFFF90
1FFFFFC2FFFF90
1FFFFFC2FFFF90
1FFFC87188EF90
1FFFB66666EF90
0FFFFFFFFFFF90
0CFFFFFFFFFF50
03FFFFFFFFFB00
002AEFFFFD7000
ENDCHAR
STARTCHAR eth
ENCODING 240
SWIDTH 578 0
DWIDTH 12 0
BBX 13 14 -1 0
BITMAP
00015666530000
007E98888BC300
07FF357771CE20
0EFF3CFFF4AF70
1FFF3CFFF4AF90
1FFA14FFF4AF90
1FFF3CFFF4AF90
1FFF3CFFF4AF90
1FFF368881CF90
1FFF866679FF90
0FFFFFFFFFFF90
0CFFFFFFFFFF50
03FFFFFFFFFB00
002AEFFFFD7000
ENDCHAR
STARTCHAR ntilde
ENCODING 241
SWIDTH 578 0
DWIDTH 12 0
BBX 13 20 -1 0
BITMAP
00000466200000
0002CFFFF91000
001DFFFFFFA000
005FFFFFFFF100
007FD68C5FF200
004FA7947FE000
000BFFFFFF5000
007EB8888CC300
07FF257771FE20
0EFF2CFFF1DF70
1FFF2CFFF1DF90
1FFF2CFFF1DF90
1FFF2CFFF1DF90
1FFF2CFFF1DF90
1FFF2CFFF1DF90
1FFF8DFFF7EF90
0FFFFFFFFFFF90
0CFFFFFFFFFF50
03FFFFFFFFFB00
002AEFFFFD7000
ENDCHAR
STARTCHAR oacute
ENCODING 243
SWIDTH 578 0
DWIDTH 12 0
BBX 13 19 -1 0
BITMAP
0000007AA50000
000007FFFF7000
00000CF49FB000
00002FE2FF5000
00006FA8FC0000
0001AFFFF60000
007EEFFFFBC300
07FF457771CE20
0EFF3CFFF4BF70
1FFF3CFFF4BF90
1FFF3CFFF4BF90
1FFF3CFFF4BF90
1FFF3CFFF4BF90
1FFF458881CF90
1FFFD76679FF90
0FFFFFFFFFFF90
0CFFFFFFFFFF50
03FFFFFFFFFB00
002AEFFFFD7000
ENDCHAR
STARTCHAR ocircumflex
ENCODING 244
SWIDTH 578 0
DWIDTH 12 0
BBX 13 20 -1 0
BITMAP
00000012000000
000006FFC10000
00002FEDF90000
00008F84FE1000
0000EF5AAF6000
0004FB8E4FB000
0006FFFFFFB000
007FFFFFFFF300
07FF457771CE20
0EFF3CFFF4BF70
1FFF3CFFF4BF90
1FFF3CFFF4BF90
1FFF3CFFF4BF90
1FFF3CFFF4BF90
1FFF458881CF90
1FFFD76679FF90
0FFFFFFFFFFF90
0CFFFFFFFFFF50
03FFFFFFFFFB00
002AEFFFFD7000
ENDCHAR
STARTCHAR otilde
ENCODING 245
SWIDTH 578 0
DWIDTH 12 0
BBX 13 20 -1 0
BITMAP
00000266400000
0001AFFFFC2000
0009FFFFFFD100
001FFFFFFFF500
002FF77D5DF700
000ED5A44FF300
0007FFFFFFA000
007EE8888BC300
07FF457771CE20
0EFF3CFFF4BF70
1FFF3CFFF4BF90
1FFF3CFFF4BF90
1FFF3CFFF4BF90
1FFF3CFFF4BF90
1FFF458881CF90
1FFFD76679FF90
0FFFFFFFFFFF90
0CFFFFFFFFFF50
03FFFFFFFFFB00
002AEFFFFD7000
ENDCHAR
STARTCHAR odieresis
ENCODING 246
SWIDTH 578 0
DWIDTH 12 0
BBX 13 18 -1 0
BITMAP
000016AB930000
0001DFFFFF7000
0008FCDEBFF100
0009F56D0DF200
0006FFFFFFD000
007EFFFFFFE300
07FF457771CE20
0EFF3CFFF4BF70
1FFF3CFFF4BF90
1FFF3CFFF4BF90
1FFF3CFFF4BF90
1FFF3CFFF4BF90
1FFF458881CF90
1FFFD76679FF90
0FFFFFFFFFFF90
0CFFFFFFFFFF50
03FFFFFFFFFB00
002AEFFFFD7000
ENDCHAR
STARTCHAR divide
ENCODING 247
SWIDTH 428 0
DWIDTH 9 0
BBX 10 14 -1 0
BITMAP
0001553000
007EFFFC30
07FFB5FFE2
0EFFC7FFF7
1FF7000DF9
1FFFC8FFF9
1FFFB4FFF9
1FFFFFFFF9
1FFFFFFFF9
1FFFFFFFF9
0FFFFFFFF9
0CFFFFFFF5
03FFFFFFB0
002AEFD700
ENDCHAR
STARTCHAR oslash
ENCODING 248
SWIDTH 578 0
DWIDTH 12 0
BBX 13 14 -1 0
BITMAP
00015666530000
007ED8778BC300
07FF357730EE20
0EFF1EFD22CF70
1FFF1EF4B2CF90
1FFF1E95F2CF90
1FFF1C2EF2CF90
1FFF13AFF2CF90
1FFF217771EF90
1FFFD8777BFF90
0FFFFFFFFFFF90
0CFFFFFFFFFF50
03FFFFFFFFFB00
002AEFFFFD7000
ENDCHAR
STARTCHAR ugrave
ENCODING 249
SWIDTH 578 0
DWIDTH 12 0
BBX 13 19 -1 0
BITMAP
00017AA6000000
000AFFFF400000
000DF67F900000
0008FD3FE00000
0001EF5DF30000
0001AFFFF60000
007E9FFFF9A300
07FF2DFFF3CE20
0EFF2DFFF3CF70
1FFF2DFFF3CF90
1FFF2DFFF3CF90
1FFF2DFFF3CF90
1FFF2DFFF3CF90
1FFF368881DF90
1FFFD7667AFF90
0FFFFFFFFFFF90
0CFFFFFFFFFF50
03FFFFFFFFFB00
002AEFFFFD7000
ENDCHAR
STARTCHAR uacute
ENCODING 250
SWIDTH 578 0
DWIDTH 12 0
BBX 13 19 -1 0
BITMAP
0000005AA71000
000003FFFFB000
000008F85FF000
00000CF4CF9000
00001FE4FE2000
00016FFFFA0000
007E8FFFF9A300
07FF2DFFF3CE20
0EFF2DFFF3CF70
1FFF2DFFF3CF90
1FFF2DFFF3CF90
1FFF2DFFF3CF90
1FFF2DFFF3CF90
1FFF368881DF90
1FFFD7667AFF90
0FFFFFFFFFFF90
0CFFFFFFFFFF50
03FFFFFFFFFB00
002AEFFFFD7000
ENDCHAR
STARTCHAR ucircumflex
ENCODING 251
SWIDTH 578 0
DWIDTH 12 0
BBX 13 20 -1 0
BITMAP
00000012000000
000006FFD10000
00001FEDF90000
00008F84EF1000
0000EF5A9F7000
0003FC7E4FB000
0005FFFFFFC000
007FFFFFFFE300
07FF2DFFF3CE20
0EFF2DFFF3CF70
1FFF2DFFF3CF90
1FFF2DFFF3CF90
1FFF2DFFF3CF90
1FFF2DFFF3CF90
1FFF368881DF90
1FFFD7667AFF90
0FFFFFFFFFFF90
0CFFFFFFFFFF50
03FFFFFFFFFB00
002AEFFFFD7000
ENDCHAR
STARTCHAR udieresis
ENCODING 252
SWIDTH 578 0
DWIDTH 12 0
BBX 13 18 -1 0
BITMAP
000006AB930000
0001CFFFFF7000
0007FCDEBEF100
0009F56D0DF300
0005FFFFFFD000
007EEFFFFFD300
07FF2DFFF3CE20
0EFF2DFFF3CF70
1FFF2DFFF3CF90
1FFF2DFFF3CF90
1FFF2DFFF3CF90
1FFF2DFFF3CF90
1FFF368881DF90
1FFFD7667AFF90
0FFFFFFFFFFF90
0CFFFFFFFFFF50
03FFFFFFFFFB00
002AEFFFFD7000
ENDCHAR
STARTCHAR yacute
ENCODING 253
SWIDTH 578 0
DWIDTH 12 0
BBX 13 19 -1 0
BITMAP
0000005AA71000
000004FFFFB000
000009F86FE000
00000DF3DF9000
00002FE5FE1000
00017FFFF90000
007EAFFFF8B300
07FFA2FF93FE20
0EFFF2BF3AFF70
1FFFF85C1FFF90
1FFFFE147FFF90
1FFFFF60EFFF90
1FFFFFA4FFFF90
1FFFFFB4FFFF90
1FFFFFC9FFFF90
0FFFFFFFFFFF90
0CFFFFFFFFFF50
03FFFFFFFFFB00
002AEFFFFD7000
ENDCHAR
STARTCHAR thorn
ENCODING 254
SWIDTH 578 0
DWIDTH 12 0
BBX 13 14 -1 0
BITMAP
00015666530000
007EB7FFFFC300
07FFA4EEEFFE20
0EFFA01104FF70
1FFFA4FFF0EF90
1FFFA4FFF0EF90
1FFFA14432FF90
1FFFA3AABEFF90
1FFFA4FFFFFF90
1FFFC9FFFFFF90
0FFFFFFFFFFF90
0CFFFFFFFFFF50
03FFFFFFFFFB00
002AEFFFFD7000
ENDCHAR
STARTCHAR ydieresis
ENCODING 255
SWIDTH 578 0
DWIDTH 12 0
BBX 13 18 -1 0
BITMAP
000017AB930000
0001DFFFFF6000
0008FCDEBFF100
000AF47C0EF200
0006FFFFFFC000
007FFFFFFFD300
07FFA2FF93FE20
0EFFF2BF3AFF70
1FFFF85C1FFF90
1FFFFE147FFF90
1FFFFF60EFFF90
1FFFFFA4FFFF90
1FFFFFB4FFFF90
1FFFFFC9FFFF90
0FFFFFFFFFFF90
0CFFFFFFFFFF50
03FFFFFFFFFB00
002AEFFFFD7000
ENDCHAR
STARTCHAR Amacron
ENCODING 256
SWIDTH 578 0
DWIDTH 12 0
BBX 13 18 -1 0
BITMAP
000039BCA40000
0007FFFFFFA000
002FFEEEEFF400
003FF2114FF500
001FFFFFFFF200
007FFFFFFFF300
07FFB26737FE20
0EFF86FF95FF70
1FFF78FFA4FF90
1FFF56AA82FF90
1FFF346660FF90
1FFF2CFFF0EF90
1FFF0DFFF1CF90
1FFE6EFFF8DF90
0FFFFFFFFFFF90
0CFFFFFFFFFF50
03FFFFFFFFFB00
002AEFFFFD7000
ENDCHAR
STARTCHAR amacron
ENCODING 257
SWIDTH 578 0
DWIDTH 12 0
BBX 13 18 -1 0
BITMAP
000028BCA60000
0004FFFFFFC100
000EFEEEEFF700
000FF5111FF800
000DFFFFFFF400
007FFFFFFFF300
07FFB77738FE20
0EFFFFFF88FF70
1FFFFFFF88FF90
1FFFA55538FF90
1FFE09AA58FF90
1FFD1FFF88FF90
1FFE078848FF90
1FFFB7668BFF90
0FFFFFFFFFFF90
0CFFFFFFFFFF50
03FFFFFFFFFB00
002AEFFFFD7000
ENDCHAR
STARTCHAR Abreve
ENCODING 258
SWIDTH 578 0
DWIDTH 12 0
BBX 13 19 -1 0
BITMAP
000039BCA40000
0007FFFFFFA000
002FFFFFFFF400
003FF6AC3FF500
001EFC54AFF200
0005FFFFFF5000
007EFA889FC300
07FFB26737FE20
0EFF86FF95FF70
1FFF78FFA4FF90
1FFF56AA82FF90
1FFF346660FF90
1FFF2CFFF0EF90
1FFF0DFFF1CF90
1FFE6EFFF8DF90
0FFFFFFFFFFF90
0CFFFFFFFFFF50
03FFFFFFFFFB00
002AEFFFFD7000
ENDCHAR
STARTCHAR abreve
ENCODING 259
SWIDTH 578 0
DWIDTH 12 0
BBX 13 19 -1 0
BITMAP
000028BCA60000
0004FFFFFFC100
000EFFFFFFF700
000FF98D3FF800
000CFE548FF400
0003FFFFFF8000
007EC8889FC300
07FFB77738FE20
0EFFFFFF88FF70
1FFFFFFF88FF90
1FFFA55538FF90
1FFE09AA58FF90
1FFD1FFF88FF90
1FFE078848FF90
1FFFB7668BFF90
0FFFFFFFFFFF90
0CFFFFFFFFFF50
03FFFFFFFFFB00
002AEFFFFD7000
ENDCHAR
STARTCHAR Aogonek
ENCODING 260
SWIDTH 578 0
DWIDTH 12 0
BBX 13 14 -1 0
BITMAP
00015666530000
007EFA889FC300
07FFB26737FE20
0EFF86FF95FF70
1FFF78FFA4FF90
1FFF56AA82FF90
1FFF346660FF90
1FFF2CFFF0EF90
1FFF0DFFF1CF90
1FFE6EFFF3CF90
0FFFFFFF69FF90
0CFFFFFF3BEF50
03FFFFFFB5DB00
002AEFFFFD7000
ENDCHAR
STARTCHAR aogonek
ENCODING 261
SWIDTH 578 0
DWIDTH 12 0
BBX 13 14 -1 0
BITMAP
00015666530000
007EC8889FC300
07FFB77738FE20
0EFFFFFF86FF70
1FFFFFFF86FF90
1FFFA55536FF90
1FFE09AA56FF90
1FFD1FFF86FF90
1FFE078846FF90
1FFFB7527BFF90
0FFFFE3DFFFF90
0CFFFC3CFFFF50
03FFFF86FFFB00
002AEFFFFD7000
ENDCHAR
STARTCHAR Cacute
ENCODING 262
SWIDTH 578 0
DWIDTH 12 0
BBX 13 19 -1 0
BITMAP
0000004AA71000
000002FFFFC000
000007F94FF100
00000CF5BFA000
00001FF4FF2000
00016FFFFB0000
007EDEFFFEC300
07FF26776DFE20
0EFF0EFFFFFF70
1FFF0EFFFFFF90
1FFF0EFFFFFF90
1FFF0EFFFFFF90
1FFF0EFFFFFF90
1FFF26887EFF90
1FFFC7667DFF90
0FFFFFFFFFFF90
0CFFFFFFFFFF50
03FFFFFFFFFB00
002AEFFFFD7000
ENDCHAR
STARTCHAR cacute
ENCODING 263
SWIDTH 578 0
DWIDTH 12 0
BBX 13 19 -1 0
BITMAP
0000005AA71000
000003FFFFB000
000008F85FE000
00000DF4CF9000
00002FE4FE1000
00017FFFFA0000
007EDFFFFEC300
07FF26776DFE20
0EFF0EFFFFFF70
1FFF0EFFFFFF90
1FFF0EFFFFFF90
1FFF0EFFFFFF90
1FFF0EFFFFFF90
1FFF26887EFF90
1FFFC7667DFF90
0FFFFFFFFFFF90
0CFFFFFFFFFF50
03FFFFFFFFFB00
002AEFFFFD7000
ENDCHAR
STARTCHAR Ccircumflex
ENCODING 264
SWIDTH 578 0
DWIDTH 12 0
BBX 13 20 -1 0
BITMAP
00000011000000
000009FFB00000
00004FEDF60000
0000AF65FD0000
0002FE67CF4000
0006F9AC6F8000
0008FFFFFF9000
007FFFFFFFE300
07FF26776DFE20
0EFF0EFFFFFF70
1FFF0EFFFFFF90
1FFF0EFFFFFF90
1FFF0EFFFFFF90
1FFF0EFFFFFF90
1FFF26887EFF90
1FFFC7667DFF90
0FFFFFFFFFFF90
0CFFFFFFFFFF50
03FFFFFFFFFB00
002AEFFFFD7000
ENDCHAR
STARTCHAR ccircumflex
ENCODING 265
SWIDTH 578 0
DWIDTH 12 0
BBX 13 20 -1 0
BITMAP
00000011000000
000009FFB00000
00004FEDF60000
0000BF66FC0000
0002FE67DF3000
0007F8AC7F8000
0009FFFFFF9000
007FFFFFFFE300
07FF26776DFE20
0EFF0EFFFFFF70
1FFF0EFFFFFF90
1FFF0EFFFFFF90
1FFF0EFFFFFF90
1FFF0EFFFFFF90
1FFF26887EFF90
1FFFC7667DFF90
0FFFFFFFFFFF90
0CFFFFFFFFFF50
03FFFFFFFFFB00
002AEFFFFD7000
ENDCHAR
STARTCHAR Cdotaccent
ENCODING 266
SWIDTH 578 0
DWIDTH 12 0
BBX 13 18 -1 0
BITMAP
00006ACB810000
001CFFFFFE3000
008FFFDFFFC000
00AFFE0CFFE000
007FFFFFFFB000
009FFFFFFFF300
07FF26776DFE20
0EFF0EFFFFFF70
1FFF0EFFFFFF90
1FFF0EFFFFFF90
1FFF0EFFFFFF90
1FFF0EFFFFFF90
1FFF26887EFF90
1FFFC7667DFF90
0FFFFFFFFFFF90
0CFFFFFFFFFF50
03FFFFFFFFFB00
002AEFFFFD7000
ENDCHAR
STARTCHAR cdotaccent
ENCODING 267
SWIDTH 578 0
DWIDTH 12 0
BBX 13 18 -1 0
BITMAP
00005ACB920000
000AFFFFFF6000
005FFFEEFFE000
007FFF29FFF100
004FFFFFFFE000
008FFFFFFFF300
07FF26776DFE20
0EFF0EFFFFFF70
1FFF0EFFFFFF90
1FFF0EFFFFFF90
1FFF0EFFFFFF90
1FFF0EFFFFFF90
1FFF26887EFF90
1FFFC7667DFF90
0FFFFFFFFFFF90
0CFFFFFFFFFF50
03FFFFFFFFFB00
002AEFFFFD7000
ENDCHAR
STARTCHAR Ccaron
ENCODING 268
SWIDTH 578 0
DWIDTH 12 0
BBX 13 19 -1 0
BITMAP
00016736830000
000BFFFFFE1000
000EF6F8CF3000
000BF7D4FF1000
0007FD58FD0000
0004FFFFFB0000
007EFFFFFFC300
07FF26776DFE20
0EFF0EFFFFFF70
1FFF0EFFFFFF90
1FFF0EFFFFFF90
1FFF0EFFFFFF90
1FFF0EFFFFFF90
1FFF26887EFF90
1FFFC7667DFF90
0FFFFFFFFFFF90
0CFFFFFFFFFF50
03FFFFFFFFFB00
002AEFFFFD7000
ENDCHAR
STARTCHAR ccaron
ENCODING 269
SWIDTH 578 0
DWIDTH 12 0
BBX 13 19 -1 0
BITMAP
00005835840000
0008FFFFFF3000
000BF6EAAF6000
0009FAA5EF4000
0005FE56FF1000
0002FFFFFE0000
007EFFFFFFC300
07FF26776DFE20
0EFF0EFFFFFF70
1FFF0EFFFFFF90
1FFF0EFFFFFF90
1FFF0EFFFFFF90
1FFF0EFFFFFF90
1FFF26887EFF90
1FFFC7667DFF90
0FFFFFFFFFFF90
0CFFFFFFFFFF50
03FFFFFFFFFB00
002AEFFFFD7000
ENDCHAR
STARTCHAR Dcaron
ENCODING 270
SWIDTH 578 0
DWIDTH 12 0
BBX 13 20 -1 0
BITMAP
00006835840000
0009FFFFFF2000
000CF6FABF5000
0009F9B5EF3000
0005FE56FE0000
0001FFADFA0000
0001BFFFE70000
007E98888BC300
07FF357771CE20
0EFF3CFFF4AF70
1FFF3CFFF4AF90
1FFF3CFFF4AF90
1FFF3CFFF4AF90
1FFF3CFFF4AF90
1FFF368881CF90
1FFF866679FF90
0FFFFFFFFFFF90
0CFFFFFFFFFF50
03FFFFFFFFFB00
002AEFFFFD7000
ENDCHAR
STARTCHAR dcaron
ENCODING 271
SWIDTH 578 0
DWIDTH 12 0
BBX 13 14 -1 0
BITMAP
00015666530000
007A8888CA6300
07F64776163E20
0EF69FFF1A9F70
1FF69FFF1EFF90
1FF69FFF1EFF90
1FF69FFF1EFF90
1FF69FFF1EFF90
1FF658870FFF90
1FFA6667BFFF90
0FFFFFFFFFFF90
0CFFFFFFFFFF50
03FFFFFFFFFB00
002AEFFFFD7000
ENDCHAR
STARTCHAR Dcroat
ENCODING 272
SWIDTH 578 0
DWIDTH 12 0
BBX 13 14 -1 0
BITMAP
00015666530000
007E98888BC300
07FF357771CE20
0EFF3CFFF4AF70
1FFA28CFF4AF90
1FF4138FF4AF90
1FFF3CFFF4AF90
1FFF3CFFF4AF90
1FFF368881CF90
1FFF866679FF90
0FFFFFFFFFFF90
0CFFFFFFFFFF50
03FFFFFFFFFB00
002AEFFFFD7000
ENDCHAR
STARTCHAR dcroat
ENCODING 273
SWIDTH 578 0
DWIDTH 12 0
BBX 13 14 -1 0
BITMAP
00015666530000
007E98888BC300
07FF357771CE20
0EFF3CFFF4AF70
1FFA28CFF4AF90
1FF4138FF4AF90
1FFF3CFFF4AF90
1FFF3CFFF4AF90
1FFF368881CF90
1FFF866679FF90
0FFFFFFFFFFF90
0CFFFFFFFFFF50
03FFFFFFFFFB00
002AEFFFFD7000
ENDCHAR
STARTCHAR Emacron
ENCODING 274
SWIDTH 578 0
DWIDTH 12 0
BBX 13 18 -1 0
BITMAP
000028BCA60000
0004FFFFFFC100
000DFEEEEFF700
000FF5111FF900
000CFFFFFFF500
007FFFFFFFF300
07FFE07779FE20
0EFFE1FFFFFF70
1FFFE1FFFFFF90
1FFFE0000CFF90
1FFFE1EEEFFF90
1FFFE1FFFFFF90
1FFFE08889FF90
1FFFE66668FF90
0FFFFFFFFFFF90
0CFFFFFFFFFF50
03FFFFFFFFFB00
002AEFFFFD7000
ENDCHAR
STARTCHAR emacron
ENCODING 275
SWIDTH 578 0
DWIDTH 12 0
BBX 13 18 -1 0
BITMAP
00005ACB920000
000BFFFFFF5000
006FFEEEEFE000
008FC1118FF100
004FFFFFFFC000
007FFFFFFFE300
07FF167738FE20
0EFE0FFF87FF70
1FFE088847FF90
1FFE07777BFF90
1FFE0FFFFFFF90
1FFE0FFFFFFF90
1FFF32332DFF90
1FFFEBBBCEFF90
0FFFFFFFFFFF90
0CFFFFFFFFFF50
03FFFFFFFFFB00
002AEFFFFD7000
ENDCHAR
STARTCHAR Ebreve
ENCODING 276
SWIDTH 578 0
DWIDTH 12 0
BBX 13 19 -1 0
BITMAP
000028BCA60000
0004FFFFFFC100
000DFFFFFFF700
000FF97D3EF900
000BFE548FF500
0003FFFFFF8000
007EE8888AC300
07FFE07779FE20
0EFFE1FFFFFF70
1FFFE1FFFFFF90
1FFFE0000CFF90
1FFFE1EEEFFF90
1FFFE1FFFFFF90
1FFFE08889FF90
1FFFE66668FF90
0FFFFFFFFFFF90
0CFFFFFFFFFF50
03FFFFFFFFFB00
002AEFFFFD7000
ENDCHAR
STARTCHAR ebreve
ENCODING 277
SWIDTH 578 0
DWIDTH 12 0
BBX 13 19 -1 0
BITMAP
00005ACB920000
000BFFFFFF5000
006FFFFFFFE000
008FF3D87FF100
004FF945DFC000
0008FFFFFF2000
007EC8889FC300
07FF167738FE20
0EFE0FFF87FF70
1FFE088847FF90
1FFE07777BFF90
1FFE0FFFFFFF90
1FFE0FFFFFFF90
1FFF32332DFF90
1FFFEBBBCEFF90
0FFFFFFFFFFF90
0CFFFFFFFFFF50
03FFFFFFFFFB00
002AEFFFFD7000
ENDCHAR
STARTCHAR Edotaccent
ENCODING 278
SWIDTH 578 0
DWIDTH 12 0
BBX 13 19 -1 0
BITMAP
000028BCA60000
0004FFFFFFC100
000DFFEEFFF700
000FFF92FFF800
000CFFEDFFF600
0006FFFFFFB000
007EE8888AC300
07FFE07779FE20
0EFFE1FFFFFF70
1FFFE1FFFFFF90
1FFFE0000CFF90
1FFFE1EEEFFF90
1FFFE1FFFFFF90
1FFFE08889FF90
1FFFE66668FF90
0FFFFFFFFFFF90
0CFFFFFFFFFF50
03FFFFFFFFFB00
002AEFFFFD7000
ENDCHAR
STARTCHAR edotaccent
ENCODING 279
SWIDTH 578 0
DWIDTH 12 0
BBX 13 19 -1 0
BITMAP
00005ACB920000
000BFFFFFF5000
006FFFEEFFE000
008FFF29FFF100
005FFFDEFFD000
000CFFFFFF6000
007EC8889FC300
07FF167738FE20
0EFE0FFF87FF70
1FFE088847FF90
1FFE07777BFF90
1FFE0FFFFFFF90
1FFE0FFFFFFF90
1FFF32332DFF90
1FFFEBBBCEFF90
0FFFFFFFFFFF90
0CFFFFFFFFFF50
03FFFFFFFFFB00
002AEFFFFD7000
ENDCHAR
STARTCHAR Eogonek
ENCODING 280
SWIDTH 578 0
DWIDTH 12 0
BBX 13 14 -1 0
BITMAP
00015666530000
007EE8888AC300
07FFE07779FE20
0EFFE1FFFFFF70
1FFFE1FFFFFF90
1FFFE0000CFF90
1FFFE1EEEFFF90
1FFFE1FFFFFF90
1FFFE08889FF90
1FFFE66644FF90
0FFFFFFD3EFF90
0CFFFFFB4DFF50
03FFFFFF77FB00
002AEFFFFD7000
ENDCHAR
STARTCHAR eogonek
ENCODING 281
SWIDTH 578 0
DWIDTH 12 0
BBX 13 14 -1 0
BITMAP
00015666530000
007EC8889FC300
07FF167738FE20
0EFE0FFF87FF70
1FFE088847FF90
1FFE07777BFF90
1FFE0FFFFFFF90
1FFE0FFFFFFF90
1FFF32332DFF90
1FFFEB93BEFF90
0FFFFF4BFFFF90
0CFFFF56DFFF50
03FFFFEADFFB00
002AEFFFFD7000
ENDCHAR
STARTCHAR Ecaron
ENCODING 282
SWIDTH 578 0
DWIDTH 12 0
BBX 13 19 -1 0
BITMAP
00002772771000
0001EFFFFFB000
0004FC8F5FD000
0001FF4C7FB000
0000CF85DF8000
0001CFFFFF3000
007EFFFFFFC300
07FFE07779FE20
0EFFE1FFFFFF70
1FFFE1FFFFFF90
1FFFE0000CFF90
1FFFE1EEEFFF90
1FFFE1FFFFFF90
1FFFE08889FF90
1FFFE66668FF90
0FFFFFFFFFFF90
0CFFFFFFFFFF50
03FFFFFFFFFB00
002AEFFFFD7000
ENDCHAR
STARTCHAR ecaron
ENCODING 283
SWIDTH 578 0
DWIDTH 12 0
BBX 13 19 -1 0
BITMAP
00006835840000
0009FFFFFF2000
000CF6FABF5000
0009F9B5EF3000
0005FE56FE0000
0002FFFFFD0000
007EFFFFFFC300
07FF167738FE20
0EFE0FFF87FF70
1FFE088847FF90
1FFE07777BFF90
1FFE0FFFFFFF90
1FFE0FFFFFFF90
1FFF32332DFF90
1FFFEBBBCEFF90
0FFFFFFFFFFF90
0CFFFFFFFFFF50
03FFFFFFFFFB00
002AEFFFFD7000
ENDCHAR
STARTCHAR Gcircumflex
ENCODING 284
SWIDTH 578 0
DWIDTH 12 0
BBX 13 20 -1 0
BITMAP
00000011000000
00000AFFA00000
00005FDEF50000
0000CF66FC0000
0003FD76DF2000
0008F7BB8F7000
000AFFFFFF8000
007FFFFFFFE300
07FF737778FE20
0EFF59FFFFFF70
1FFF59FFFFFF90
1FFF59FB77DF90
1FFF59FB82BF90
1FFF59FFF4BF90
1FFF748881CF90
1FFFE8667AFF90
0FFFFFFFFFFF90
0CFFFFFFFFFF50
03FFFFFFFFFB00
002AEFFFFD7000
ENDCHAR
STARTCHAR gcircumflex
ENCODING 285
SWIDTH 578 0
DWIDTH 12 0
BBX 13 20 -1 0
BITMAP
00000011000000
00000AFFA00000
00005FDEF50000
0000CF66FC0000
0003FD76DF2000
0008F7BB8F7000
000AFFFFFF8000
007FFFFFFFE300
07FF737778FE20
0EFF59FFFFFF70
1FFF59FFFFFF90
1FFF59FB77DF90
1FFF59FB82BF90
1FFF59FFF4BF90
1FFF748881CF90
1FFFE8667AFF90
0FFFFFFFFFFF90
0CFFFFFFFFFF50
03FFFFFFFFFB00
002AEFFFFD7000
ENDCHAR
STARTCHAR Gbreve
ENCODING 286
SWIDTH 578 0
DWIDTH 12 0
BBX 13 19 -1 0
BITMAP
000049CC930000
0008FFFFFF8000
003FFFFFFFF200
005FF5BB5FF400
001EFB44BFE100
0006FFFFFF4000
007EF9888AC300
07FF737778FE20
0EFF59FFFFFF70
1FFF59FFFFFF90
1FFF59FB77DF90
1FFF59FB82BF90
1FFF59FFF4BF90
1FFF748881CF90
1FFFE8667AFF90
0FFFFFFFFFFF90
0CFFFFFFFFFF50
03FFFFFFFFFB00
002AEFFFFD7000
ENDCHAR
STARTCHAR gbreve
ENCODING 287
SWIDTH 578 0
DWIDTH 12 0
BBX 13 19 -1 0
BITMAP
00005ACB920000
000BFFFFFF5000
006FFFFFFFE000
008FF3D87FF100
004FF945DFC000
0008FFFFFF2000
007EF9888AC300
07FF737778FE20
0EFF59FFFFFF70
1FFF59FFFFFF90
1FFF59FB77DF90
1FFF59FB82BF90
1FFF59FFF4BF90
1FFF748881CF90
1FFFE8667AFF90
0FFFFFFFFFFF90
0CFFFFFFFFFF50
03FFFFFFFFFB00
002AEFFFFD7000
ENDCHAR
STARTCHAR Gdotaccent
ENCODING 288
SWIDTH 578 0
DWIDTH 12 0
BBX 13 19 -1 0
BITMAP
00005ACB920000
000BFFFFFF5000
006FFFEEFFE000
008FFF29FFF100
005FFFDEFFD000
000CFFFFFF6000
007EF9888AC300
07FF737778FE20
0EFF59FFFFFF70
1FFF59FFFFFF90
1FFF59FB77DF90
1FFF59FB82BF90
1FFF59FFF4BF90
1FFF748881CF90
1FFFE8667AFF90
0FFFFFFFFFFF90
0CFFFFFFFFFF50
03FFFFFFFFFB00
002AEFFFFD7000
ENDCHAR
STARTCHAR gdotaccent
ENCODING 289
SWIDTH 578 0
DWIDTH 12 0
BBX 13 19 -1 0
BITMAP
00005ACB920000
000BFFFFFF5000
006FFFEEFFE000
008FFF29FFF100
005FFFDEFFD000
000CFFFFFF6000
007EF9888AC300
07FF737778FE20
0EFF59FFFFFF70
1FFF59FFFFFF90
1FFF59FB77DF90
1FFF59FB82BF90
1FFF59FFF4BF90
1FFF748881CF90
1FFFE8667AFF90
0FFFFFFFFFFF90
0CFFFFFFFFFF50
03FFFFFFFFFB00
002AEFFFFD7000
ENDCHAR
STARTCHAR Gcommaaccent
ENCODING 290
SWIDTH 578 0
DWIDTH 12 0
BBX 13 14 -1 0
BITMAP
00015666530000
007EF9888AC300
07FF737778FE20
0EFF59FFFFFF70
1FFF59FFFFFF90
1FFF59FB77DF90
1FFF59FB82BF90
1FFF59FFF4BF90
1FFF748881CF90
1FFFE8667AFF90
0FFFFFB5EFFF90
0CFFFFC1EFFF50
03FFFFF7FFFB00
002AEFFFFD7000
ENDCHAR
STARTCHAR gcommaaccent
ENCODING 291
SWIDTH 578 0
DWIDTH 12 0
BBX 13 14 -1 0
BITMAP
00015666530000
007EF9888AC300
07FF737778FE20
0EFF59FFFFFF70
1FFF59FFFFFF90
1FFF59FB77DF90
1FFF59FB82BF90
1FFF59FFF4BF90
1FFF748881CF90
1FFFE8667AFF90
0FFFFFB5EFFF90
0CFFFFC1EFFF50
03FFFFF7FFFB00
002AEFFFFD7000
ENDCHAR
STARTCHAR Hcircumflex
ENCODING 292
SWIDTH 578 0
DWIDTH 12 0
BBX 13 20 -1 0
BITMAP
00000011000000
000009FFA00000
00004FEDF60000
0000BF66FC0000
0002FE67DF3000
0007F8BC7F8000
0009FFFFFF8000
007FFFFFFFC300
07FF3CFFF4AE20
0EFF3CFFF4AF70
1FFF3BEEE4AF90
1FFF311110AF90
1FFF3CFFF4AF90
1FFF3CFFF4AF90
1FFF3CFFF4AF90
1FFF8DFFF9CF90
0FFFFFFFFFFF90
0CFFFFFFFFFF50
03FFFFFFFFFB00
002AEFFFFD7000
ENDCHAR
STARTCHAR hcircumflex
ENCODING 293
SWIDTH 578 0
DWIDTH 12 0
BBX 13 20 -1 0
BITMAP
00000011000000
000008FFB00000
00003FEDF70000
0000AF65FD0000
0001FE58CF4000
0006F99D6F9000
0008FFFFFF9000
007FFFFFFFC300
07FF3CFFF4AE20
0EFF3CFFF4AF70
1FFF3BEEE4AF90
1FFF311110AF90
1FFF3CFFF4AF90
1FFF3CFFF4AF90
1FFF3CFFF4AF90
1FFF8DFFF9CF90
0FFFFFFFFFFF90
0CFFFFFFFFFF50
03FFFFFFFFFB00
002AEFFFFD7000
ENDCHAR
STARTCHAR Hbar
ENCODING 294
SWIDTH 578 0
DWIDTH 12 0
BBX 13 19 -1 0
BITMAP
000049CC930000
0008FFFFFF8000
003FFEEEEFF200
005FF1115FF400
001EFFFFFFE100
0006FFFFFF4000
007E9DFFFAA300
07FF3CFFF4AE20
0EFF3CFFF4AF70
1FFF3BEEE4AF90
1FFF311110AF90
1FFF3CFFF4AF90
1FFF3CFFF4AF90
1FFF3CFFF4AF90
1FFF8DFFF9CF90
0FFFFFFFFFFF90
0CFFFFFFFFFF50
03FFFFFFFFFB00
002AEFFFFD7000
ENDCHAR
STARTCHAR hbar
ENCODING 295
SWIDTH 578 0
DWIDTH 12 0
BBX 13 14 -1 0
BITMAP
00015666530000
007E9DFFFAA300
07FE29CCC49E20
0EFD1344415F70
1FFF3BEEE4AF90
1FFF311110AF90
1FFF3CFFF4AF90
1FFF3CFFF4AF90
1FFF3CFFF4AF90
1FFF8DFFF9CF90
0FFFFFFFFFFF90
0CFFFFFFFFFF50
03FFFFFFFFFB00
002AEFFFFD7000
ENDCHAR
STARTCHAR Itilde
ENCODING 296
SWIDTH 578 0
DWIDTH 12 0
BBX 13 20 -1 0
BITMAP
00000256510000
00007FFFFD4000
0006FFFFFFF300
000DFFFFFFF900
000EF96B7BFA00
000BF4B53DF700
0004FFFFFFC100
007EB88888B300
07FFB76177EE20
0EFFFFC2FFFF70
1FFFFFC2FFFF90
1FFFFFC2FFFF90
1FFFFFC2FFFF90
1FFFFFC2FFFF90
1FFFC87188EF90
1FFFB66666EF90
0FFFFFFFFFFF90
0CFFFFFFFFFF50
03FFFFFFFFFB00
002AEFFFFD7000
ENDCHAR
STARTCHAR itilde
ENCODING 297
SWIDTH 578 0
DWIDTH 12 0
BBX 13 20 -1 0
BITMAP
00000256400000
00008FFFFD4000
0007FFFFFFE200
000EFFFFFFF800
000FF87C7CF900
000CF4B53DF600
0005FFFFFFC000
007EB88888B300
07FFB76177EE20
0EFFFFC2FFFF70
1FFFFFC2FFFF90
1FFFFFC2FFFF90
1FFFFFC2FFFF90
1FFFFFC2FFFF90
1FFFC87188EF90
1FFFB66666EF90
0FFFFFFFFFFF90
0CFFFFFFFFFF50
03FFFFFFFFFB00
002AEFFFFD7000
ENDCHAR
STARTCHAR Imacron
ENCODING 298
SWIDTH 578 0
DWIDTH 12 0
BBX 13 19 -1 0
BITMAP
000029BCA50000
0005FFFFFFB000
000EFEEEEFF600
001FF4112FF800
000CFFFFFFF400
0003FFFFFF7000
007EB88888B300
07FFB76177EE20
0EFFFFC2FFFF70
1FFFFFC2FFFF90
1FFFFFC2FFFF90
1FFFFFC2FFFF90
1FFFFFC2FFFF90
1FFFC87188EF90
1FFFB66666EF90
0FFFFFFFFFFF90
0CFFFFFFFFFF50
03FFFFFFFFFB00
002AEFFFFD7000
ENDCHAR
STARTCHAR imacron
ENCODING 299
SWIDTH 578 0
DWIDTH 12 0
BBX 13 19 -1 0
BITMAP
000029BCA50000
0005FFFFFFB000
000EFEEEEFF600
001FF4112FF700
000CFFFFFFF300
0004FFFFFF7000
007EB88888B300
07FFB76177EE20
0EFFFFC2FFFF70
1FFFFFC2FFFF90
1FFFFFC2FFFF90
1FFFFFC2FFFF90
1FFFFFC2FFFF90
1FFFC87188EF90
1FFFB66666EF90
0FFFFFFFFFFF90
0CFFFFFFFFFF50
03FFFFFFFFFB00
002AEFFFFD7000
ENDCHAR
STARTCHAR Ibreve
ENCODING 300
SWIDTH 578 0
DWIDTH 12 0
BBX 13 19 -1 0
BITMAP
000018BCA60000
0003EFFFFFD100
000CFFFFFFF800
000EFA7D4DFA00
000AFE647FF600
0002FFFFFF9000
007EB88888B300
07FFB76177EE20
0EFFFFC2FFFF70
1FFFFFC2FFFF90
1FFFFFC2FFFF90
1FFFFFC2FFFF90
1FFFFFC2FFFF90
1FFFC87188EF90
1FFFB66666EF90
0FFFFFFFFFFF90
0CFFFFFFFFFF50
03FFFFFFFFFB00
002AEFFFFD7000
ENDCHAR
STARTCHAR ibreve
ENCODING 301
SWIDTH 578 0
DWIDTH 12 0
BBX 13 19 -1 0
BITMAP
000028BCA60000
0004FFFFFFC100
000DFFFFFFF700
000FF97D3EF900
000BFE548FF500
0003FFFFFF8000
007EB88888B300
07FFB76177EE20
0EFFFFC2FFFF70
1FFFFFC2FFFF90
1FFFFFC2FFFF90
1FFFFFC2FFFF90
1FFFFFC2FFFF90
1FFFC87188EF90
1FFFB66666EF90
0FFFFFFFFFFF90
0CFFFFFFFFFF50
03FFFFFFFFFB00
002AEFFFFD7000
ENDCHAR
STARTCHAR Iogonek
ENCODING 302
SWIDTH 578 0
DWIDTH 12 0
BBX 13 14 -1 0
BITMAP
00015666530000
007EB88888B300
07FFB76177EE20
0EFFFFC2FFFF70
1FFFFFC2FFFF90
1FFFFFC2FFFF90
1FFFFFC2FFFF90
1FFFFFC2FFFF90
1FFFC87188EF90
1FFFB66661EF90
0FFFFFFF4AFF90
0CFFFFFF2CFF50
03FFFFFFA5EB00
002AEFFFFD7000
ENDCHAR
STARTCHAR iogonek
ENCODING 303
SWIDTH 578 0
DWIDTH 12 0
BBX 13 14 -1 0
BITMAP
00015666530000
007EB88888B300
07FFB76177EE20
0EFFFFC2FFFF70
1FFFFFC2FFFF90
1FFFFFC2FFFF90
1FFFFFC2FFFF90
1FFFFFC2FFFF90
1FFFC87188EF90
1FFFB66661EF90
0FFFFFFF4AFF90
0CFFFFFF2CFF50
03FFFFFFA5DB00
002AEFFFFD7000
ENDCHAR
STARTCHAR Idotaccent
ENCODING 304
SWIDTH 578 0
DWIDTH 12 0
BBX 13 19 -1 0
BITMAP
000049CC930000
0008FFFFFF8000
003FFFEEFFF200
005FFF56FFF400
002FFFEEFFF100
000AFFFFFF8000
007EB88888B300
07FFB76177EE20
0EFFFFC2FFFF70
1FFFFFC2FFFF90
1FFFFFC2FFFF90
1FFFFFC2FFFF90
1FFFFFC2FFFF90
1FFFC87188EF90
1FFFB66666EF90
0FFFFFFFFFFF90
0CFFFFFFFFFF50
03FFFFFFFFFB00
002AEFFFFD7000
ENDCHAR
STARTCHAR dotlessi
ENCODING 305
SWIDTH 578 0
DWIDTH 12 0
BBX 13 14 -1 0
BITMAP
00015666530000
007EB88888B300
07FFB76177EE20
0EFFFFC2FFFF70
1FFFFFC2FFFF90
1FFFFFC2FFFF90
1FFFFFC2FFFF90
1FFFFFC2FFFF90
1FFFC87188EF90
1FFFB66666EF90
0FFFFFFFFFFF90
0CFFFFFFFFFF50
03FFFFFFFFFB00
002AEFFFFD7000
ENDCHAR
STARTCHAR IJ
ENCODING 306
SWIDTH 578 0
DWIDTH 12 0
BBX 13 14 -1 0
BITMAP
00015666530000
0067889FFC7300
07D7259FFA5E20
0EFF4BFFFA5F70
1FFF4BFFFA5F90
1FFF4BFFFA5F90
1FFF4BFFFA5F90
1FFF4BFFFA5F90
1FD826AB845F90
1FD6668A68EF90
0FFFFFFFFFFF90
0CFFFFFFFFFF50
03FFFFFFFFFB00
002AEFFFFD7000
ENDCHAR
STARTCHAR ij
ENCODING 307
SWIDTH 578 0
DWIDTH 12 0
BBX 13 14 -1 0
BITMAP
00015666530000
0067889FFC7300
07D7259FFA5E20
0EFF4BFFFA5F70
1FFF4BFFFA5F90
1FFF4BFFFA5F90
1FFF4BFFFA5F90
1FFF4BFFFA5F90
1FD826AB845F90
1FD6668A68EF90
0FFFFFFFFFFF90
0CFFFFFFFFFF50
03FFFFFFFFFB00
002AEFFFFD7000
ENDCHAR
STARTCHAR Jcircumflex
ENCODING 308
SWIDTH 578 0
DWIDTH 12 0
BBX 13 20 -1 0
BITMAP
00000012000000
000007FFC10000
00002FEDF80000
00009F74FE1000
0001EF59BF5000
0005FA8E5FA000
0007FFFFFFB000
007FFFFFFFF300
07FFFFFA5FFE20
0EFFFFFA5FFF70
1FFFFFFA5FFF90
1FFFFFFA5FFF90
1FFFFFFA5FFF90
1FFFFFFA5FFF90
1FFFFB845FFF90
1FFFFA68EFFF90
0FFFFFFFFFFF90
0CFFFFFFFFFF50
03FFFFFFFFFB00
002AEFFFFD7000
ENDCHAR
STARTCHAR jcircumflex
ENCODING 309
SWIDTH 578 0
DWIDTH 12 0
BBX 13 20 -1 0
BITMAP
00000012000000
000007FFC10000
00002FEDF80000
00009F74FE1000
0001EF59BF5000
0005FA8E5FA000
0007FFFFFFB000
007FFFFFFFF300
07FFFFFA5FFE20
0EFFFFFA5FFF70
1FFFFFFA5FFF90
1FFFFFFA5FFF90
1FFFFFFA5FFF90
1FFFFFFA5FFF90
1FFFFB845FFF90
1FFFFA68EFFF90
0FFFFFFFFFFF90
0CFFFFFFFFFF50
03FFFFFFFFFB00
002AEFFFFD7000
ENDCHAR
STARTCHAR Kcommaaccent
ENCODING 310
SWIDTH 578 0
DWIDTH 12 0
BBX 13 14 -1 0
BITMAP
00015666530000
007EF8FFFB8300
07FFF0FFB1AE20
0EFFF0FB1BFF70
1FFFF0A1BFFF90
1FFFF005FFFF90
1FFFF0B29FFF90
1FFFF0FC1BFF90
1FFFF0FFA1CF90
1FFFF6FFF9CF90
0FFFFFB5EFFF90
0CFFFFC1EFFF50
03FFFFF7FFFB00
002AEFFFFD7000
ENDCHAR
STARTCHAR kcommaaccent
ENCODING 311
SWIDTH 578 0
DWIDTH 12 0
BBX 13 14 -1 0
BITMAP
00015666530000
007EF8FFFB8300
07FFF0FFB1AE20
0EFFF0FB1BFF70
1FFFF0A1BFFF90
1FFFF005FFFF90
1FFFF0B29FFF90
1FFFF0FC1BFF90
1FFFF0FFA1CF90
1FFFF6FFF9CF90
0FFFFFB5EFFF90
0CFFFFC1EFFF50
03FFFFF7FFFB00
002AEFFFFD7000
ENDCHAR
STARTCHAR kgreenlandic
ENCODING 312
SWIDTH 578 0
DWIDTH 12 0
BBX 13 14 -1 0
BITMAP
00015666530000
007EF8FFFB8300
07FFF0FFB1AE20
0EFFF0FB1BFF70
1FFFF0A1BFFF90
1FFFF005FFFF90
1FFFF0B29FFF90
1FFFF0FC1BFF90
1FFFF0FFA1CF90
1FFFF6FFF9CF90
0FFFFFFFFFFF90
0CFFFFFFFFFF50
03FFFFFFFFFB00
002AEFFFFD7000
ENDCHAR
STARTCHAR Lacute
ENCODING 313
SWIDTH 578 0
DWIDTH 12 0
BBX 13 20 -1 0
BITMAP
000006AA600000
00005FFFF90000
0000AF67FD0000
0000EF2EF70000
0004FC6FD10000
0004FEEF500000
0001DFFF530000
007EFACFFFC300
07FFF69FFFFE20
0EFFF69FFFFF70
1FFFF69FFFFF90
1FFFF69FFFFF90
1FFFF69FFFFF90
1FFFF69FFFFF90
1FFFF6588CFF90
1FFFFA666BFF90
0FFFFFFFFFFF90
0CFFFFFFFFFF50
03FFFFFFFFFB00
002AEFFFFD7000
ENDCHAR
STARTCHAR lacute
ENCODING 314
SWIDTH 578 0
DWIDTH 12 0
BBX 13 20 -1 0
BITMAP
000006AA600000
00005FFFF90000
0000AF67FD0000
0000EF2EF70000
0004FC6FD10000
0004FEEF500000
0001DFFF530000
007EFACFFFC300
07FFF69FFFFE20
0EFFF69FFFFF70
1FFFF69FFFFF90
1FFFF69FFFFF90
1FFFF69FFFFF90
1FFFF69FFFFF90
1FFFF6588CFF90
1FFFFA666BFF90
0FFFFFFFFFFF90
0CFFFFFFFFFF50
03FFFFFFFFFB00
002AEFFFFD7000
ENDCHAR
STARTCHAR Lcommaaccent
ENCODING 315
SWIDTH 578 0
DWIDTH 12 0
BBX 13 14 -1 0
BITMAP
00015666530000
007EFACFFFC300
07FFF69FFFFE20
0EFFF69FFFFF70
1FFFF69FFFFF90
1FFFF69FFFFF90
1FFFF69FFFFF90
1FFFF69FFFFF90
1FFFF6588CFF90
1FFFFA666BFF90
0FFFFFB5EFFF90
0CFFFFC1EFFF50
03FFFFF7FFFB00
002AEFFFFD7000
ENDCHAR
STARTCHAR lcommaaccent
ENCODING 316
SWIDTH 578 0
DWIDTH 12 0
BBX 13 14 -1 0
BITMAP
00015666530000
007EFACFFFC300
07FFF69FFFFE20
0EFFF69FFFFF70
1FFFF69FFFFF90
1FFFF69FFFFF90
1FFFF69FFFFF90
1FFFF69FFFFF90
1FFFF6588CFF90
1FFFFA666BFF90
0FFFFFB5EFFF90
0CFFFFC1EFFF50
03FFFFF7FFFB00
002AEFFFFD7000
ENDCHAR
STARTCHAR Lcaron
ENCODING 317
SWIDTH 578 0
DWIDTH 12 0
BBX 13 14 -1 0
BITMAP
00015666530000
007EFACD8DC300
07FFF69C1CFE20
0EFFF69F5FFF70
1FFFF69FFFFF90
1FFFF69FFFFF90
1FFFF69FFFFF90
1FFFF69FFFFF90
1FFFF6588CFF90
1FFFFA666BFF90
0FFFFFFFFFFF90
0CFFFFFFFFFF50
03FFFFFFFFFB00
002AEFFFFD7000
ENDCHAR
STARTCHAR lcaron
ENCODING 318
SWIDTH 578 0
DWIDTH 12 0
BBX 13 14 -1 0
BITMAP
00015666530000
007EFACD8DC300
07FFF69C1CFE20
0EFFF69F5FFF70
1FFFF69FFFFF90
1FFFF69FFFFF90
1FFFF69FFFFF90
1FFFF69FFFFF90
1FFFF6588CFF90
1FFFFA666BFF90
0FFFFFFFFFFF90
0CFFFFFFFFFF50
03FFFFFFFFFB00
002AEFFFFD7000
ENDCHAR
STARTCHAR Ldot
ENCODING 319
SWIDTH 578 0
DWIDTH 12 0
BBX 13 14 -1 0
BITMAP
00015666530000
007EFACFFFC300
07FFF69FFFFE20
0EFFF69FFFFF70
1FFFF6956FFF90
1FFFF69DDFFF90
1FFFF69FFFFF90
1FFFF69FFFFF90
1FFFF6588CFF90
1FFFFA666BFF90
0FFFFFFFFFFF90
0CFFFFFFFFFF50
03FFFFFFFFFB00
002AEFFFFD7000
ENDCHAR
STARTCHAR ldot
ENCODING 320
SWIDTH 578 0
DWIDTH 12 0
BBX 13 14 -1 0
BITMAP
00015666530000
007EFACFFFC300
07FFF69FFFFE20
0EFFF69FFFFF70
1FFFF6956FFF90
1FFFF69DDFFF90
1FFFF69FFFFF90
1FFFF69FFFFF90
1FFFF6588CFF90
1FFFFA666BFF90
0FFFFFFFFFFF90
0CFFFFFFFFFF50
03FFFFFFFFFB00
002AEFFFFD7000
ENDCHAR
STARTCHAR Lslash
ENCODING 321
SWIDTH 578 0
DWIDTH 12 0
BBX 13 14 -1 0
BITMAP
00015666530000
007EFACFFFC300
07FFF69FFFFE20
0EFFF69FFFFF70
1FFFF63AFFFF90
1FFFA28FFFFF90
1FFFD69FFFFF90
1FFFF69FFFFF90
1FFFF6588CFF90
1FFFFA666BFF90
0FFFFFFFFFFF90
0CFFFFFFFFFF50
03FFFFFFFFFB00
002AEFFFFD7000
ENDCHAR
STARTCHAR lslash
ENCODING 322
SWIDTH 578 0
DWIDTH 12 0
BBX 13 14 -1 0
BITMAP
00015666530000
007EFACFFFC300
07FFF69FFFFE20
0EFFF69FFFFF70
1FFFF63AFFFF90
1FFFA28FFFFF90
1FFFD69FFFFF90
1FFFF69FFFFF90
1FFFF6588CFF90
1FFFFA666BFF90
0FFFFFFFFFFF90
0CFFFFFFFFFF50
03FFFFFFFFFB00
002AEFFFFD7000
ENDCHAR
STARTCHAR Nacute
ENCODING 323
SWIDTH 578 0
DWIDTH 12 0
BBX 13 20 -1 0
BITMAP
0000007AA50000
000007FFFF7000
00000DF4AFA000
00002FE2FF5000
00006FA8FB0000
00006FDEF30000
00015FFFD30000
007EB8888CC300
07FF257771FE20
0EFF2CFFF1DF70
1FFF2CFFF1DF90
1FFF2CFFF1DF90
1FFF2CFFF1DF90
1FFF2CFFF1DF90
1FFF2CFFF1DF90
1FFF8DFFF7EF90
0FFFFFFFFFFF90
0CFFFFFFFFFF50
03FFFFFFFFFB00
002AEFFFFD7000
ENDCHAR
STARTCHAR nacute
ENCODING 324
SWIDTH 578 0
DWIDTH 12 0
BBX 13 20 -1 0
BITMAP
0000007AA50000
000007FFFF7000
00000DF4AFA000
00002FE2FF5000
00006FA8FB0000
00006FDEF30000
00015FFFD30000
007EB8888CC300
07FF257771FE20
0EFF2CFFF1DF70
1FFF2CFFF1DF90
1FFF2CFFF1DF90
1FFF2CFFF1DF90
1FFF2CFFF1DF90
1FFF2CFFF1DF90
1FFF8DFFF7EF90
0FFFFFFFFFFF90
0CFFFFFFFFFF50
03FFFFFFFFFB00
002AEFFFFD7000
ENDCHAR
STARTCHAR Ncommaaccent
ENCODING 325
SWIDTH 578 0
DWIDTH 12 0
BBX 13 14 -1 0
BITMAP
00015666530000
007EB8888CC300
07FF257771FE20
0EFF2CFFF1DF70
1FFF2CFFF1DF90
1FFF2CFFF1DF90
1FFF2CFFF1DF90
1FFF2CFFF1DF90
1FFF2CFFF1DF90
1FFF8DFFF7EF90
0FFFFFB5EFFF90
0CFFFFC1EFFF50
03FFFFF7FFFB00
002AEFFFFD7000
ENDCHAR
STARTCHAR ncommaaccent
ENCODING 326
SWIDTH 578 0
DWIDTH 12 0
BBX 13 14 -1 0
BITMAP
00015666530000
007EB8888CC300
07FF257771FE20
0EFF2CFFF1DF70
1FFF2CFFF1DF90
1FFF2CFFF1DF90
1FFF2CFFF1DF90
1FFF2CFFF1DF90
1FFF2CFFF1DF90
1FFF8DFFF7EF90
0FFFFFB5EFFF90
0CFFFFC1EFFF50
03FFFFF7FFFB00
002AEFFFFD7000
ENDCHAR
STARTCHAR Ncaron
ENCODING 327
SWIDTH 578 0
DWIDTH 12 0
BBX 13 19 -1 0
BITMAP
00006835840000
0009FFFFFF2000
000CF6FABF5000
0009F9B5EF3000
0005FE56FE0000
0002FFFFFD0000
007EFFFFFFC300
07FF257771FE20
0EFF2CFFF1DF70
1FFF2CFFF1DF90
1FFF2CFFF1DF90
1FFF2CFFF1DF90
1FFF2CFFF1DF90
1FFF2CFFF1DF90
1FFF8DFFF7EF90
0FFFFFFFFFFF90
0CFFFFFFFFFF50
03FFFFFFFFFB00
002AEFFFFD7000
ENDCHAR
STARTCHAR ncaron
ENCODING 328
SWIDTH 578 0
DWIDTH 12 0
BBX 13 19 -1 0
BITMAP
00006835840000
0009FFFFFF2000
000CF6FABF5000
0009F9B5EF3000
0005FE56FE0000
0002FFFFFD0000
007EFFFFFFC300
07FF257771FE20
0EFF2CFFF1DF70
1FFF2CFFF1DF90
1FFF2CFFF1DF90
1FFF2CFFF1DF90
1FFF2CFFF1DF90
1FFF2CFFF1DF90
1FFF8DFFF7EF90
0FFFFFFFFFFF90
0CFFFFFFFFFF50
03FFFFFFFFFB00
002AEFFFFD7000
ENDCHAR
STARTCHAR napostrophe
ENCODING 329
SWIDTH 578 0
DWIDTH 12 0
BBX 13 14 -1 0
BITMAP
00015666530000
007EB8888CC300
076B257771FE20
0E382CFFF1DF70
1F8D2CFFF1DF90
1FFF2CFFF1DF90
1FFF2CFFF1DF90
1FFF2CFFF1DF90
1FFF2CFFF1DF90
1FFF8DFFF7EF90
0FFFFFFFFFFF90
0CFFFFFFFFFF50
03FFFFFFFFFB00
002AEFFFFD7000
ENDCHAR
STARTCHAR Eng
ENCODING 330
SWIDTH 578 0
DWIDTH 12 0
BBX 13 14 -1 0
BITMAP
00015666530000
007EB8888CC300
07FF257771FE20
0EFF2CFFF1DF70
1FFF2CFFF1DF90
1FFF2CFFF1DF90
1FFF2CFFF1DF90
1FFF2CFFF1DF90
1FFF2CFFF1DF90
1FFF8DFFF1DF90
0FFFFFFFF1DF90
0CFFFFE650EF50
03FFFFE89DFB00
002AEFFFFD7000
ENDCHAR
STARTCHAR eng
ENCODING 331
SWIDTH 578 0
DWIDTH 12 0
BBX 13 14 -1 0
BITMAP
00015666530000
007EB8888CC300
07FF257771FE20
0EFF2CFFF1DF70
1FFF2CFFF1DF90
1FFF2CFFF1DF90
1FFF2CFFF1DF90
1FFF2CFFF1DF90
1FFF2CFFF1DF90
1FFF8DFFF1DF90
0FFFFFFFF1DF90
0CFFFFE650EF50
03FFFFE89DFB00
002AEFFFFD7000
ENDCHAR
STARTCHAR Omacron
ENCODING 332
SWIDTH 578 0
DWIDTH 12 0
BBX 13 19 -1 0
BITMAP
000029BCA50000
0005FFFFFFB000
000EFEEEEFF600
001FF4112FF800
000CFFFFFFF400
0004FFFFFF7000
007EE8888BC300
07FF457771CE20
0EFF3CFFF4BF70
1FFF3CFFF4BF90
1FFF3CFFF4BF90
1FFF3CFFF4BF90
1FFF3CFFF4BF90
1FFF458881CF90
1FFFD76679FF90
0FFFFFFFFFFF90
0CFFFFFFFFFF50
03FFFFFFFFFB00
002AEFFFFD7000
ENDCHAR
STARTCHAR omacron
ENCODING 333
SWIDTH 578 0
DWIDTH 12 0
BBX 13 19 -1 0
BITMAP
000029BCA50000
0005FFFFFFB000
000EFEEEEFF600
001FF4112FF800
000CFFFFFFF400
0004FFFFFF7000
007EE8888BC300
07FF457771CE20
0EFF3CFFF4BF70
1FFF3CFFF4BF90
1FFF3CFFF4BF90
1FFF3CFFF4BF90
1FFF3CFFF4BF90
1FFF458881CF90
1FFFD76679FF90
0FFFFFFFFFFF90
0CFFFFFFFFFF50
03FFFFFFFFFB00
002AEFFFFD7000
ENDCHAR
STARTCHAR Obreve
ENCODING 334
SWIDTH 578 0
DWIDTH 12 0
BBX 13 19 -1 0
BITMAP
000029BCA50000
0005FFFFFFB000
000EFFFFFFF600
001FF88C3FF800
000CFD549FF400
0004FFFFFF7000
007EE8888BC300
07FF457771CE20
0EFF3CFFF4BF70
1FFF3CFFF4BF90
1FFF3CFFF4BF90
1FFF3CFFF4BF90
1FFF3CFFF4BF90
1FFF458881CF90
1FFFD76679FF90
0FFFFFFFFFFF90
0CFFFFFFFFFF50
03FFFFFFFFFB00
002AEFFFFD7000
ENDCHAR
STARTCHAR obreve
ENCODING 335
SWIDTH 578 0
DWIDTH 12 0
BBX 13 19 -1 0
BITMAP
000029BCA50000
0005FFFFFFB000
000EFFFFFFF600
001FF88C3FF800
000CFD549FF400
0004FFFFFF7000
007EE8888BC300
07FF457771CE20
0EFF3CFFF4BF70
1FFF3CFFF4BF90
1FFF3CFFF4BF90
1FFF3CFFF4BF90
1FFF3CFFF4BF90
1FFF458881CF90
1FFFD76679FF90
0FFFFFFFFFFF90
0CFFFFFFFFFF50
03FFFFFFFFFB00
002AEFFFFD7000
ENDCHAR
STARTCHAR Ohungarumlaut
ENCODING 336
SWIDTH 578 0
DWIDTH 12 0
BBX 13 19 -1 0
BITMAP
0000005CDBE500
000002FFFFFC00
00000AF8AC6F60
00003FE5F5EF40
0000BF8EABF800
0001FFFFFFD100
007EFFFFFFF300
07FF457771CE20
0EFF3CFFF4BF70
1FFF3CFFF4BF90
1FFF3CFFF4BF90
1FFF3CFFF4BF90
1FFF3CFFF4BF90
1FFF458881CF90
1FFFD76679FF90
0FFFFFFFFFFF90
0CFFFFFFFFFF50
03FFFFFFFFFB00
002AEFFFFD7000
ENDCHAR
STARTCHAR ohungarumlaut
ENCODING 337
SWIDTH 578 0
DWIDTH 12 0
BBX 13 19 -1 0
BITMAP
0000005CDBE500
000002FFFFFC00
00000AF8AC6F60
00003FE5F5EF40
0000BF8EABF800
0001FFFFFFD100
007EFFFFFFF300
07FF457771CE20
0EFF3CFFF4BF70
1FFF3CFFF4BF90
1FFF3CFFF4BF90
1FFF3CFFF4BF90
1FFF3CFFF4BF90
1FFF458881CF90
1FFFD76679FF90
0FFFFFFFFFFF90
0CFFFFFFFFFF50
03FFFFFFFFFB00
002AEFFFFD7000
ENDCHAR
STARTCHAR OE
ENCODING 338
SWIDTH 578 0
DWIDTH 12 0
BBX 13 14 -1 0
BITMAP
00015666530000
007D8889889300
07F5474177BE20
0EF3BFC3FFFF70
1FF3BFC3FFFF90
1FF3BFC000DF90
1FF3BFC3EEFF90
1FF3BFC3FFFF90
1FF5585288BF90
1FFD767866AF90
0FFFFFFFFFFF90
0CFFFFFFFFFF50
03FFFFFFFFFB00
002AEFFFFD7000
ENDCHAR
STARTCHAR oe
ENCODING 339
SWIDTH 578 0
DWIDTH 12 0
BBX 13 14 -1 0
BITMAP
00015666530000
007D8889889300
07F5474177BE20
0EF3BFC3FFFF70
1FF3BFC3FFFF90
1FF3BFC000DF90
1FF3BFC3EEFF90
1FF3BFC3FFFF90
1FF5585288BF90
1FFD767866AF90
0FFFFFFFFFFF90
0CFFFFFFFFFF50
03FFFFFFFFFB00
002AEFFFFD7000
ENDCHAR
STARTCHAR Racute
ENCODING 340
SWIDTH 578 0
DWIDTH 12 0
BBX 13 19 -1 0
BITMAP
0000007AA50000
000007FFFF7000
00000DF4AFA000
00002FE2FF5000
00006FA8FB0000
0001BFFFF60000
007EBFFFFEC300
07FF547737FE20
0EFF59FFA4FF70
1FFF59FFA5FF90
1FFF52444DFF90
1FFF56AA56FF90
1FFF59FFC3FF90
1FFF59FFC3FF90
1FFF9BFFD8FF90
0FFFFFFFFFFF90
0CFFFFFFFFFF50
03FFFFFFFFFB00
002AEFFFFD7000
ENDCHAR
STARTCHAR racute
ENCODING 341
SWIDTH 578 0
DWIDTH 12 0
BBX 13 19 -1 0
BITMAP
0000007AA50000
000007FFFF7000
00000DF4AFA000
00002FE2FF5000
00006FA8FB0000
0001BFFFF60000
007EBFFFFEC300
07FF547737FE20
0EFF59FFA4FF70
1FFF59FFA5FF90
1FFF52444DFF90
1FFF56AA56FF90
1FFF59FFC3FF90
1FFF59FFC3FF90
1FFF9BFFD8FF90
0FFFFFFFFFFF90
0CFFFFFFFFFF50
03FFFFFFFFFB00
002AEFFFFD7000
ENDCHAR
STARTCHAR Rcommaaccent
ENCODING 342
SWIDTH 578 0
DWIDTH 12 0
BBX 13 14 -1 0
BITMAP
00015666530000
007EA8889EC300
07FF547737FE20
0EFF59FFA4FF70
1FFF59FFA5FF90
1FFF52444DFF90
1FFF56AA56FF90
1FFF59FFC3FF90
1FFF59FFC3FF90
1FFF9BFFD8FF90
0FFFFFB5EFFF90
0CFFFFC1EFFF50
03FFFFF7FFFB00
002AEFFFFD7000
ENDCHAR
STARTCHAR rcommaaccent
ENCODING 343
SWIDTH 578 0
DWIDTH 12 0
BBX 13 14 -1 0
BITMAP
00015666530000
007EA8889EC300
07FF547737FE20
0EFF59FFA4FF70
1FFF59FFA5FF90
1FFF52444DFF90
1FFF56AA56FF90
1FFF59FFC3FF90
1FFF59FFC3FF90
1FFF9BFFD8FF90
0FFFFFB5EFFF90
0CFFFFC1EFFF50
03FFFFF7FFFB00
002AEFFFFD7000
ENDCHAR
STARTCHAR Rcaron
ENCODING 344
SWIDTH 578 0
DWIDTH 12 0
BBX 13 19 -1 0
BITMAP
00006835840000
0009FFFFFF2000
000CF6FABF5000
0009F9B5EF3000
0005FE56FE0000
0002FFFFFD0000
007EFFFFFFC300
07FF547737FE20
0EFF59FFA4FF70
1FFF59FFA5FF90
1FFF52444DFF90
1FFF56AA56FF90
1FFF59FFC3FF90
1FFF59FFC3FF90
1FFF9BFFD8FF90
0FFFFFFFFFFF90
0CFFFFFFFFFF50
03FFFFFFFFFB00
002AEFFFFD7000
ENDCHAR
STARTCHAR rcaron
ENCODING 345
SWIDTH 578 0
DWIDTH 12 0
BBX 13 19 -1 0
BITMAP
00006835840000
0009FFFFFF2000
000CF6FABF5000
0009F9B5EF3000
0005FE56FE0000
0002FFFFFD0000
007EFFFFFFC300
07FF547737FE20
0EFF59FFA4FF70
1FFF59FFA5FF90
1FFF52444DFF90
1FFF56AA56FF90
1FFF59FFC3FF90
1FFF59FFC3FF90
1FFF9BFFD8FF90
0FFFFFFFFFFF90
0CFFFFFFFFFF50
03FFFFFFFFFB00
002AEFFFFD7000
ENDCHAR
STARTCHAR Sacute
ENCODING 346
SWIDTH 578 0
DWIDTH 12 0
BBX 13 19 -1 0
BITMAP
0000004AA81000
000002FFFFD000
000007FA4FF100
00000BF5BFB000
00001FF3FF2000
00015FFFFC0000
007EFFFFFBC300
07FF837778FE20
0EFF69FFFFFF70
1FFF67EEFFFF90
1FFFC20004FF90
1FFFFFFFF1DF90
1FFFFFFFF1DF90
1FFFE78870EF90
1FFFD7667BFF90
0FFFFFFFFFFF90
0CFFFFFFFFFF50
03FFFFFFFFFB00
002AEFFFFD7000
ENDCHAR
STARTCHAR sacute
ENCODING 347
SWIDTH 578 0
DWIDTH 12 0
BBX 13 19 -1 0
BITMAP
0000004AA81000
000002FFFFD000
000007FA4FF100
00000BF5BFB000
00001FF3FF2000
00015FFFFC0000
007EFFFFFBC300
07FF837778FE20
0EFF69FFFFFF70
1FFF67EEFFFF90
1FFFC20004FF90
1FFFFFFFF1DF90
1FFFFFFFF1DF90
1FFFE78870EF90
1FFFD7667BFF90
0FFFFFFFFFFF90
0CFFFFFFFFFF50
03FFFFFFFFFB00
002AEFFFFD7000
ENDCHAR
STARTCHAR Scircumflex
ENCODING 348
SWIDTH 578 0
DWIDTH 12 0
BBX 13 20 -1 0
BITMAP
00000012000000
000005FFD20000
00001EFCFA0000
00006F93EF2000
0000DF5B8F8000
0002FD6F4FC000
0004FFFFFFD000
007FFFFFFFF300
07FF837778FE20
0EFF69FFFFFF70
1FFF67EEFFFF90
1FFFC20004FF90
1FFFFFFFF1DF90
1FFFFFFFF1DF90
1FFFE78870EF90
1FFFD7667BFF90
0FFFFFFFFFFF90
0CFFFFFFFFFF50
03FFFFFFFFFB00
002AEFFFFD7000
ENDCHAR
STARTCHAR scircumflex
ENCODING 349
SWIDTH 578 0
DWIDTH 12 0
BBX 13 20 -1 0
BITMAP
00000012000000
000005FFD20000
00001EFCFA0000
00006F93EF2000
0000DF5B8F8000
0002FD6F4FC000
0004FFFFFFD000
007FFFFFFFF300
07FF837778FE20
0EFF69FFFFFF70
1FFF67EEFFFF90
1FFFC20004FF90
1FFFFFFFF1DF90
1FFFFFFFF1DF90
1FFFE78870EF90
1FFFD7667BFF90
0FFFFFFFFFFF90
0CFFFFFFFFFF50
03FFFFFFFFFB00
002AEFFFFD7000
ENDCHAR
STARTCHAR Scedilla
ENCODING 350
SWIDTH 578 0
DWIDTH 12 0
BBX 13 14 -1 0
BITMAP
00015666530000
007EF9888AC300
07FF837778FE20
0EFF69FFFFFF70
1FFF67EEFFFF90
1FFFC20004FF90
1FFFFFFFF1DF90
1FFFFFFFF1DF90
1FFFE78870EF90
1FFFD7627BFF90
0FFFFD26FFFF90
0CFFFB4DFFFF50
03FFFF77FFFB00
002AEFFFFD7000
ENDCHAR
STARTCHAR scedilla
ENCODING 351
SWIDTH 578 0
DWIDTH 12 0
BBX 13 14 -1 0
BITMAP
00015666530000
007EF9888AC300
07FF837778FE20
0EFF69FFFFFF70
1FFF67EEFFFF90
1FFFC20004FF90
1FFFFFFFF1DF90
1FFFFFFFF1DF90
1FFFE78870EF90
1FFFD7627BFF90
0FFFFD26FFFF90
0CFFFB4DFFFF50
03FFFF77FFFB00
002AEFFFFD7000
ENDCHAR
STARTCHAR Scaron
ENCODING 352
SWIDTH 578 0
DWIDTH 12 0
BBX 13 19 -1 0
BITMAP
00002772771000
0001EFFFFFC000
0002FD7F6FF000
0000EF5D6FD000
0000BF95CF9000
0001BFFEFF5000
007EFFFFFFC300
07FF837778FE20
0EFF69FFFFFF70
1FFF67EEFFFF90
1FFFC20004FF90
1FFFFFFFF1DF90
1FFFFFFFF1DF90
1FFFE78870EF90
1FFFD7667BFF90
0FFFFFFFFFFF90
0CFFFFFFFFFF50
03FFFFFFFFFB00
002AEFFFFD7000
ENDCHAR
STARTCHAR scaron
ENCODING 353
SWIDTH 578 0
DWIDTH 12 0
BBX 13 19 -1 0
BITMAP
00002772771000
0001EFFFFFC000
0002FD7F6FF000
0000EF5D6FD000
0000BF95CF9000
0001BFFEFF5000
007EFFFFFFC300
07FF837778FE20
0EFF69FFFFFF70
1FFF67EEFFFF90
1FFFC20004FF90
1FFFFFFFF1DF90
1FFFFFFFF1DF90
1FFFE78870EF90
1FFFD7667BFF90
0FFFFFFFFFFF90
0CFFFFFFFFFF50
03FFFFFFFFFB00
002AEFFFFD7000
ENDCHAR
STARTCHAR Tcommaaccent
ENCODING 354
SWIDTH 578 0
DWIDTH 12 0
BBX 13 14 -1 0
BITMAP
00015666530000
007EB88888B300
07FFB76177EE20
0EFFFFC2FFFF70
1FFFFFC2FFFF90
1FFFFFC2FFFF90
1FFFFFC2FFFF90
1FFFFFC2FFFF90
1FFFFFC2FFFF90
1FFFFFD8FFFF90
0FFFFFB5EFFF90
0CFFFFC1EFFF50
03FFFFF7FFFB00
002AEFFFFD7000
ENDCHAR
STARTCHAR tcommaaccent
ENCODING 355
SWIDTH 578 0
DWIDTH 12 0
BBX 13 14 -1 0
BITMAP
00015666530000
007EB88888B300
07FFB76177EE20
0EFFFFC2FFFF70
1FFFFFC2FFFF90
1FFFFFC2FFFF90
1FFFFFC2FFFF90
1FFFFFC2FFFF90
1FFFFFC2FFFF90
1FFFFFD8FFFF90
0FFFFFB5EFFF90
0CFFFFC1EFFF50
03FFFFF7FFFB00
002AEFFFFD7000
ENDCHAR
STARTCHAR Tcaron
ENCODING 356
SWIDTH 578 0
DWIDTH 12 0
BBX 13 19 -1 0
BITMAP
00003763860000
0003FFFFFF8000
0006FAAE6FB000
0004FE5AAF9000
0000EF65FF5000
0001FFFFFF1000
007EFFFFFEB300
07FFB76177EE20
0EFFFFC2FFFF70
1FFFFFC2FFFF90
1FFFFFC2FFFF90
1FFFFFC2FFFF90
1FFFFFC2FFFF90
1FFFFFC2FFFF90
1FFFFFD8FFFF90
0FFFFFFFFFFF90
0CFFFFFFFFFF50
03FFFFFFFFFB00
002AEFFFFD7000
ENDCHAR
STARTCHAR tcaron
ENCODING 357
SWIDTH 578 0
DWIDTH 12 0
BBX 13 14 -1 0
BITMAP
00015666530000
007EB88888B300
07FFB76177EE20
0EFFFFC2A2DF70
1FFFFFC2D2EF90
1FFFFFC2F9FF90
1FFFFFC2FFFF90
1FFFFFC2FFFF90
1FFFFFC2FFFF90
1FFFFFD8FFFF90
0FFFFFFFFFFF90
0CFFFFFFFFFF50
03FFFFFFFFFB00
002AEFFFFD7000
ENDCHAR
STARTCHAR Tbar
ENCODING 358
SWIDTH 578 0
DWIDTH 12 0
BBX 13 14 -1 0
BITMAP
00015666530000
007EB88888B300
07FFB76177EE20
0EFFFFC2FFFF70
1FFFFFC2FFFF90
1FFFF9314EFF90
1FFFFEA2DFFF90
1FFFFFC2FFFF90
1FFFFFC2FFFF90
1FFFFFD8FFFF90
0FFFFFFFFFFF90
0CFFFFFFFFFF50
03FFFFFFFFFB00
002AEFFFFD7000
ENDCHAR
STARTCHAR tbar
ENCODING 359
SWIDTH 578 0
DWIDTH 12 0
BBX 13 14 -1 0
BITMAP
00015666530000
007EB88888B300
07FFB76177EE20
0EFFFFC2FFFF70
1FFFFFC2FFFF90
1FFFF9314EFF90
1FFFFEA2DFFF90
1FFFFFC2FFFF90
1FFFFFC2FFFF90
1FFFFFD8FFFF90
0FFFFFFFFFFF90
0CFFFFFFFFFF50
03FFFFFFFFFB00
002AEFFFFD7000
ENDCHAR
STARTCHAR Utilde
ENCODING 360
SWIDTH 578 0
DWIDTH 12 0
BBX 13 20 -1 0
BITMAP
00000256400000
00008FFFFD4000
0007FFFFFFE200
000EFFFFFFF700
000FF87C6CF900
000CF4B53EF500
0005FFFFFFC000
007E8EFFF9A300
07FF2DFFF3CE20
0EFF2DFFF3CF70
1FFF2DFFF3CF90
1FFF2DFFF3CF90
1FFF2DFFF3CF90
1FFF2DFFF3CF90
1FFF368881DF90
1FFFD7667AFF90
0FFFFFFFFFFF90
0CFFFFFFFFFF50
03FFFFFFFFFB00
002AEFFFFD7000
ENDCHAR
STARTCHAR utilde
ENCODING 361
SWIDTH 578 0
DWIDTH 12 0
BBX 13 20 -1 0
BITMAP
00000256400000
00008FFFFD4000
0007FFFFFFE200
000EFFFFFFF800
000FF87C7CF900
000CF4B53DF600
0005FFFFFFC000
007E8EFFF9A300
07FF2DFFF3CE20
0EFF2DFFF3CF70
1FFF2DFFF3CF90
1FFF2DFFF3CF90
1FFF2DFFF3CF90
1FFF2DFFF3CF90
1FFF368881DF90
1FFFD7667AFF90
0FFFFFFFFFFF90
0CFFFFFFFFFF50
03FFFFFFFFFB00
002AEFFFFD7000
ENDCHAR
STARTCHAR Umacron
ENCODING 362
SWIDTH 578 0
DWIDTH 12 0
BBX 13 19 -1 0
BITMAP
000028BCA60000
0004FFFFFFC100
000DFEEEEFF700
000FF5111FF900
000BFFFFFFF500
0003FFFFFF8000
007E8EFFF9A300
07FF2DFFF3CE20
0EFF2DFFF3CF70
1FFF2DFFF3CF90
1FFF2DFFF3CF90
1FFF2DFFF3CF90
1FFF2DFFF3CF90
1FFF368881DF90
1FFFD7667AFF90
0FFFFFFFFFFF90
0CFFFFFFFFFF50
03FFFFFFFFFB00
002AEFFFFD7000
ENDCHAR
STARTCHAR umacron
ENCODING 363
SWIDTH 578 0
DWIDTH 12 0
BBX 13 19 -1 0
BITMAP
000028BCA60000
0004FFFFFFC100
000DFEEEEFF700
000FF5111FF900
000BFFFFFFF500
0003FFFFFF8000
007E8EFFF9A300
07FF2DFFF3CE20
0EFF2DFFF3CF70
1FFF2DFFF3CF90
1FFF2DFFF3CF90
1FFF2DFFF3CF90
1FFF2DFFF3CF90
1FFF368881DF90
1FFFD7667AFF90
0FFFFFFFFFFF90
0CFFFFFFFFFF50
03FFFFFFFFFB00
002AEFFFFD7000
ENDCHAR
STARTCHAR Ubreve
ENCODING 364
SWIDTH 578 0
DWIDTH 12 0
BBX 13 19 -1 0
BITMAP
000028BCA60000
0004FFFFFFC100
000DFFFFFFF700
000FF97D3EF900
000BFE548FF500
0003FFFFFF8000
007E8EFFF9A300
07FF2DFFF3CE20
0EFF2DFFF3CF70
1FFF2DFFF3CF90
1FFF2DFFF3CF90
1FFF2DFFF3CF90
1FFF2DFFF3CF90
1FFF368881DF90
1FFFD7667AFF90
0FFFFFFFFFFF90
0CFFFFFFFFFF50
03FFFFFFFFFB00
002AEFFFFD7000
ENDCHAR
STARTCHAR ubreve
ENCODING 365
SWIDTH 578 0
DWIDTH 12 0
BBX 13 19 -1 0
BITMAP
000028BCA60000
0004FFFFFFC100
000DFFFFFFF700
000FF97D3EF900
000BFE548FF500
0003FFFFFF8000
007E8EFFF9A300
07FF2DFFF3CE20
0EFF2DFFF3CF70
1FFF2DFFF3CF90
1FFF2DFFF3CF90
1FFF2DFFF3CF90
1FFF2DFFF3CF90
1FFF368881DF90
1FFFD7667AFF90
0FFFFFFFFFFF90
0CFFFFFFFFFF50
03FFFFFFFFFB00
002AEFFFFD7000
ENDCHAR
STARTCHAR Uring
ENCODING 366
SWIDTH 578 0
DWIDTH 12 0
BBX 13 20 -1 0
BITMAP
00000023000000
00002CFFE60000
0001DFA9DF4000
0006F9694FB000
0008F89D3FD000
0006FE65BFB000
0002FFFFFF5000
007E8EFFF9A300
07FF2DFFF3CE20
0EFF2DFFF3CF70
1FFF2DFFF3CF90
1FFF2DFFF3CF90
1FFF2DFFF3CF90
1FFF2DFFF3CF90
1FFF368881DF90
1FFFD7667AFF90
0FFFFFFFFFFF90
0CFFFFFFFFFF50
03FFFFFFFFFB00
002AEFFFFD7000
ENDCHAR
STARTCHAR uring
ENCODING 367
SWIDTH 578 0
DWIDTH 12 0
BBX 13 20 -1 0
BITMAP
00000023000000
00002CFFE60000
0001DFA9DF4000
0006F9694FC000
0008F89D3FD000
0006FE65BFB000
0002FFFFFF5000
007E8EFFF9A300
07FF2DFFF3CE20
0EFF2DFFF3CF70
1FFF2DFFF3CF90
1FFF2DFFF3CF90
1FFF2DFFF3CF90
1FFF2DFFF3CF90
1FFF368881DF90
1FFFD7667AFF90
0FFFFFFFFFFF90
0CFFFFFFFFFF50
03FFFFFFFFFB00
002AEFFFFD7000
ENDCHAR
STARTCHAR Uhungarumlaut
ENCODING 368
SWIDTH 581 0
DWIDTH 12 0
BBX 13 19 -1 0
BITMAP
0000005CDBE500
000001EFFFFD00
000009F99C5F60
00002FE5F5EF40
0000AF8DBAF900
0001FFFFFFD100
007EDFFFFFE300
07FF2DFFF3CE20
0EFF2DFFF3CF70
1FFF2DFFF3CF90
1FFF2DFFF3CF90
1FFF2DFFF3CF90
1FFF2DFFF3CF90
1FFF368881DF90
1FFFD7667AFF90
0FFFFFFFFFFF90
0CFFFFFFFFFF50
03FFFFFFFFFB00
002AEFFFFD7000
ENDCHAR
STARTCHAR uhungarumlaut
ENCODING 369
SWIDTH 582 0
DWIDTH 12 0
BBX 13 19 -1 0
BITMAP
0000004CDBE600
000001EFFFFD00
000008F99D5F70
00002FE5F6EF50
00009F8DCAFA00
0001FFFFFFE100
007EDFFFFFE300
07FF2DFFF3CE20
0EFF2DFFF3CF70
1FFF2DFFF3CF90
1FFF2DFFF3CF90
1FFF2DFFF3CF90
1FFF2DFFF3CF90
1FFF368881DF90
1FFFD7667AFF90
0FFFFFFFFFFF90
0CFFFFFFFFFF50
03FFFFFFFFFB00
002AEFFFFD7000
ENDCHAR
STARTCHAR Uogonek
ENCODING 370
SWIDTH 578 0
DWIDTH 12 0
BBX 13 14 -1 0
BITMAP
00015666530000
007E8EFFF9A300
07FF2DFFF3CE20
0EFF2DFFF3CF70
1FFF2DFFF3CF90
1FFF2DFFF3CF90
1FFF2DFFF3CF90
1FFF2DFFF3CF90
1FFF368881DF90
1FFFD7625AFF90
0FFFFF87FFFF90
0CFFFF59EFFF50
03FFFFC5BFFB00
002AEFFFFD7000
ENDCHAR
STARTCHAR uogonek
ENCODING 371
SWIDTH 578 0
DWIDTH 12 0
BBX 13 14 -1 0
BITMAP
00015666530000
007E8EFFF9A300
07FF2DFFF3CE20
0EFF2DFFF3CF70
1FFF2DFFF3CF90
1FFF2DFFF3CF90
1FFF2DFFF3CF90
1FFF2DFFF3CF90
1FFF368881DF90
1FFFD7625AFF90
0FFFFF87FFFF90
0CFFFF59EFFF50
03FFFFC5BFFB00
002AEFFFFD7000
ENDCHAR
STARTCHAR Wcircumflex
ENCODING 372
SWIDTH 578 0
DWIDTH 12 0
BBX 13 20 -1 0
BITMAP
00000011000000
00000AFFA00000
00005FDDF50000
0000CF66FC0000
0003FD66DF3000
0007F8BB8F7000
0009FFFFFF8000
007CFFFFFF8300
07F3AF75FB2E20
0EF58F43F94F70
1FF77F11F86F90
1FF85E13D77F90
1FFA4B45A59F90
1FFC396774BF90
1FFD148A31CF90
1FFFA7EF89FF90
0FFFFFFFFFFF90
0CFFFFFFFFFF50
03FFFFFFFFFB00
002AEFFFFD7000
ENDCHAR
STARTCHAR wcircumflex
ENCODING 373
SWIDTH 578 0
DWIDTH 12 0
BBX 13 20 -1 0
BITMAP
00000011000000
00000AFFA00000
00005FDDF50000
0000CF66FC0000
0003FD66DF3000
0007F8BB8F7000
0009FFFFFF8000
007CFFFFFF8300
07F3AF75FB2E20
0EF58F43F94F70
1FF77F11F86F90
1FF85E13D77F90
1FFA4B45A59F90
1FFC396774BF90
1FFD148A31CF90
1FFFA7EF89FF90
0FFFFFFFFFFF90
0CFFFFFFFFFF50
03FFFFFFFFFB00
002AEFFFFD7000
ENDCHAR
STARTCHAR Ycircumflex
ENCODING 374
SWIDTH 578 0
DWIDTH 12 0
BBX 13 20 -1 0
BITMAP
00000012000000
000007FFC10000
00002FEDF80000
00009F74FE1000
0000EF59AF6000
0004FB8E5FA000
0006FFFFFFB000
007FFFFFFFF300
07FFA2FF93FE20
0EFFF2BF3AFF70
1FFFF85C1FFF90
1FFFFE147FFF90
1FFFFF60EFFF90
1FFFFFA4FFFF90
1FFFFFB4FFFF90
1FFFFFC9FFFF90
0FFFFFFFFFFF90
0CFFFFFFFFFF50
03FFFFFFFFFB00
002AEFFFFD7000
ENDCHAR
STARTCHAR ycircumflex
ENCODING 375
SWIDTH 578 0
DWIDTH 12 0
BBX 13 20 -1 0
BITMAP
00000012000000
000007FFC10000
00002FEDF80000
00009F74FE1000
0000EF59AF6000
0004FB8E5FA000
0006FFFFFFB000
007FFFFFFFF300
07FFA2FF93FE20
0EFFF2BF3AFF70
1FFFF85C1FFF90
1FFFFE147FFF90
1FFFFF60EFFF90
1FFFFFA4FFFF90
1FFFFFB4FFFF90
1FFFFFC9FFFF90
0FFFFFFFFFFF90
0CFFFFFFFFFF50
03FFFFFFFFFB00
002AEFFFFD7000
ENDCHAR
STARTCHAR Ydieresis
ENCODING 376
SWIDTH 578 0
DWIDTH 12 0
BBX 13 18 -1 0
BITMAP
000017AB930000
0001DFFFFF6000
0008FCDEBFF100
000AF47C0EF200
0006FFFFFFC000
007FFFFFFFD300
07FFA2FF93FE20
0EFFF2BF3AFF70
1FFFF85C1FFF90
1FFFFE147FFF90
1FFFFF60EFFF90
1FFFFFA4FFFF90
1FFFFFB4FFFF90
1FFFFFC9FFFF90
0FFFFFFFFFFF90
0CFFFFFFFFFF50
03FFFFFFFFFB00
002AEFFFFD7000
ENDCHAR
STARTCHAR Zacute
ENCODING 377
SWIDTH 578 0
DWIDTH 12 0
BBX 13 20 -1 0
BITMAP
0000039A820000
00000EFFFE1000
00004FC2FF3000
00009F88FD0000
0000DF4EF50000
0000DFDFB00000
00018FFF830000
007EE8888EC300
07FFE7770BFE20
0EFFFFF93FFF70
1FFFFFE1CFFF90
1FFFFF75FFFF90
1FFFFD1DFFFF90
1FFFF67FFFFF90
1FFFD0788BFF90
1FFFE66669FF90
0FFFFFFFFFFF90
0CFFFFFFFFFF50
03FFFFFFFFFB00
002AEFFFFD7000
ENDCHAR
STARTCHAR zacute
ENCODING 378
SWIDTH 578 0
DWIDTH 12 0
BBX 13 20 -1 0
BITMAP
0000039A820000
00000EFFFE1000
00004FC2FF3000
00009F88FD0000
0000DF4EF50000
0000DFDFB00000
00018FFF830000
007EE8888EC300
07FFE7770BFE20
0EFFFFF93FFF70
1FFFFFE1CFFF90
1FFFFF75FFFF90
1FFFFD1DFFFF90
1FFFF67FFFFF90
1FFFD0788BFF90
1FFFE66669FF90
0FFFFFFFFFFF90
0CFFFFFFFFFF50
03FFFFFFFFFB00
002AEFFFFD7000
ENDCHAR
STARTCHAR Zdotaccent
ENCODING 379
SWIDTH 578 0
DWIDTH 12 0
BBX 13 19 -1 0
BITMAP
00005ACB920000
000BFFFFFF5000
006FFFEEFFE000
008FFF29FFF100
005FFFDEFFD000
000CFFFFFF6000
007EE8888EC300
07FFE7770BFE20
0EFFFFF93FFF70
1FFFFFE1CFFF90
1FFFFF75FFFF90
1FFFFD1DFFFF90
1FFFF67FFFFF90
1FFFD0788BFF90
1FFFE66669FF90
0FFFFFFFFFFF90
0CFFFFFFFFFF50
03FFFFFFFFFB00
002AEFFFFD7000
ENDCHAR
STARTCHAR zdotaccent
ENCODING 380
SWIDTH 578 0
DWIDTH 12 0
BBX 13 19 -1 0
BITMAP
00005ACB920000
000BFFFFFF5000
006FFFEEFFE000
008FFF29FFF100
005FFFDEFFD000
000CFFFFFF6000
007EE8888EC300
07FFE7770BFE20
0EFFFFF93FFF70
1FFFFFE1CFFF90
1FFFFF75FFFF90
1FFFFD1DFFFF90
1FFFF67FFFFF90
1FFFD0788BFF90
1FFFE66669FF90
0FFFFFFFFFFF90
0CFFFFFFFFFF50
03FFFFFFFFFB00
002AEFFFFD7000
ENDCHAR
STARTCHAR Zcaron
ENCODING 381
SWIDTH 578 0
DWIDTH 12 0
BBX 13 19 -1 0
BITMAP
00005844850000
0006FFFFFF5000
0009F7DC9F8000
0007FB87DF6000
0003FF55FF2000
0001FFFFFF0000
007EFFFFFFC300
07FFE7770BFE20
0EFFFFF93FFF70
1FFFFFE1CFFF90
1FFFFF75FFFF90
1FFFFD1DFFFF90
1FFFF67FFFFF90
1FFFD0788BFF90
1FFFE66669FF90
0FFFFFFFFFFF90
0CFFFFFFFFFF50
03FFFFFFFFFB00
002AEFFFFD7000
ENDCHAR
STARTCHAR zcaron
ENCODING 382
SWIDTH 578 0
DWIDTH 12 0
BBX 13 19 -1 0
BITMAP
00005844850000
0006FFFFFF5000
0009F7DC9F8000
0007FB87DF6000
0003FF55FF2000
0001FFFFFF0000
007EFFFFFFC300
07FFE7770BFE20
0EFFFFF93FFF70
1FFFFFE1CFFF90
1FFFFF75FFFF90
1FFFFD1DFFFF90
1FFFF67FFFFF90
1FFFD0788BFF90
1FFFE66669FF90
0FFFFFFFFFFF90
0CFFFFFFFFFF50
03FFFFFFFFFB00
002AEFFFFD7000
ENDCHAR
STARTCHAR longs
ENCODING 383
SWIDTH 578 0
DWIDTH 12 0
BBX 13 14 -1 0
BITMAP
00015666530000
007EFFFFFFC300
07FFF7336EFE20
0EFF79FFB5FF70
1FFF4FFFF5EF90
1FFF4FB9F6EF90
1FFF5DB9E4FF90
1FFFD6B97DFF90
1FFFFFB9FFFF90
1FFFFFFFFFFF90
0FFFFFFFFFFF90
0CFFFFFFFFFF50
03FFFFFFFFFB00
002AEFFFFD7000
ENDCHAR
STARTCHAR florin
ENCODING 402
SWIDTH 578 0
DWIDTH 12 0
BBX 13 14 -1 0
BITMAP
00015666530000
007EFFD89FC300
07FFFE279FFE20
0EFFFD1FFFFF70
1FFFFD1FFFFF90
1FFFE202CFFF90
1FFFFD1FFFFF90
1FFFFD1FFFFF90
1FFFFD1FFFFF90
1FFFFD1FFFFF90
0FFFB83FFFFF90
0CFFB8EFFFFF50
03FFFFFFFFFB00
002AEFFFFD7000
ENDCHAR
STARTCHAR uni01CD
ENCODING 461
SWIDTH 578 0
DWIDTH 12 0
BBX 13 19 -1 0
BITMAP
00004753860000
0004FFFFFF8000
0007FABE7FA000
0004FE69AF8000
0001FF65FF5000
0001FFFFFF1000
007EFFFFFFC300
07FFB26737FE20
0EFF86FF95FF70
1FFF78FFA4FF90
1FFF56AA82FF90
1FFF346660FF90
1FFF2CFFF0EF90
1FFF0DFFF1CF90
1FFE6EFFF8DF90
0FFFFFFFFFFF90
0CFFFFFFFFFF50
03FFFFFFFFFB00
002AEFFFFD7000
ENDCHAR
STARTCHAR uni01CE
ENCODING 462
SWIDTH 578 0
DWIDTH 12 0
BBX 13 19 -1 0
BITMAP
00002762771000
0002EFFFFFA000
0004FC9F5FD000
0001FF4C7FB000
0000DF75DF7000
0001CFFFFF3000
007EEFFFFFC300
07FFB77738FE20
0EFFFFFF88FF70
1FFFFFFF88FF90
1FFFA55538FF90
1FFE09AA58FF90
1FFD1FFF88FF90
1FFE078848FF90
1FFFB7668BFF90
0FFFFFFFFFFF90
0CFFFFFFFFFF50
03FFFFFFFFFB00
002AEFFFFD7000
ENDCHAR
STARTCHAR uni01CF
ENCODING 463
SWIDTH 578 0
DWIDTH 12 0
BBX 13 19 -1 0
BITMAP
00002772771000
0001EFFFFFC000
0002FD7F6FF000
0000FF4D6FD000
0000BF95CF9000
0001BFFEFF4000
007EDFFFFFB300
07FFB76177EE20
0EFFFFC2FFFF70
1FFFFFC2FFFF90
1FFFFFC2FFFF90
1FFFFFC2FFFF90
1FFFFFC2FFFF90
1FFFC87188EF90
1FFFB66666EF90
0FFFFFFFFFFF90
0CFFFFFFFFFF50
03FFFFFFFFFB00
002AEFFFFD7000
ENDCHAR
STARTCHAR uni01D0
ENCODING 464
SWIDTH 578 0
DWIDTH 12 0
BBX 13 19 -1 0
BITMAP
00002772771000
0001EFFFFFB000
0003FC8F6FE000
0001FF4D7FC000
0000CF85DF8000
0001CFFFFF3000
007EDFFFFFB300
07FFB76177EE20
0EFFFFC2FFFF70
1FFFFFC2FFFF90
1FFFFFC2FFFF90
1FFFFFC2FFFF90
1FFFFFC2FFFF90
1FFFC87188EF90
1FFFB66666EF90
0FFFFFFFFFFF90
0CFFFFFFFFFF50
03FFFFFFFFFB00
002AEFFFFD7000
ENDCHAR
STARTCHAR uni01D1
ENCODING 465
SWIDTH 578 0
DWIDTH 12 0
BBX 13 19 -1 0
BITMAP
00003763771000
0002FFFFFFA000
0005FB9F6FC000
0002FF5B8FB000
0000DF75EF7000
0001DFFFFF2000
007EFFFFFFC300
07FF457771CE20
0EFF3CFFF4BF70
1FFF3CFFF4BF90
1FFF3CFFF4BF90
1FFF3CFFF4BF90
1FFF3CFFF4BF90
1FFF458881CF90
1FFFD76679FF90
0FFFFFFFFFFF90
0CFFFFFFFFFF50
03FFFFFFFFFB00
002AEFFFFD7000
ENDCHAR
STARTCHAR uni01D3
ENCODING 467
SWIDTH 578 0
DWIDTH 12 0
BBX 13 19 -1 0
BITMAP
00002772771000
0001EFFFFFB000
0004FC8F5FD000
0001FF4C7FB000
0000CF85DF8000
0001CFFFFF3000
007EAFFFFFA300
07FF2DFFF3CE20
0EFF2DFFF3CF70
1FFF2DFFF3CF90
1FFF2DFFF3CF90
1FFF2DFFF3CF90
1FFF2DFFF3CF90
1FFF368881DF90
1FFFD7667AFF90
0FFFFFFFFFFF90
0CFFFFFFFFFF50
03FFFFFFFFFB00
002AEFFFFD7000
ENDCHAR
STARTCHAR uni01D4
ENCODING 468
SWIDTH 578 0
DWIDTH 12 0
BBX 13 19 -1 0
BITMAP
00002772771000
0001EFFFFFB000
0003FC8F6FE000
0001FF4D7FC000
0000CF85DF8000
0001CFFFFF3000
007EAFFFFFA300
07FF2DFFF3CE20
0EFF2DFFF3CF70
1FFF2DFFF3CF90
1FFF2DFFF3CF90
1FFF2DFFF3CF90
1FFF2DFFF3CF90
1FFF368881DF90
1FFFD7667AFF90
0FFFFFFFFFFF90
0CFFFFFFFFFF50
03FFFFFFFFFB00
002AEFFFFD7000
ENDCHAR
STARTCHAR uni0200
ENCODING 512
SWIDTH 578 0
DWIDTH 12 0
BBX 13 19 -1 0
BITMAP
000CDCD9100000
006FFFFF800000
01DC5E4EF20000
00CF7CB8F90000
002FF6F7EF2000
0008FFFFFF4000
007FFFFFFFD300
07FFB26737FE20
0EFF86FF95FF70
1FFF78FFA4FF90
1FFF56AA82FF90
1FFF346660FF90
1FFF2CFFF0EF90
1FFF0DFFF1CF90
1FFE6EFFF8DF90
0FFFFFFFFFFF90
0CFFFFFFFFFF50
03FFFFFFFFFB00
002AEFFFFD7000
ENDCHAR
STARTCHAR uni0201
ENCODING 513
SWIDTH 578 0
DWIDTH 12 0
BBX 13 19 -1 0
BITMAP
000CDCD9100000
006FFFFF800000
01DC5E4EF20000
00CF7CB8F90000
002FF6F7EF2000
0008FFFFFF4000
007FFFFFFFD300
07FFB77738FE20
0EFFFFFF88FF70
1FFFFFFF88FF90
1FFFA55538FF90
1FFE09AA58FF90
1FFD1FFF88FF90
1FFE078848FF90
1FFFB7668BFF90
0FFFFFFFFFFF90
0CFFFFFFFFFF50
03FFFFFFFFFB00
002AEFFFFD7000
ENDCHAR
STARTCHAR uni0202
ENCODING 514
SWIDTH 578 0
DWIDTH 12 0
BBX 13 19 -1 0
BITMAP
00000477510000
0003DFFFFE5000
000EFFFFFFF200
003FFB329FF600
001FF7BE5FF400
0008FFFFFFA000
007EFFCCEFC300
07FFB26737FE20
0EFF86FF95FF70
1FFF78FFA4FF90
1FFF56AA82FF90
1FFF346660FF90
1FFF2CFFF0EF90
1FFF0DFFF1CF90
1FFE6EFFF8DF90
0FFFFFFFFFFF90
0CFFFFFFFFFF50
03FFFFFFFFFB00
002AEFFFFD7000
ENDCHAR
STARTCHAR uni0203
ENCODING 515
SWIDTH 578 0
DWIDTH 12 0
BBX 13 19 -1 0
BITMAP
00000477510000
0003DFFFFE5000
000EFFFFFFF200
003FFB329FF600
001FF7BE5FF400
0008FFFFFFA000
007EFCCCDFC300
07FFB77738FE20
0EFFFFFF88FF70
1FFFFFFF88FF90
1FFFA55538FF90
1FFE09AA58FF90
1FFD1FFF88FF90
1FFE078848FF90
1FFFB7668BFF90
0FFFFFFFFFFF90
0CFFFFFFFFFF50
03FFFFFFFFFB00
002AEFFFFD7000
ENDCHAR
STARTCHAR uni0204
ENCODING 516
SWIDTH 578 0
DWIDTH 12 0
BBX 13 19 -1 0
BITMAP
000CDCD9100000
006FFFFF800000
01DC5E4EF20000
00CF7CB8F90000
002FF6F7EF2000
0008FFFFFF4000
007FFFFFFFD300
07FFE07779FE20
0EFFE1FFFFFF70
1FFFE1FFFFFF90
1FFFE0000CFF90
1FFFE1EEEFFF90
1FFFE1FFFFFF90
1FFFE08889FF90
1FFFE66668FF90
0FFFFFFFFFFF90
0CFFFFFFFFFF50
03FFFFFFFFFB00
002AEFFFFD7000
ENDCHAR
STARTCHAR uni0205
ENCODING 517
SWIDTH 578 0
DWIDTH 12 0
BBX 13 19 -1 0
BITMAP
000CDCD9100000
006FFFFF800000
01DC5E4EF20000
00CF7CB8F90000
002FF6F7EF2000
0008FFFFFF4000
007FFFFFFFD300
07FF167738FE20
0EFE0FFF87FF70
1FFE088847FF90
1FFE07777BFF90
1FFE0FFFFFFF90
1FFE0FFFFFFF90
1FFF32332DFF90
1FFFEBBBCEFF90
0FFFFFFFFFFF90
0CFFFFFFFFFF50
03FFFFFFFFFB00
002AEFFFFD7000
ENDCHAR
STARTCHAR uni0206
ENCODING 518
SWIDTH 578 0
DWIDTH 12 0
BBX 13 19 -1 0
BITMAP
00000477510000
0003DFFFFE5000
000EFFFFFFF200
003FFB329FF600
001FF7BE5FF400
0008FFFFFFA000
007EFCCCCEC300
07FFE07779FE20
0EFFE1FFFFFF70
1FFFE1FFFFFF90
1FFFE0000CFF90
1FFFE1EEEFFF90
1FFFE1FFFFFF90
1FFFE08889FF90
1FFFE66668FF90
0FFFFFFFFFFF90
0CFFFFFFFFFF50
03FFFFFFFFFB00
002AEFFFFD7000
ENDCHAR
STARTCHAR uni0207
ENCODING 519
SWIDTH 578 0
DWIDTH 12 0
BBX 13 19 -1 0
BITMAP
00000477510000
0003DFFFFE5000
000EFFFFFFF200
003FFB329FF600
001FF7BE5FF400
0008FFFFFFA000
007EFCCCDFC300
07FF167738FE20
0EFE0FFF87FF70
1FFE088847FF90
1FFE07777BFF90
1FFE0FFFFFFF90
1FFE0FFFFFFF90
1FFF32332DFF90
1FFFEBBBCEFF90
0FFFFFFFFFFF90
0CFFFFFFFFFF50
03FFFFFFFFFB00
002AEFFFFD7000
ENDCHAR
STARTCHAR uni0208
ENCODING 520
SWIDTH 578 0
DWIDTH 12 0
BBX 13 19 -1 0
BITMAP
000CDCD9100000
006FFFFF800000
01DC5E4EF20000
00CF7CB8F90000
002FF6F7EF2000
0008FFFFFF4000
007FFFFFFFC300
07FFB76177EE20
0EFFFFC2FFFF70
1FFFFFC2FFFF90
1FFFFFC2FFFF90
1FFFFFC2FFFF90
1FFFFFC2FFFF90
1FFFC87188EF90
1FFFB66666EF90
0FFFFFFFFFFF90
0CFFFFFFFFFF50
03FFFFFFFFFB00
002AEFFFFD7000
ENDCHAR
STARTCHAR uni0209
ENCODING 521
SWIDTH 578 0
DWIDTH 12 0
BBX 13 19 -1 0
BITMAP
000CDCD9100000
006FFFFF800000
01DC5E4EF20000
00CF7CB8F90000
002FF6F7EF2000
0008FFFFFF4000
007FFFFFFFC300
07FFB76177EE20
0EFFFFC2FFFF70
1FFFFFC2FFFF90
1FFFFFC2FFFF90
1FFFFFC2FFFF90
1FFFFFC2FFFF90
1FFFC87188EF90
1FFFB66666EF90
0FFFFFFFFFFF90
0CFFFFFFFFFF50
03FFFFFFFFFB00
002AEFFFFD7000
ENDCHAR
STARTCHAR uni020A
ENCODING 522
SWIDTH 578 0
DWIDTH 12 0
BBX 13 19 -1 0
BITMAP
00000477510000
0003DFFFFE5000
000EFFFFFFF200
003FFB329FF600
001FF7BE5FF400
0008FFFFFFA000
007EFCCCCCB300
07FFB76177EE20
0EFFFFC2FFFF70
1FFFFFC2FFFF90
1FFFFFC2FFFF90
1FFFFFC2FFFF90
1FFFFFC2FFFF90
1FFFC87188EF90
1FFFB66666EF90
0FFFFFFFFFFF90
0CFFFFFFFFFF50
03FFFFFFFFFB00
002AEFFFFD7000
ENDCHAR
STARTCHAR uni020B
ENCODING 523
SWIDTH 578 0
DWIDTH 12 0
BBX 13 19 -1 0
BITMAP
00000477510000
0003DFFFFE5000
000EFFFFFFF200
003FFB329FF600
001FF7BE5FF400
0008FFFFFFA000
007EFCCCCCB300
07FFB76177EE20
0EFFFFC2FFFF70
1FFFFFC2FFFF90
1FFFFFC2FFFF90
1FFFFFC2FFFF90
1FFFFFC2FFFF90
1FFFC87188EF90
1FFFB66666EF90
0FFFFFFFFFFF90
0CFFFFFFFFFF50
03FFFFFFFFFB00
002AEFFFFD7000
ENDCHAR
STARTCHAR uni020C
ENCODING 524
SWIDTH 578 0
DWIDTH 12 0
BBX 13 19 -1 0
BITMAP
000CDCD9100000
006FFFFF800000
01DC5E4EF20000
00CF7CB8F90000
002FF6F7EF2000
0008FFFFFF4000
007FFFFFFFD300
07FF457771CE20
0EFF3CFFF4BF70
1FFF3CFFF4BF90
1FFF3CFFF4BF90
1FFF3CFFF4BF90
1FFF3CFFF4BF90
1FFF458881CF90
1FFFD76679FF90
0FFFFFFFFFFF90
0CFFFFFFFFFF50
03FFFFFFFFFB00
002AEFFFFD7000
ENDCHAR
STARTCHAR uni020D
ENCODING 525
SWIDTH 578 0
DWIDTH 12 0
BBX 13 19 -1 0
BITMAP
000CDCD9100000
006FFFFF800000
01DC5E4EF20000
00CF7CB8F90000
002FF6F7EF2000
0008FFFFFF4000
007FFFFFFFD300
07FF457771CE20
0EFF3CFFF4BF70
1FFF3CFFF4BF90
1FFF3CFFF4BF90
1FFF3CFFF4BF90
1FFF3CFFF4BF90
1FFF458881CF90
1FFFD76679FF90
0FFFFFFFFFFF90
0CFFFFFFFFFF50
03FFFFFFFFFB00
002AEFFFFD7000
ENDCHAR
STARTCHAR uni020E
ENCODING 526
SWIDTH 578 0
DWIDTH 12 0
BBX 13 19 -1 0
BITMAP
00000477510000
0003DFFFFE5000
000EFFFFFFF200
003FFB329FF600
001FF7BE5FF400
0008FFFFFFA000
007EFDCCCFC300
07FF457771CE20
0EFF3CFFF4BF70
1FFF3CFFF4BF90
1FFF3CFFF4BF90
1FFF3CFFF4BF90
1FFF3CFFF4BF90
1FFF458881CF90
1FFFD76679FF90
0FFFFFFFFFFF90
0CFFFFFFFFFF50
03FFFFFFFFFB00
002AEFFFFD7000
ENDCHAR
STARTCHAR uni020F
ENCODING 527
SWIDTH 578 0
DWIDTH 12 0
BBX 13 19 -1 0
BITMAP
00000477510000
0003DFFFFE5000
000EFFFFFFF200
003FFB329FF600
001FF7BE5FF400
0008FFFFFFA000
007EFDCCCFC300
07FF457771CE20
0EFF3CFFF4BF70
1FFF3CFFF4BF90
1FFF3CFFF4BF90
1FFF3CFFF4BF90
1FFF3CFFF4BF90
1FFF458881CF90
1FFFD76679FF90
0FFFFFFFFFFF90
0CFFFFFFFFFF50
03FFFFFFFFFB00
002AEFFFFD7000
ENDCHAR
STARTCHAR uni0210
ENCODING 528
SWIDTH 578 0
DWIDTH 12 0
BBX 13 19 -1 0
BITMAP
000CDCD9100000
006FFFFF800000
01DC5E4EF20000
00CF7CB8F90000
002FF6F7EF2000
0008FFFFFF4000
007FFFFFFFD300
07FF547737FE20
0EFF59FFA4FF70
1FFF59FFA5FF90
1FFF52444DFF90
1FFF56AA56FF90
1FFF59FFC3FF90
1FFF59FFC3FF90
1FFF9BFFD8FF90
0FFFFFFFFFFF90
0CFFFFFFFFFF50
03FFFFFFFFFB00
002AEFFFFD7000
ENDCHAR
STARTCHAR uni0211
ENCODING 529
SWIDTH 578 0
DWIDTH 12 0
BBX 13 19 -1 0
BITMAP
000CDCD9100000
006FFFFF800000
01DC5E4EF20000
00CF7CB8F90000
002FF6F7EF2000
0008FFFFFF4000
007FFFFFFFD300
07FF547737FE20
0EFF59FFA4FF70
1FFF59FFA5FF90
1FFF52444DFF90
1FFF56AA56FF90
1FFF59FFC3FF90
1FFF59FFC3FF90
1FFF9BFFD8FF90
0FFFFFFFFFFF90
0CFFFFFFFFFF50
03FFFFFFFFFB00
002AEFFFFD7000
ENDCHAR
STARTCHAR uni0212
ENCODING 530
SWIDTH 578 0
DWIDTH 12 0
BBX 13 19 -1 0
BITMAP
00000477510000
0003DFFFFE5000
000EFFFFFFF200
003FFB329FF600
001FF7BE5FF400
0008FFFFFFA000
007EDCCCDFC300
07FF547737FE20
0EFF59FFA4FF70
1FFF59FFA5FF90
1FFF52444DFF90
1FFF56AA56FF90
1FFF59FFC3FF90
1FFF59FFC3FF90
1FFF9BFFD8FF90
0FFFFFFFFFFF90
0CFFFFFFFFFF50
03FFFFFFFFFB00
002AEFFFFD7000
ENDCHAR
STARTCHAR uni0213
ENCODING 531
SWIDTH 578 0
DWIDTH 12 0
BBX 13 19 -1 0
BITMAP
00000477510000
0003DFFFFE5000
000EFFFFFFF200
003FFB329FF600
001FF7BE5FF400
0008FFFFFFA000
007EDCCCDFC300
07FF547737FE20
0EFF59FFA4FF70
1FFF59FFA5FF90
1FFF52444DFF90
1FFF56AA56FF90
1FFF59FFC3FF90
1FFF59FFC3FF90
1FFF9BFFD8FF90
0FFFFFFFFFFF90
0CFFFFFFFFFF50
03FFFFFFFFFB00
002AEFFFFD7000
ENDCHAR
STARTCHAR uni0214
ENCODING 532
SWIDTH 578 0
DWIDTH 12 0
BBX 13 19 -1 0
BITMAP
000CDCD9100000
006FFFFF800000
01DC5E4EF20000
00CF7CB8F90000
002FF6F7EF2000
0008FFFFFF4000
007FFFFFFFB300
07FF2DFFF3CE20
0EFF2DFFF3CF70
1FFF2DFFF3CF90
1FFF2DFFF3CF90
1FFF2DFFF3CF90
1FFF2DFFF3CF90
1FFF368881DF90
1FFFD7667AFF90
0FFFFFFFFFFF90
0CFFFFFFFFFF50
03FFFFFFFFFB00
002AEFFFFD7000
ENDCHAR
STARTCHAR uni0215
ENCODING 533
SWIDTH 578 0
DWIDTH 12 0
BBX 13 19 -1 0
BITMAP
000CDCD9100000
006FFFFF800000
01DC5E4EF20000
00CF7CB8F90000
002FF6F7EF2000
0008FFFFFF4000
007FFFFFFFB300
07FF2DFFF3CE20
0EFF2DFFF3CF70
1FFF2DFFF3CF90
1FFF2DFFF3CF90
1FFF2DFFF3CF90
1FFF2DFFF3CF90
1FFF368881DF90
1FFFD7667AFF90
0FFFFFFFFFFF90
0CFFFFFFFFFF50
03FFFFFFFFFB00
002AEFFFFD7000
ENDCHAR
STARTCHAR uni0216
ENCODING 534
SWIDTH 578 0
DWIDTH 12 0
BBX 13 19 -1 0
BITMAP
00000477510000
0003DFFFFE5000
000EFFFFFFF200
003FFB329FF600
001FF7BE5FF400
0008FFFFFFA000
007ECFFFFDB300
07FF2DFFF3CE20
0EFF2DFFF3CF70
1FFF2DFFF3CF90
1FFF2DFFF3CF90
1FFF2DFFF3CF90
1FFF2DFFF3CF90
1FFF368881DF90
1FFFD7667AFF90
0FFFFFFFFFFF90
0CFFFFFFFFFF50
03FFFFFFFFFB00
002AEFFFFD7000
ENDCHAR
STARTCHAR uni0217
ENCODING 535
SWIDTH 578 0
DWIDTH 12 0
BBX 13 19 -1 0
BITMAP
00000477510000
0003DFFFFE5000
000EFFFFFFF200
003FFB329FF600
001FF7BE5FF400
0008FFFFFFA000
007ECFFFFDB300
07FF2DFFF3CE20
0EFF2DFFF3CF70
1FFF2DFFF3CF90
1FFF2DFFF3CF90
1FFF2DFFF3CF90
1FFF2DFFF3CF90
1FFF368881DF90
1FFFD7667AFF90
0FFFFFFFFFFF90
0CFFFFFFFFFF50
03FFFFFFFFFB00
002AEFFFFD7000
ENDCHAR
STARTCHAR uni0218
ENCODING 536
SWIDTH 578 0
DWIDTH 12 0
BBX 13 14 -1 0
BITMAP
00015666530000
007EF9888AC300
07FF837778FE20
0EFF69FFFFFF70
1FFF67EEFFFF90
1FFFC20004FF90
1FFFFFFFF1DF90
1FFFFFFFF1DF90
1FFFE78870EF90
1FFFD7667BFF90
0FFFFF94FFFF90
0CFFFFB2FFFF50
03FFFFE9FFFB00
002AEFFFFD7000
ENDCHAR
STARTCHAR uni0219
ENCODING 537
SWIDTH 578 0
DWIDTH 12 0
BBX 13 14 -1 0
BITMAP
00015666530000
007EF9888AC300
07FF837778FE20
0EFF69FFFFFF70
1FFF67EEFFFF90
1FFFC20004FF90
1FFFFFFFF1DF90
1FFFFFFFF1DF90
1FFFE78870EF90
1FFFD7667BFF90
0FFFFF94FFFF90
0CFFFFB2FFFF50
03FFFFE9FFFB00
002AEFFFFD7000
ENDCHAR
STARTCHAR uni021A
ENCODING 538
SWIDTH 578 0
DWIDTH 12 0
BBX 13 14 -1 0
BITMAP
00015666530000
007EB88888B300
07FFB76177EE20
0EFFFFC2FFFF70
1FFFFFC2FFFF90
1FFFFFC2FFFF90
1FFFFFC2FFFF90
1FFFFFC2FFFF90
1FFFFFC2FFFF90
1FFFFFD8FFFF90
0FFFFFB5EFFF90
0CFFFFC1EFFF50
03FFFFF7FFFB00
002AEFFFFD7000
ENDCHAR
STARTCHAR uni021B
ENCODING 539
SWIDTH 578 0
DWIDTH 12 0
BBX 13 14 -1 0
BITMAP
00015666530000
007EB88888B300
07FFB76177EE20
0EFFFFC2FFFF70
1FFFFFC2FFFF90
1FFFFFC2FFFF90
1FFFFFC2FFFF90
1FFFFFC2FFFF90
1FFFFFC2FFFF90
1FFFFFD8FFFF90
0FFFFFB5EFFF90
0CFFFFC1EFFF50
03FFFFF7FFFB00
002AEFFFFD7000
ENDCHAR
STARTCHAR circumflex
ENCODING 710
SWIDTH 355 0
DWIDTH 7 0
BBX 8 8 0 0
BITMAP
00020000
03EFE400
0CFCFD00
3FD3BF50
9F7C5FB0
EF4F5EF1
FFEFEFF1
69999960
ENDCHAR
STARTCHAR caron
ENCODING 711
SWIDTH 355 0
DWIDTH 7 0
BBX 8 7 0 0
BITMAP
16727720
CFFFFFE0
FF6F7EF2
DF6E5FF0
9FB59FB0
4FF8EF70
09999910
ENDCHAR
STARTCHAR breve
ENCODING 728
SWIDTH 428 0
DWIDTH 9 0
BBX 9 6 0 0
BITMAP
028BCA6000
4FFFFFFC10
DFFFFFFF70
FF97D3EF90
BFE548FF50
2DFFFFF800
ENDCHAR
STARTCHAR dotaccent
ENCODING 729
SWIDTH 428 0
DWIDTH 9 0
BBX 9 6 0 0
BITMAP
028BCA6000
4FFFFFFC10
DFFEEFFF70
FFF92FFF80
CFFEDFFF60
5CCCCCCB00
ENDCHAR
STARTCHAR ring
ENCODING 730
SWIDTH 368 0
DWIDTH 7 0
BBX 8 7 0 0
BITMAP
00132000
07FFFB20
6FC9AFC0
EF3A4BF4
FF3D7AF6
DF957EF3
7FFFFFC0
ENDCHAR
STARTCHAR ogonek
ENCODING 731
SWIDTH 101 0
DWIDTH 2 0
BBX 3 4 0 -3
BITMAP
0100
8800
E000
BD10
ENDCHAR
STARTCHAR tilde
ENCODING 732
SWIDTH 428 0
DWIDTH 9 0
BBX 9 7 0 0
BITMAP
0025640000
08FFFFD400
7FFFFFFE20
EFFFFFFF70
FF87C6CF90
CF4B53EF50
4FFFFFFB00
ENDCHAR
STARTCHAR hungarumlaut
ENCODING 733
SWIDTH 419 0
DWIDTH 8 0
BBX 9 7 0 0
BITMAP
007DCCE200
04FFFFFA00
0CF6C99F30
5FC7E5FE20
DF6F8DF600
FFDFDFB000
7999992000
ENDCHAR
STARTCHAR uni030F
ENCODING 783
SWIDTH 419 0
DWIDTH 8 0
BBX 9 7 0 0
BITMAP
0ADBDA1000
4FFFFFA000
CE4F4DF300
AF9AD6FB00
1EF6F8DF40
05FEEFDF60
0079999910
ENDCHAR
STARTCHAR mu
ENCODING 956
SWIDTH 578 0
DWIDTH 12 0
BBX 13 14 -1 0
BITMAP
00015666530000
007E8EFFF9A300
07FF2DFFF3CE20
0EFF2DFFF3CF70
1FFF2DFFF3CF90
1FFF2DFFF3CF90
1FFF2DFFF3CF90
1FFF2DFFF3CF90
1FFF278881DF90
1FFF26667AFF90
0FFFCFFFFFFF90
0CFFFFFFFFFF50
03FFFFFFFFFB00
002AEFFFFD7000
ENDCHAR
STARTCHAR pi
ENCODING 960
SWIDTH 578 0
DWIDTH 12 0
BBX 13 14 -1 0
BITMAP
00015666530000
007EFB88BFC300
07FE48CC84DE20
0EF5D6556D4F70
1FA8F4FF4F9A90
1F7DF3CC3FE690
1F6DE2882FE690
1FAAD6FF5DA990
1FF4CAFFAC4E90
1FFD4AFFB4CF90
0FFFF9558EFF90
0CFFFFFFFFFF50
03FFFFFFFFFB00
002AEFFFFD7000
ENDCHAR
STARTCHAR uni1E60
ENCODING 7776
SWIDTH 578 0
DWIDTH 12 0
BBX 13 18 -1 0
BITMAP
000018BCA60000
0003EFFFFFD100
000CFFFDFFF800
000EFFB0FFFA00
000CFFFFFFF700
007FFFFFFFF400
07FF837778FE20
0EFF69FFFFFF70
1FFF67EEFFFF90
1FFFC20004FF90
1FFFFFFFF1DF90
1FFFFFFFF1DF90
1FFFE78870EF90
1FFFD7667BFF90
0FFFFFFFFFFF90
0CFFFFFFFFFF50
03FFFFFFFFFB00
002AEFFFFD7000
ENDCHAR
STARTCHAR uni1E8E
ENCODING 7822
SWIDTH 578 0
DWIDTH 12 0
BBX 13 18 -1 0
BITMAP
000028BCA50000
0004FFFFFFC000
000EFFEEFFF600
001FFF92FFF800
000EFFFFFFF500
007FFFFFFFF300
07FFA2FF93FE20
0EFFF2BF3AFF70
1FFFF85C1FFF90
1FFFFE147FFF90
1FFFFF60EFFF90
1FFFFFA4FFFF90
1FFFFFB4FFFF90
1FFFFFC9FFFF90
0FFFFFFFFFFF90
0CFFFFFFFFFF50
03FFFFFFFFFB00
002AEFFFFD7000
ENDCHAR
STARTCHAR uni1E8F
ENCODING 7823
SWIDTH 578 0
DWIDTH 12 0
BBX 13 18 -1 0
BITMAP
000028BCA50000
0004FFFFFFC000
000EFFEEFFF600
001FFF92FFF800
000EFFFFFFF500
007FFFFFFFF300
07FFA2FF93FE20
0EFFF2BF3AFF70
1FFFF85C1FFF90
1FFFFE147FFF90
1FFFFF60EFFF90
1FFFFFA4FFFF90
1FFFFFB4FFFF90
1FFFFFC9FFFF90
0FFFFFFFFFFF90
0CFFFFFFFFFF50
03FFFFFFFFFB00
002AEFFFFD7000
ENDCHAR
STARTCHAR uni1EBC
ENCODING 7868
SWIDTH 578 0
DWIDTH 12 0
BBX 13 20 -1 0
BITMAP
00000256400000
00008FFFFD4000
0007FFFFFFE200
000EFFFFFFF700
000FF87C6CF900
000CF4B53EF500
0005FFFFFFC000
007EE8888AC300
07FFE07779FE20
0EFFE1FFFFFF70
1FFFE1FFFFFF90
1FFFE0000CFF90
1FFFE1EEEFFF90
1FFFE1FFFFFF90
1FFFE08889FF90
1FFFE66668FF90
0FFFFFFFFFFF90
0CFFFFFFFFFF50
03FFFFFFFFFB00
002AEFFFFD7000
ENDCHAR
STARTCHAR uni1EF8
ENCODING 7928
SWIDTH 578 0
DWIDTH 12 0
BBX 13 20 -1 0
BITMAP
00000266400000
00009FFFFD3000
0008FFFFFFE200
000EFFFFFFF700
001FF77C6CF800
000DF4B53EF500
0005FFFFFFB000
007EABFFE8B300
07FFA2FF93FE20
0EFFF2BF3AFF70
1FFFF85C1FFF90
1FFFFE147FFF90
1FFFFF60EFFF90
1FFFFFA4FFFF90
1FFFFFB4FFFF90
1FFFFFC9FFFF90
0FFFFFFFFFFF90
0CFFFFFFFFFF50
03FFFFFFFFFB00
002AEFFFFD7000
ENDCHAR
STARTCHAR uni1EF9
ENCODING 7929
SWIDTH 578 0
DWIDTH 12 0
BBX 13 20 -1 0
BITMAP
00000266400000
00009FFFFD3000
0008FFFFFFE200
000EFFFFFFF700
001FF77C6CF800
000DF4B53EF500
0005FFFFFFB000
007EABFFE8B300
07FFA2FF93FE20
0EFFF2BF3AFF70
1FFFF85C1FFF90
1FFFFE147FFF90
1FFFFF60EFFF90
1FFFFFA4FFFF90
1FFFFFB4FFFF90
1FFFFFC9FFFF90
0FFFFFFFFFFF90
0CFFFFFFFFFF50
03FFFFFFFFFB00
002AEFFFFD7000
ENDCHAR
STARTCHAR endash
ENCODING 8211
SWIDTH 428 0
DWIDTH 9 0
BBX 10 14 -1 0
BITMAP
0001553000
007EFFFC30
07FFFFFFE2
0EFFFFFFF7
1FF7000DF9
1FFFFFFFF9
1FFFFFFFF9
1FFFFFFFF9
1FFFFFFFF9
1FFFFFFFF9
0FFFFFFFF9
0CFFFFFFF5
03FFFFFFB0
002AEFD700
ENDCHAR
STARTCHAR emdash
ENCODING 8212
SWIDTH 428 0
DWIDTH 9 0
BBX 10 14 -1 0
BITMAP
0001553000
007EFFFC30
07FFFFFFE1
0DFFFFFFF6
0000000000
1FFFFFFFF9
1FFFFFFFF9
1FFFFFFFF9
1FFFFFFFF9
1FFFFFFFF9
0FFFFFFFF9
0CFFFFFFF5
03FFFFFFB0
002AEFD700
ENDCHAR
STARTCHAR quoteleft
ENCODING 8216
SWIDTH 428 0
DWIDTH 9 0
BBX 10 14 -1 0
BITMAP
0001553000
007EFBFC30
07FFC4FFE2
0EFFA0DFF7
1FFFFFFFF9
1FFFFFFFF9
1FFFFFFFF9
1FFFFFFFF9
1FFFFFFFF9
1FFFFFFFF9
0FFFFFFFF9
0CFFFFFFF5
03FFFFFFB0
002AEFD700
ENDCHAR
STARTCHAR quoteright
ENCODING 8217
SWIDTH 428 0
DWIDTH 9 0
BBX 10 14 -1 0
BITMAP
0001553000
007EC8EC30
07FFB1DFE2
0EFFF5FFF7
1FFFFFFFF9
1FFFFFFFF9
1FFFFFFFF9
1FFFFFFFF9
1FFFFFFFF9
1FFFFFFFF9
0FFFFFFFF9
0CFFFFFFF5
03FFFFFFB0
002AEFD700
ENDCHAR
STARTCHAR quotesinglbase
ENCODING 8218
SWIDTH 428 0
DWIDTH 9 0
BBX 10 14 -1 0
BITMAP
0001553000
007EFFFC30
07FFFFFFE2
0EFFFFFFF7
1FFFFFFFF9
1FFFFFFFF9
1FFFFFFFF9
1FFFFFFFF9
1FFFB5EFF9
1FFFC1EFF9
0FFFF7FFF9
0CFFFFFFF5
03FFFFFFB0
002AEFD700
ENDCHAR
STARTCHAR quotedblleft
ENCODING 8220
SWIDTH 428 0
DWIDTH 9 0
BBX 10 14 -1 0
BITMAP
0001553000
007EBFBC30
07FC486FE2
0EFA051FF7
1FFFFFFFF9
1FFFFFFFF9
1FFFFFFFF9
1FFFFFFFF9
1FFFFFFFF9
1FFFFFFFF9
0FFFFFFFF9
0CFFFFFFF5
03FFFFFFB0
002AEFD700
ENDCHAR
STARTCHAR quotedblright
ENCODING 8221
SWIDTH 428 0
DWIDTH 9 0
BBX 10 14 -1 0
BITMAP
0001553000
007D8A8B30
07FD261DE2
0EFF6E5FF7
1FFFFFFFF9
1FFFFFFFF9
1FFFFFFFF9
1FFFFFFFF9
1FFFFFFFF9
1FFFFFFFF9
0FFFFFFFF9
0CFFFFFFF5
03FFFFFFB0
002AEFD700
ENDCHAR
STARTCHAR quotedblbase
ENCODING 8222
SWIDTH 428 0
DWIDTH 9 0
BBX 10 14 -1 0
BITMAP
0001553000
007EFFFC30
07FFFFFFE2
0EFFFFFFF7
1FFFFFFFF9
1FFFFFFFF9
1FFFFFFFF9
1FFFFFFFF9
1FFE585EF9
1FFE381DF9
0FFF7F7FF9
0CFFFFFFF5
03FFFFFFB0
002AEFD700
ENDCHAR
STARTCHAR dagger
ENCODING 8224
SWIDTH 578 0
DWIDTH 12 0
BBX 13 14 -1 0
BITMAP
00015666530000
007EFFE9FFC300
07FFFFC2FFFE20
0EFFF8101DFF70
1FFFFEA2DFFF90
1FFFFFC2FFFF90
1FFFFFC2FFFF90
1FFFFFC2FFFF90
1FFFFFC2FFFF90
1FFFFFD8FFFF90
0FFFFFFFFFFF90
0CFFFFFFFFFF50
03FFFFFFFFFB00
002AEFFFFD7000
ENDCHAR
STARTCHAR daggerdbl
ENCODING 8225
SWIDTH 578 0
DWIDTH 12 0
BBX 13 14 -1 0
BITMAP
00015666530000
007EFFE9FFC300
07FFFFC2FFFE20
0EFFF8101DFF70
1FFFFEA2DFFF90
1FFFFFC2FFFF90
1FFFFFC2FFFF90
1FFFF9202DFF90
1FFFFEA2CFFF90
1FFFFFD8FFFF90
0FFFFFFFFFFF90
0CFFFFFFFFFF50
03FFFFFFFFFB00
002AEFFFFD7000
ENDCHAR
STARTCHAR bullet
ENCODING 8226
SWIDTH 578 0
DWIDTH 12 0
BBX 13 14 -1 0
BITMAP
00015666530000
007EFFFFFFC300
07FFF9668EFE20
0EFF700002FF70
1FFF300000EF90
1FFF300000DF90
1FFF300000DF90
1FFF400000EF90
1FFFA10007FF90
1FFFFECCEFFF90
0FFFFFFFFFFF90
0CFFFFFFFFFF50
03FFFFFFFFFB00
002AEFFFFD7000
ENDCHAR
STARTCHAR ellipsis
ENCODING 8230
SWIDTH 578 0
DWIDTH 12 0
BBX 13 14 -1 0
BITMAP
00015666530000
007EFFFFFFC300
07FFFFFFFFFE20
0EFFFFFFFFFF70
1FFFFFFFFFFF90
1FFFFFFFFFFF90
1FFFFFFFFFFF90
1FFFFFFFFFFF90
1FFB6F5C98FF90
1FFB8F7CA9FF90
0FFFFFFFFFFF90
0CFFFFFFFFFF50
03FFFFFFFFFB00
002AEFFFFD7000
ENDCHAR
STARTCHAR perthousand
ENCODING 8240
SWIDTH 640 0
DWIDTH 13 0
BBX 14 14 -1 0
BITMAP
00015666654100
007EFFFFFFFE50
06405F2EFFFFF4
0A3E0B3FFFFFFB
1D13277FFFFFFD
1FDBE2CEFFFEFD
1FFFD1A01A601A
1FFF8669952C56
1FFF4A91186119
1FFFEFFDDFFDED
0FFFFFFFFFFFFC
0CFFFFFFFFFFF9
03FFFFFFFFFFE2
002AEFFFFFE910
ENDCHAR
STARTCHAR guilsinglleft
ENCODING 8249
SWIDTH 578 0
DWIDTH 12 0
BBX 13 14 -1 0
BITMAP
00015666530000
007EFFFFFFC300
07FFFFFE9FFE20
0EFFFFF59FFF70
1FFFFF95FFFF90
1FFFFC3EFFFF90
1FFFF86FFFFF90
1FFFFF4AFFFF90
1FFFFFE3DFFF90
1FFFFFFB5FFF90
0FFFFFFFFFFF90
0CFFFFFFFFFF50
03FFFFFFFFFB00
002AEFFFFD7000
ENDCHAR
STARTCHAR guilsinglright
ENCODING 8250
SWIDTH 578 0
DWIDTH 12 0
BBX 13 14 -1 0
BITMAP
00015666530000
007EFFFFFFC300
07FFFCBFFFFE20
0EFFFD2EFFFF70
1FFFFFA5FFFF90
1FFFFFF59FFF90
1FFFFFF95FFF90
1FFFFFD2EFFF90
1FFFFF4BFFFF90
1FFFFB6FFFFF90
0FFFFFFFFFFF90
0CFFFFFFFFFF50
03FFFFFFFFFB00
002AEFFFFD7000
ENDCHAR
STARTCHAR fraction
ENCODING 8260
SWIDTH 428 0
DWIDTH 9 0
BBX 10 14 -1 0
BITMAP
0001553000
007EFACC30
07FFF4AFE2
0EFFF1DFF7
1FFFE0FFF9
1FFFB3FFF9
1FFF95FFF9
1FFF68FFF9
1FFF4AFFF9
1FFF7DFFF9
0FFFFFFFF9
0CFFFFFFF5
03FFFFFFB0
002AEFD700
ENDCHAR
STARTCHAR Euro
ENCODING 8364
SWIDTH 578 0
DWIDTH 12 0
BBX 13 14 -1 0
BITMAP
00015666530000
007ED8888EC300
07FF26776DFE10
0EFF0EFFFFFF70
1FF10119FFFF90
1FFD0CDEFFFF90
1FF30339FFFF90
1FFF0EFFFFFF90
1FFF26887EFF90
1FFFC7667DFF90
0FFFFFFFFFFF90
0CFFFFFFFFFF50
03FFFFFFFFFB00
002AEFFFFD7000
ENDCHAR
STARTCHAR trademark
ENCODING 8482
SWIDTH 578 0
DWIDTH 12 0
BBX 13 14 -1 0
BITMAP
00015666530000
007EFFFFFFC300
07FFFFFFFFFE20
0EFFFFFFFFFF70
1FFEBBCFEDFF90
1FFD465758FF90
1FFF8C5228FF90
1FFFAD9A9AFF90
1FFFFFFFFFFF90
1FFFFFFFFFFF90
0FFFFFFFFFFF90
0CFFFFFFFFFF50
03FFFFFFFFFB00
002AEFFFFD7000
ENDCHAR
STARTCHAR product
ENCODING 8719
SWIDTH 578 0
DWIDTH 12 0
BBX 13 14 -1 0
BITMAP
00015666530000
007EFB88BFC300
07FE48DD84DE20
0EF5DA667D4F70
1FA8F7BE6C9A90
1F7DF7CF7BE690
1F6DF7343DE690
1FAAF7CFFFA990
1FF4E7CFFE4E90
1FFD4AFFB4CF90
0FFFF9558EFF90
0CFFFFFFFFFF50
03FFFFFFFFFB00
002AEFFFFD7000
ENDCHAR
STARTCHAR minus
ENCODING 8722
SWIDTH 428 0
DWIDTH 9 0
BBX 10 14 -1 0
BITMAP
0001553000
007EFFFC30
07FFFFFFE2
0EFFFFFFF7
1FF7000DF9
1FFFFFFFF9
1FFFFFFFF9
1FFFFFFFF9
1FFFFFFFF9
1FFFFFFFF9
0FFFFFFFF9
0CFFFFFFF5
03FFFFFFB0
002AEFD700
ENDCHAR
STARTCHAR notequal
ENCODING 8800
SWIDTH 578 0
DWIDTH 12 0
BBX 13 14 -1 0
BITMAP
00015666530000
007EFFFFFFC300
07FFFFF8AFFE20
0EFF88716BFF70
1FFF87247BFF90
1FFF66146AFF90
1FFF94488CFF90
1FFFF9DFFFFF90
1FFFFFFFFFFF90
1FFFFFFFFFFF90
0FFFFFFFFFFF90
0CFFFFFFFFFF50
03FFFFFFFFFB00
002AEFFFFD7000
ENDCHAR
STARTCHAR uni2706
ENCODING 9990
SWIDTH 578 0
DWIDTH 12 0
BBX 13 14 -1 0
BITMAP
00015666530000
007EFFCAFFC300
07FFFFB98FFE20
0EFFFDA78DFF70
1FFFA3A97BFF90
1FFF54AFFEFF90
1FFF72FFFFFF90
1FFFC0BFFFFF90
1FFFF71A6FFF90
1FFFFF714AFF90
0FFFFFFDCFFF90
0CFFFFFFFFFF50
03FFFFFFFFFB00
002AEFFFFD7000
ENDCHAR
STARTCHAR uni2708
ENCODING 9992
SWIDTH 578 0
DWIDTH 12 0
BBX 13 14 -1 0
BITMAP
00015666530000
00651322337300
062001BC100720
06000055000060
1503A4554A2060
15002DEED20060
150001CC100060
15000076000060
15000065000060
15000032000060
06000011000060
070000EC000250
035000A8001800
00277666676000
ENDCHAR
STARTCHAR uniF6D6
ENCODING 63190
SWIDTH 419 0
DWIDTH 8 0
BBX 9 7 0 0
BITMAP
0ADBDA1000
4FFFFFA000
CE4F4DF300
AF9AD6FB00
1EF6F8DF40
05FEEFDF60
0079999910
ENDCHAR
STARTCHAR uFFFF2
ENCODING 1048562
SWIDTH 578 0
DWIDTH 12 0
BBX 13 14 -1 0
BITMAP
00015666530000
00651011137300
06200065000720
06000076000060
150000A9000060
150009FF900060
1501A9679A0060
15022055022060
15000088000060
15000466400060
06000011000060
070000EC000250
035000A8001800
00277666676000
ENDCHAR
STARTCHAR uFFFF3
ENCODING 1048563
SWIDTH 578 0
DWIDTH 12 0
BBX 13 14 -1 0
BITMAP
00015666530000
00651011137300
0620003C100720
0600043CB10060
15002D7AB50060
150002DF600060
150001BF300060
15001BACD30060
1500163CD40060
1500003E300060
06000023000060
07000000000250
03500000001800
00277666676000
ENDCHAR
STARTCHAR uFFFF4
ENCODING 1048564
SWIDTH 578 0
DWIDTH 12 0
BBX 13 14 -1 0
BITMAP
00015666530000
007EFFFFFFC300
07FFFFCBFFFE20
0EFFF9B99EFF70
1FFF6BB9C5FF90
1FFF4FB9F5EF90
1FFF4FEEF5EF90
1FFF5CFFD4FF90
1FFFE4563DFF90
1FFFFFDDFFFF90
0FFFFFFFFFFF90
0CFFFFFFFFFF50
03FFFFFFFFFB00
002AEFFFFD7000
ENDCHAR
STARTCHAR uFFFF5
ENCODING 1048565
SWIDTH 578 0
DWIDTH 12 0
BBX 13 14 -1 0
BITMAP
00015666530000
007EFCEDCFC300
07FFFE43EFFE20
0EFFFFAAFFFF70
1FFC5BAAB5DF90
1FFFD2112DFF90
1FFFFE33EFFF90
1FFFFF89FFFF90
1FFFFF9AFFFF90
1FFFFFCDFFFF90
0FFFFFEEFFFF90
0CFFFF13FFFF50
03FFFF57FFFB00
002AEFFFFD7000
ENDCHAR
STARTCHAR uFFFF6
ENCODING 1048566
SWIDTH 578 0
DWIDTH 12 0
BBX 13 14 -1 0
BITMAP
00015666530000
007EFFEEFFC300
07FFFF9AFFFE20
0EFFFF89FFFF70
1FFFFF56FFFF90
1FFFF6006FFF90
1FFE577965FF90
1FFDEF8CFDDF90
1FFFFF58FFFF90
1FFFFB99BFFF90
0FFFFFEEFFFF90
0CFFFF13FFFF50
03FFFF57FFFB00
002AEFFFFD7000
ENDCHAR
STARTCHAR uFFFF8
ENCODING 1048568
SWIDTH 578 0
DWIDTH 12 0
BBX 13 14 -1 0
BITMAP
00015666530000
007EFFFFFFC300
07FFFE57FFFE20
0EFFF776AFFF70
1FFFE4337FFF90
1FFF97435DFF90
1FFF3E46C6FF90
1FFF200005FF90
1FFF500008FF90
1FFFD2004EFF90
0FFFFFBCFFFF90
0CFFFE04FFFF50
03FFFF58FFFB00
002AEFFFFD7000
ENDCHAR
STARTCHAR uFFFF9
ENCODING 1048569
SWIDTH 578 0
DWIDTH 12 0
BBX 13 14 -1 0
BITMAP
00015666530000
00651000137300
06200034000720
06000646610060
150094463A0060
1500B0460A1060
1500B0110A1060
1500A3002B0060
15001BA9C20060
15000022000060
06000000000060
07000000000250
03500000001800
00277666676000
ENDCHAR
STARTCHAR uFFFFB
ENCODING 1048571
SWIDTH 578 0
DWIDTH 12 0
BBX 13 14 -1 0
BITMAP
00015666530000
007EFFAEFFC300
07FFFF64EFFE20
0EFF9B674EFF70
1FFFD2355FFF90
1FFFFD14FFFF90
1FFFF701CFFF90
1FFF85681DFF90
1FFFEF628FFF90
1FFFFF69FFFF90
0FFFFFEFFFFF90
0CFFFFFFFFFF50
03FFFFFFFFFB00
002AEFFFFD7000
ENDCHAR
STARTCHAR uFFFFC
ENCODING 1048572
SWIDTH 578 0
DWIDTH 12 0
BBX 13 14 -1 0
BITMAP
00015666530000
007EFFEEFFC300
07FE722227EE20
0ED28C9AC73E70
1FEC548846CF90
1FFEB7338AEF90
1FFFD8DD8DFF90
1FFFFF44FFFF90
1FFFFFCCFFFF90
1FFFFFFFFFFF90
0FFFFFFFFFFF90
0CFFFFFFFFFF50
03FFFFFFFFFB00
002AEFFFFD7000
ENDCHAR
STARTCHAR uFFFFD
ENCODING 1048573
SWIDTH 578 0
DWIDTH 12 0
BBX 13 14 -1 0
BITMAP
00015666530000
007EFFFFFFC300
07FFF7239FFE20
0EFF70000AFF70
1FFF200005FF90
1FFF292385FF90
1FFF7C35AAFF90
1FFFD1542FFF90
1FFFF944BFFF90
1FFFFA45DFFF90
0FFFFFDEFFFF90
0CFFFE04FFFF50
03FFFF58FFFB00
002AEFFFFD7000
ENDCHAR
STARTCHAR uFFFFE
ENCODING 1048574
SWIDTH 578 0
DWIDTH 12 0
BBX 13 14 -1 0
BITMAP
00015666530000
007EFFFFFFC300
07F744B9448E20
0EE4ED43EE3F70
1FE4BA53FF3F90
1FF47683FF3F90
1FE5FE43FF3F90
1FF26564663F90
1FFECCFECCEF90
1FFFFFFFFFFF90
0FFFFFFFFFFF90
0CFFFFFFFFFF50
03FFFFFFFFFB00
002AEFFFFD7000
ENDCHAR
STARTCHAR uFFFFF
ENCODING 1048575
SWIDTH 578 0
DWIDTH 12 0
BBX 13 14 -1 0
BITMAP
00015666530000
00651000137300
062008DC600720
06008FFFF50060
1500DFFFFA0060
1500D6DC7A0060
150083CA550060
15002EABD00060
150006BB400060
150005BB200060
06000021000060
070001FB000250
035000A7001800
00277666676000
ENDCHAR
STARTCHAR .notdef
ENCODING -1
SWIDTH 1000 0
DWIDTH 20 0
BBX 1 1 0 0
BITMAP
00
ENDCHAR
STARTCHAR glyph1
ENCODING -1
SWIDTH 0 0
DWIDTH 0 0
BBX 1 1 0 0
BITMAP
00
ENDCHAR
ENDFONT
